STARTFONT 2.1
FONT -HP-Sung-Medium-R-Normal--18-180-75-75-C-160-CNS11643.1992-2
SIZE 18 75 75
FONTBOUNDINGBOX 16 18 0 -2

STARTPROPERTIES 23
FONTNAME_REGISTRY ""
FOUNDRY "HP"
FAMILY_NAME "Sung"
WEIGHT_NAME "Medium"
SLANT "R"
SETWIDTH_NAME "Normal"
ADD_STYLE_NAME ""
PIXEL_SIZE 18
POINT_SIZE 180
RESOLUTION_X 75
RESOLUTION_Y 75
SPACING "C"
AVERAGE_WIDTH 160
CHARSET_REGISTRY "CNS11643.1992"
CHARSET_ENCODING "2"
COPYRIGHT "Copyright (c) 1994 Hewlett-Packard Company."
_HP_ASXVERSION "@(#) ASX 3.00 $Revision: 13.9 $ sung18n2"
WEIGHT 10
X_HEIGHT 13
QUAD_WIDTH 16
DEFAULT_CHAR 29253
FONT_DESCENT 2
FONT_ASCENT 16
ENDPROPERTIES

CHARS 7651

STARTCHAR cns2_2121
ENCODING 8481
SWIDTH 854 0
DWIDTH 16 0
BBX 16 18 0 -2
BITMAP
0000
0004
0004
0804
0408
0208
0110
00A0
0040
00A0
0110
0208
0404
0803
1000
2000
0000
0000
ENDCHAR

STARTCHAR cns2_2122
ENCODING 8482
SWIDTH 854 0
DWIDTH 16 0
BBX 16 18 0 -2
BITMAP
0000
0800
0800
0800
0800
081E
0BE2
7C02
0802
0802
0802
080C
0800
0800
0800
0801
0FFF
0000
ENDCHAR

STARTCHAR cns2_2123
ENCODING 8483
SWIDTH 854 0
DWIDTH 16 0
BBX 16 18 0 -2
BITMAP
0000
0000
0000
2002
2002
2002
2002
2002
2002
2002
2002
2002
2002
2002
3FFE
2002
0000
0000
ENDCHAR

STARTCHAR cns2_2124
ENCODING 8484
SWIDTH 854 0
DWIDTH 16 0
BBX 16 18 0 -2
BITMAP
0000
0000
3FFE
2000
2000
2000
2000
2000
2000
2000
2000
2000
2000
2000
2000
3FFF
2000
0000
ENDCHAR

STARTCHAR cns2_2125
ENCODING 8485
SWIDTH 854 0
DWIDTH 16 0
BBX 16 18 0 -2
BITMAP
0000
0000
3FFF
2000
2000
2000
2000
2000
2000
2000
2000
2000
2000
2000
2000
4000
4000
0000
ENDCHAR

STARTCHAR cns2_2126
ENCODING 8486
SWIDTH 854 0
DWIDTH 16 0
BBX 16 18 0 -2
BITMAP
0000
0000
0000
7FFF
0100
0100
0100
01FC
0104
0104
0204
0204
0404
0404
0804
1008
2030
0000
ENDCHAR

STARTCHAR cns2_2127
ENCODING 8487
SWIDTH 854 0
DWIDTH 16 0
BBX 16 18 0 -2
BITMAP
0000
0000
7FFF
0210
0210
0210
0210
0210
0210
0410
0410
0410
0810
0810
1010
0010
0010
0000
ENDCHAR

STARTCHAR cns2_2128
ENCODING 8488
SWIDTH 854 0
DWIDTH 16 0
BBX 16 18 0 -2
BITMAP
0000
00F0
0380
7D00
0100
0100
0100
0101
7FFF
0100
0100
0100
0102
0102
0102
0103
00FE
0000
ENDCHAR

STARTCHAR cns2_2129
ENCODING 8489
SWIDTH 854 0
DWIDTH 16 0
BBX 16 18 0 -2
BITMAP
0000
0000
0FF8
0000
0000
0000
7FFF
0080
0080
0080
0080
0080
0080
0080
0080
0080
0380
0000
ENDCHAR

STARTCHAR cns2_212A
ENCODING 8490
SWIDTH 854 0
DWIDTH 16 0
BBX 16 18 0 -2
BITMAP
0000
0000
3FFE
2002
2002
2002
2002
2002
2002
2002
2002
2002
2002
2002
2002
3FFE
2002
0000
ENDCHAR

STARTCHAR cns2_212B
ENCODING 8491
SWIDTH 854 0
DWIDTH 16 0
BBX 16 18 0 -2
BITMAP
0000
0080
0080
1084
1084
1084
1084
1084
1084
1084
1FFC
1084
0100
0100
0200
0C00
7000
0000
ENDCHAR

STARTCHAR cns2_212C
ENCODING 8492
SWIDTH 854 0
DWIDTH 16 0
BBX 16 18 0 -2
BITMAP
0000
0010
0020
00C0
0300
0C08
3010
0020
0040
01C0
0640
1840
6040
0040
0040
0040
0040
0000
ENDCHAR

STARTCHAR cns2_212D
ENCODING 8493
SWIDTH 854 0
DWIDTH 16 0
BBX 16 18 0 -2
BITMAP
0000
0000
7FFF
0080
0080
1080
10FE
1082
1082
1082
1FFA
1002
0002
0002
0002
0004
0038
0000
ENDCHAR

STARTCHAR cns2_212E
ENCODING 8494
SWIDTH 854 0
DWIDTH 16 0
BBX 16 18 0 -2
BITMAP
0000
0100
0100
7FFF
0200
0400
07F8
0C08
1408
2408
4408
0408
0408
0408
0408
0408
0418
0000
ENDCHAR

STARTCHAR cns2_212F
ENCODING 8495
SWIDTH 854 0
DWIDTH 16 0
BBX 16 18 0 -2
BITMAP
0000
0400
0400
07FC
0800
0800
0800
0FF8
1008
0008
0008
7FC8
0010
0010
0010
0020
01C0
0000
ENDCHAR

STARTCHAR cns2_2130
ENCODING 8496
SWIDTH 854 0
DWIDTH 16 0
BBX 16 18 0 -2
BITMAP
0000
0000
7FF0
0810
0810
0810
7F90
0810
0810
0810
7F90
0810
0810
0810
0811
080F
0800
0000
ENDCHAR

STARTCHAR cns2_2131
ENCODING 8497
SWIDTH 854 0
DWIDTH 16 0
BBX 16 18 0 -2
BITMAP
0000
1FFC
0000
0000
0000
7FFF
0210
0210
0210
0210
0210
0410
0410
0410
0810
0010
0010
0000
ENDCHAR

STARTCHAR cns2_2132
ENCODING 8498
SWIDTH 854 0
DWIDTH 16 0
BBX 16 18 0 -2
BITMAP
0000
0420
0420
0820
0820
1020
1BFE
2822
2822
4842
0842
0842
0882
0882
0902
0A04
0818
0000
ENDCHAR

STARTCHAR cns2_2133
ENCODING 8499
SWIDTH 854 0
DWIDTH 16 0
BBX 16 18 0 -2
BITMAP
0000
0800
09F8
0908
1108
1108
2108
3108
5108
5108
1108
1108
1108
1208
1209
1409
180F
0000
ENDCHAR

STARTCHAR cns2_2134
ENCODING 8500
SWIDTH 854 0
DWIDTH 16 0
BBX 16 18 0 -2
BITMAP
0000
0820
0820
0810
1090
1090
2088
3088
5108
5104
1104
1204
1202
1202
1402
1001
1001
0000
ENDCHAR

STARTCHAR cns2_2135
ENCODING 8501
SWIDTH 854 0
DWIDTH 16 0
BBX 16 18 0 -2
BITMAP
0000
0080
0080
0080
3FFE
2082
2082
2082
2082
0140
0140
0240
0240
0440
0841
1041
607F
0000
ENDCHAR

STARTCHAR cns2_2136
ENCODING 8502
SWIDTH 854 0
DWIDTH 16 0
BBX 16 18 0 -2
BITMAP
0000
0800
0800
1FFF
1003
1202
1202
2FE2
4242
0242
0442
0452
044A
1C7A
0002
0064
0018
0000
ENDCHAR

STARTCHAR cns2_2137
ENCODING 8503
SWIDTH 854 0
DWIDTH 16 0
BBX 16 18 0 -2
BITMAP
0000
0000
033F
3C21
2021
2021
2021
2021
2021
2021
2021
2321
2C21
7027
0020
0020
0020
0000
ENDCHAR

STARTCHAR cns2_2138
ENCODING 8504
SWIDTH 854 0
DWIDTH 16 0
BBX 16 18 0 -2
BITMAP
0000
0100
0100
3FF0
0210
0210
0410
0411
0811
101F
6100
0200
0200
0410
0878
3F88
0004
0000
ENDCHAR

STARTCHAR cns2_2139
ENCODING 8505
SWIDTH 854 0
DWIDTH 16 0
BBX 16 18 0 -2
BITMAP
0000
0020
0820
0820
0820
0820
7F20
0820
0820
0820
0820
0820
0F20
7021
0021
0021
003F
0000
ENDCHAR

STARTCHAR cns2_213A
ENCODING 8506
SWIDTH 854 0
DWIDTH 16 0
BBX 16 18 0 -2
BITMAP
0000
7FF8
0808
0808
0810
0810
081F
0FE1
0821
0C41
0A41
0981
0882
1142
1222
2C04
4018
0000
ENDCHAR

STARTCHAR cns2_213B
ENCODING 8507
SWIDTH 854 0
DWIDTH 16 0
BBX 16 18 0 -2
BITMAP
0000
0080
0080
0080
1FF8
0088
0088
0108
0108
7FFF
0140
0220
0220
0410
0808
1004
6003
0000
ENDCHAR

STARTCHAR cns2_213C
ENCODING 8508
SWIDTH 854 0
DWIDTH 16 0
BBX 16 18 0 -2
BITMAP
0000
0080
0080
0080
0490
0488
0484
0882
3082
0080
0080
3000
0800
0600
0180
0060
001F
0000
ENDCHAR

STARTCHAR cns2_213D
ENCODING 8509
SWIDTH 854 0
DWIDTH 16 0
BBX 16 18 0 -2
BITMAP
0000
00C0
0080
7FFF
0080
0080
2082
3FFE
2082
2082
2082
2082
2082
2092
208C
0080
0080
0000
ENDCHAR

STARTCHAR cns2_213E
ENCODING 8510
SWIDTH 854 0
DWIDTH 16 0
BBX 16 18 0 -2
BITMAP
0000
0000
1FFC
0040
0840
0840
1080
1FFE
0080
00C0
0140
0140
0240
0240
0440
0841
307F
0000
ENDCHAR

STARTCHAR cns2_213F
ENCODING 8511
SWIDTH 854 0
DWIDTH 16 0
BBX 16 18 0 -2
BITMAP
0000
0000
07F0
0410
0410
0810
0811
101F
6000
1FF8
0410
0220
0140
0080
0140
0630
380E
0000
ENDCHAR

STARTCHAR cns2_2140
ENCODING 8512
SWIDTH 854 0
DWIDTH 16 0
BBX 16 18 0 -2
BITMAP
0000
0000
0FFC
0884
0884
0884
0884
0884
7FFF
1088
1088
2088
2108
7FFF
0010
0010
0060
0000
ENDCHAR

STARTCHAR cns2_2141
ENCODING 8513
SWIDTH 854 0
DWIDTH 16 0
BBX 16 18 0 -2
BITMAP
0000
0400
0400
0FFE
0800
1000
2FFC
4000
0000
3FF8
0008
0008
0008
0008
0004
0005
0002
0000
ENDCHAR

STARTCHAR cns2_2142
ENCODING 8514
SWIDTH 854 0
DWIDTH 16 0
BBX 16 18 0 -2
BITMAP
0000
0408
0408
0408
0408
0408
07F8
0408
0008
0008
07F8
0408
0408
0408
0808
1008
6008
0000
ENDCHAR

STARTCHAR cns2_2143
ENCODING 8515
SWIDTH 854 0
DWIDTH 16 0
BBX 16 18 0 -2
BITMAP
0000
0220
0220
0220
2222
2222
2222
2222
2222
2222
3E3E
2222
0422
0420
0820
1020
2020
0000
ENDCHAR

STARTCHAR cns2_2144
ENCODING 8516
SWIDTH 854 0
DWIDTH 16 0
BBX 16 18 0 -2
BITMAP
0000
0010
0810
0810
7FFE
0810
0A10
0910
08F0
0810
7FFF
0810
0810
0810
1010
1010
2010
0000
ENDCHAR

STARTCHAR cns2_2145
ENCODING 8517
SWIDTH 854 0
DWIDTH 16 0
BBX 16 18 0 -2
BITMAP
0000
0400
0400
0800
09FE
1000
2000
3000
5000
10FC
1000
1000
1000
1000
1000
13FF
1000
0000
ENDCHAR

STARTCHAR cns2_2146
ENCODING 8518
SWIDTH 854 0
DWIDTH 16 0
BBX 16 18 0 -2
BITMAP
0000
0800
0BFE
0820
1020
1020
2020
3020
5020
5020
1020
1020
1020
1020
1020
17FF
1000
0000
ENDCHAR

STARTCHAR cns2_2147
ENCODING 8519
SWIDTH 854 0
DWIDTH 16 0
BBX 16 18 0 -2
BITMAP
0000
0800
0840
0840
1040
1040
2040
3040
507E
5040
1040
1040
1040
1040
1040
1040
17FF
0000
ENDCHAR

STARTCHAR cns2_2148
ENCODING 8520
SWIDTH 854 0
DWIDTH 16 0
BBX 16 18 0 -2
BITMAP
0000
0900
0900
1200
13FF
1400
2400
3000
53F8
5010
1020
1040
1080
1101
1201
1201
11FE
0000
ENDCHAR

STARTCHAR cns2_2149
ENCODING 8521
SWIDTH 854 0
DWIDTH 16 0
BBX 16 18 0 -2
BITMAP
0000
0080
0140
0220
0410
0808
1004
2002
5FFD
0080
0080
0080
0080
0080
0080
0080
7FFF
0000
ENDCHAR

STARTCHAR cns2_214A
ENCODING 8522
SWIDTH 854 0
DWIDTH 16 0
BBX 16 18 0 -2
BITMAP
0000
0040
0040
0080
0080
0140
0230
0C0C
7003
0080
0080
2082
2082
2082
2082
3FFE
2002
0000
ENDCHAR

STARTCHAR cns2_214B
ENCODING 8523
SWIDTH 854 0
DWIDTH 16 0
BBX 16 18 0 -2
BITMAP
0000
0101
0101
0101
0101
1FE9
0109
0109
1109
0909
0909
0909
0109
0101
0101
0101
0303
0000
ENDCHAR

STARTCHAR cns2_214C
ENCODING 8524
SWIDTH 854 0
DWIDTH 16 0
BBX 16 18 0 -2
BITMAP
0000
0401
0801
1001
1FE1
2001
4009
1F89
0109
0209
0409
0809
1009
2021
2021
1FC1
0007
0000
ENDCHAR

STARTCHAR cns2_214D
ENCODING 8525
SWIDTH 854 0
DWIDTH 16 0
BBX 16 18 0 -2
BITMAP
0000
0000
3FFE
2000
2020
2220
223E
23E2
2E22
2224
2220
2220
2202
23FE
2000
3FFF
2000
0000
ENDCHAR

STARTCHAR cns2_214E
ENCODING 8526
SWIDTH 854 0
DWIDTH 16 0
BBX 16 18 0 -2
BITMAP
0000
0804
0804
0924
0924
0924
0924
7FFF
0924
0924
0924
0924
0924
1124
1004
2004
4004
0000
ENDCHAR

STARTCHAR cns2_214F
ENCODING 8527
SWIDTH 854 0
DWIDTH 16 0
BBX 16 18 0 -2
BITMAP
0000
1BFF
1010
1010
1010
7F10
1010
1010
1010
1010
1010
1F10
7010
0010
0110
00F0
0040
0000
ENDCHAR

STARTCHAR cns2_2150
ENCODING 8528
SWIDTH 854 0
DWIDTH 16 0
BBX 16 18 0 -2
BITMAP
0000
0000
0FFE
0004
0C18
0360
0080
0360
0C98
7087
0080
0080
1FFC
0080
0080
0080
7FFF
0000
ENDCHAR

STARTCHAR cns2_2151
ENCODING 8529
SWIDTH 854 0
DWIDTH 16 0
BBX 16 18 0 -2
BITMAP
0000
1000
107E
1042
1F42
1142
1142
2142
5142
4A42
0A4C
0640
0440
0442
0842
1041
607E
0000
ENDCHAR

STARTCHAR cns2_2152
ENCODING 8530
SWIDTH 854 0
DWIDTH 16 0
BBX 16 18 0 -2
BITMAP
0000
0080
0080
3FFE
0140
0120
0220
0410
088C
7083
0FF8
0088
0108
0108
0208
0208
0C38
0000
ENDCHAR

STARTCHAR cns2_2153
ENCODING 8531
SWIDTH 854 0
DWIDTH 16 0
BBX 16 18 0 -2
BITMAP
0000
0080
0080
3FFF
2001
2001
0000
0FFC
0040
0040
0040
0040
0040
0040
0040
0040
01C0
0000
ENDCHAR

STARTCHAR cns2_2154
ENCODING 8532
SWIDTH 854 0
DWIDTH 16 0
BBX 16 18 0 -2
BITMAP
0000
0200
0200
7FFC
4004
4004
0200
0200
1FE0
0220
0220
0220
0220
0420
0420
1811
600F
0000
ENDCHAR

STARTCHAR cns2_2155
ENCODING 8533
SWIDTH 854 0
DWIDTH 16 0
BBX 16 18 0 -2
BITMAP
0000
0080
0080
0080
0140
0220
0410
180C
6083
0080
0490
0488
0884
1082
6082
0080
0300
0000
ENDCHAR

STARTCHAR cns2_2156
ENCODING 8534
SWIDTH 854 0
DWIDTH 16 0
BBX 16 18 0 -2
BITMAP
0000
0000
1FFE
1002
1002
1FFE
1000
1080
1080
17F8
1088
1088
1088
1108
2109
2209
440F
0000
ENDCHAR

STARTCHAR cns2_2157
ENCODING 8535
SWIDTH 854 0
DWIDTH 16 0
BBX 16 18 0 -2
BITMAP
0000
0040
1041
1041
1041
1FFF
1001
0040
0040
0FFE
0082
0082
0082
0102
0102
0204
1C18
0000
ENDCHAR

STARTCHAR cns2_2158
ENCODING 8536
SWIDTH 854 0
DWIDTH 16 0
BBX 16 18 0 -2
BITMAP
0000
0700
0180
0240
0420
0810
1008
2004
4082
0080
1084
1084
1084
1084
1084
1FFC
1004
0000
ENDCHAR

STARTCHAR cns2_2159
ENCODING 8537
SWIDTH 854 0
DWIDTH 16 0
BBX 16 18 0 -2
BITMAP
0000
0800
08FF
0808
7F08
4908
4908
4908
4908
4908
4908
4908
4E08
0808
0808
0848
0838
0000
ENDCHAR

STARTCHAR cns2_215A
ENCODING 8538
SWIDTH 854 0
DWIDTH 16 0
BBX 16 18 0 -2
BITMAP
0000
0020
0020
1FFF
1000
1200
1200
120C
1230
13C0
1200
1200
1200
2200
2201
4201
43FF
0000
ENDCHAR

STARTCHAR cns2_215B
ENCODING 8539
SWIDTH 854 0
DWIDTH 16 0
BBX 16 18 0 -2
BITMAP
0000
0080
0040
3FFF
2000
2040
2040
2040
20A0
20A0
20A0
2110
2110
2208
2404
4802
5001
0000
ENDCHAR

STARTCHAR cns2_215C
ENCODING 8540
SWIDTH 854 0
DWIDTH 16 0
BBX 16 18 0 -2
BITMAP
0000
1000
11FE
1022
1022
5822
5422
5422
5022
1022
1042
1042
1042
1042
1082
1102
100C
0000
ENDCHAR

STARTCHAR cns2_215D
ENCODING 8541
SWIDTH 854 0
DWIDTH 16 0
BBX 16 18 0 -2
BITMAP
0000
0090
0088
0084
3FFF
2080
2080
2088
2088
2088
2048
2228
2430
38D0
210A
0607
0800
0000
ENDCHAR

STARTCHAR cns2_215E
ENCODING 8542
SWIDTH 854 0
DWIDTH 16 0
BBX 16 18 0 -2
BITMAP
0000
0820
0820
0820
7E20
09FF
0821
0A21
0C21
1841
6841
0841
0841
0881
0881
0901
1A0E
0000
ENDCHAR

STARTCHAR cns2_215F
ENCODING 8543
SWIDTH 854 0
DWIDTH 16 0
BBX 16 18 0 -2
BITMAP
0000
0800
0FFE
1000
1FF8
2000
5FFC
0004
0004
0104
0104
0104
0104
0205
0205
0402
0802
0000
ENDCHAR

STARTCHAR cns2_2160
ENCODING 8544
SWIDTH 854 0
DWIDTH 16 0
BBX 16 18 0 -2
BITMAP
0000
0000
3FFC
0018
0060
0180
0082
00C4
7CC8
04B0
04A0
0890
0890
1088
2084
4083
0180
0000
ENDCHAR

STARTCHAR cns2_2161
ENCODING 8545
SWIDTH 854 0
DWIDTH 16 0
BBX 16 18 0 -2
BITMAP
0000
2020
1010
0010
0090
4088
2088
0088
0088
1104
1104
1104
2204
2202
2202
4401
4801
0000
ENDCHAR

STARTCHAR cns2_2162
ENCODING 8546
SWIDTH 854 0
DWIDTH 16 0
BBX 16 18 0 -2
BITMAP
0000
2080
1080
0080
0080
47F8
2088
0088
0088
1088
1088
1108
2108
2108
2209
6209
4C0F
0000
ENDCHAR

STARTCHAR cns2_2163
ENCODING 8547
SWIDTH 854 0
DWIDTH 16 0
BBX 16 18 0 -2
BITMAP
0000
2020
1020
0820
0020
41FE
2022
1022
0022
0022
0842
0842
0842
1082
1082
2102
221C
0000
ENDCHAR

STARTCHAR cns2_2164
ENCODING 8548
SWIDTH 854 0
DWIDTH 16 0
BBX 16 18 0 -2
BITMAP
0000
0210
0208
0208
0200
7FFF
0200
0200
0504
0504
0488
0850
0820
1050
2088
4304
0C03
0000
ENDCHAR

STARTCHAR cns2_2165
ENCODING 8549
SWIDTH 854 0
DWIDTH 16 0
BBX 16 18 0 -2
BITMAP
0000
4440
2840
1040
2840
49F8
0848
0848
0848
1848
2848
4888
0888
0888
0909
1209
640F
0000
ENDCHAR

STARTCHAR cns2_2166
ENCODING 8550
SWIDTH 854 0
DWIDTH 16 0
BBX 16 18 0 -2
BITMAP
0000
3FFC
0100
0120
0110
0108
0104
0100
3FFC
0100
0100
0100
0100
0100
0100
7FFE
0000
0000
ENDCHAR

STARTCHAR cns2_2167
ENCODING 8551
SWIDTH 854 0
DWIDTH 16 0
BBX 16 18 0 -2
BITMAP
0000
0040
0040
0040
0040
1FFF
1041
1041
1041
1051
1049
1079
1785
1001
1001
1001
1007
0000
ENDCHAR

STARTCHAR cns2_2168
ENCODING 8552
SWIDTH 854 0
DWIDTH 16 0
BBX 16 18 0 -2
BITMAP
0000
0000
3C00
25FE
2402
2404
3C08
2410
2420
2440
3C80
2480
2500
2501
2501
44FF
4C00
0000
ENDCHAR

STARTCHAR cns2_2169
ENCODING 8553
SWIDTH 854 0
DWIDTH 16 0
BBX 16 18 0 -2
BITMAP
0000
0010
3E10
2210
2210
24FF
2421
2821
2421
2221
2221
2221
2441
3841
2041
2081
2306
0000
ENDCHAR

STARTCHAR cns2_216A
ENCODING 8554
SWIDTH 854 0
DWIDTH 16 0
BBX 16 18 0 -2
BITMAP
0000
0210
0210
0410
05FF
0810
1810
1810
29FE
4802
0882
0844
0828
0810
0828
08C4
0B03
0000
ENDCHAR

STARTCHAR cns2_216B
ENCODING 8555
SWIDTH 854 0
DWIDTH 16 0
BBX 16 18 0 -2
BITMAP
0000
0210
0210
0414
0412
0810
09FF
1810
2820
4830
0850
0850
0850
0891
0891
0911
0A0E
0000
ENDCHAR

STARTCHAR cns2_216C
ENCODING 8556
SWIDTH 854 0
DWIDTH 16 0
BBX 16 18 0 -2
BITMAP
0000
0800
0800
09FE
1102
1102
2102
31FE
5120
5110
1110
1208
1208
1204
1404
1402
1801
0000
ENDCHAR

STARTCHAR cns2_216D
ENCODING 8557
SWIDTH 854 0
DWIDTH 16 0
BBX 16 18 0 -2
BITMAP
0000
0840
0880
0900
13FE
1220
2420
3020
5020
57FF
1020
1020
1020
1020
1020
1020
1020
0000
ENDCHAR

STARTCHAR cns2_216E
ENCODING 8558
SWIDTH 854 0
DWIDTH 16 0
BBX 16 18 0 -2
BITMAP
0000
0800
0800
09FF
1101
1202
2000
3048
5048
1048
1048
1088
1088
1088
1109
1209
140F
0000
ENDCHAR

STARTCHAR cns2_216F
ENCODING 8559
SWIDTH 854 0
DWIDTH 16 0
BBX 16 18 0 -2
BITMAP
0000
0220
0230
0450
0488
0904
0A03
18FC
2800
4800
08FC
0804
0804
0808
0808
0810
0820
0000
ENDCHAR

STARTCHAR cns2_2170
ENCODING 8560
SWIDTH 854 0
DWIDTH 16 0
BBX 16 18 0 -2
BITMAP
0000
0800
0838
0888
1088
1088
2104
3104
5202
5421
1020
1040
1084
1104
123E
17C2
1001
0000
ENDCHAR

STARTCHAR cns2_2171
ENCODING 8561
SWIDTH 854 0
DWIDTH 16 0
BBX 16 18 0 -2
BITMAP
0000
0820
0850
0890
1088
1104
2202
3289
5488
5088
1088
1088
1088
1108
1108
1208
1408
0000
ENDCHAR

STARTCHAR cns2_2172
ENCODING 8562
SWIDTH 854 0
DWIDTH 16 0
BBX 16 18 0 -2
BITMAP
0000
0840
0820
0810
1080
1080
2080
3280
5280
5282
1283
1281
1481
1481
1888
1088
10F8
0000
ENDCHAR

STARTCHAR cns2_2173
ENCODING 8563
SWIDTH 854 0
DWIDTH 16 0
BBX 16 18 0 -2
BITMAP
0000
0400
09FE
0800
1000
1000
3000
33FF
5020
5020
1040
1040
1080
1084
111E
17E1
1001
0000
ENDCHAR

STARTCHAR cns2_2174
ENCODING 8564
SWIDTH 854 0
DWIDTH 16 0
BBX 16 18 0 -2
BITMAP
0000
0420
0410
05FF
0810
0810
0810
18FE
2892
4892
0892
0892
0896
0810
0810
0810
0810
0000
ENDCHAR

STARTCHAR cns2_2175
ENCODING 8565
SWIDTH 854 0
DWIDTH 16 0
BBX 16 18 0 -2
BITMAP
0000
1820
1020
17FF
1020
1222
3222
5222
1222
1222
1222
13FE
1020
1020
1020
1022
103E
0000
ENDCHAR

STARTCHAR cns2_2176
ENCODING 8566
SWIDTH 854 0
DWIDTH 16 0
BBX 16 18 0 -2
BITMAP
0000
0FFE
0908
1108
1108
1108
3108
510A
51FF
5008
1018
1028
1048
1388
1C08
1088
1078
0000
ENDCHAR

STARTCHAR cns2_2177
ENCODING 8567
SWIDTH 854 0
DWIDTH 16 0
BBX 16 18 0 -2
BITMAP
0000
0800
0BFF
0810
1010
1020
2020
3040
5068
50A4
10A2
1121
1221
1420
1020
1020
1020
0000
ENDCHAR

STARTCHAR cns2_2178
ENCODING 8568
SWIDTH 854 0
DWIDTH 16 0
BBX 16 18 0 -2
BITMAP
0000
0800
0BFC
1844
1044
1044
17FC
3440
3440
3444
77FC
1044
1044
1044
105C
1040
1040
0000
ENDCHAR

STARTCHAR cns2_2179
ENCODING 8569
SWIDTH 854 0
DWIDTH 16 0
BBX 16 18 0 -2
BITMAP
0000
0200
0200
04FF
0481
0881
1081
18FF
2881
0881
0881
08FF
0881
0881
0901
0901
0903
0000
ENDCHAR

STARTCHAR cns2_217A
ENCODING 8570
SWIDTH 854 0
DWIDTH 16 0
BBX 16 18 0 -2
BITMAP
0000
1807
1118
11E0
1100
1100
3100
31FF
5108
5108
1108
1108
1108
1108
1208
1408
1408
0000
ENDCHAR

STARTCHAR cns2_217B
ENCODING 8571
SWIDTH 854 0
DWIDTH 16 0
BBX 16 18 0 -2
BITMAP
0000
0000
2000
17FE
0080
0080
0080
00F8
1108
1108
1108
2108
21F8
2210
4210
4010
0FFF
0000
ENDCHAR

STARTCHAR cns2_217C
ENCODING 8572
SWIDTH 854 0
DWIDTH 16 0
BBX 16 18 0 -2
BITMAP
0000
0001
1F01
0011
0011
0011
7FD1
0911
0911
0911
0911
0911
1111
2141
4181
0001
0003
0000
ENDCHAR

STARTCHAR cns2_217D
ENCODING 8573
SWIDTH 854 0
DWIDTH 16 0
BBX 16 18 0 -2
BITMAP
0000
0001
1FC1
1049
1049
1449
1249
1149
1049
7FE9
1049
1049
1049
1041
2041
2041
40C3
0000
ENDCHAR

STARTCHAR cns2_217E
ENCODING 8574
SWIDTH 854 0
DWIDTH 16 0
BBX 16 18 0 -2
BITMAP
0000
0080
0FFC
0084
0104
0104
0604
1818
0000
0808
7F7F
0909
0909
1111
1111
2121
4646
0000
ENDCHAR

STARTCHAR cns2_2221
ENCODING 8737
SWIDTH 854 0
DWIDTH 16 0
BBX 16 18 0 -2
BITMAP
0000
7FFE
4000
4200
4200
47FC
4494
4494
4894
4124
4124
4244
4488
4030
4000
7FFF
4000
0000
ENDCHAR

STARTCHAR cns2_2222
ENCODING 8738
SWIDTH 854 0
DWIDTH 16 0
BBX 16 18 0 -2
BITMAP
0000
0000
3FFE
2000
2040
2FFE
2000
21F0
2110
2110
2110
2112
2212
2C1E
2000
3FFF
2000
0000
ENDCHAR

STARTCHAR cns2_2223
ENCODING 8739
SWIDTH 854 0
DWIDTH 16 0
BBX 16 18 0 -2
BITMAP
0000
0000
7F82
0082
0082
0082
0082
0082
3FFE
2082
2080
2080
2080
2080
2080
20FF
2080
0000
ENDCHAR

STARTCHAR cns2_2224
ENCODING 8740
SWIDTH 854 0
DWIDTH 16 0
BBX 16 18 0 -2
BITMAP
0000
1FFF
1000
11FE
1210
1210
1210
1210
13FE
1010
1030
1050
1090
1110
2210
4CF0
0000
0000
ENDCHAR

STARTCHAR cns2_2225
ENCODING 8741
SWIDTH 854 0
DWIDTH 16 0
BBX 16 18 0 -2
BITMAP
0000
0000
01FE
7802
4804
4808
4810
4810
4810
4BFF
7810
4810
4010
0010
0010
0010
0070
0000
ENDCHAR

STARTCHAR cns2_2226
ENCODING 8742
SWIDTH 854 0
DWIDTH 16 0
BBX 16 18 0 -2
BITMAP
0000
0000
1FFF
1001
1081
1081
17FD
1089
1109
1311
1091
1061
1091
1109
1605
1001
1FFF
0000
ENDCHAR

STARTCHAR cns2_2227
ENCODING 8743
SWIDTH 854 0
DWIDTH 16 0
BBX 16 18 0 -2
BITMAP
0000
00C0
0300
0400
1FFF
1001
1405
1209
11B1
1041
10A1
1111
1209
1405
1001
1FFF
1001
0000
ENDCHAR

STARTCHAR cns2_2228
ENCODING 8744
SWIDTH 854 0
DWIDTH 16 0
BBX 16 18 0 -2
BITMAP
0000
0000
08FC
0804
0804
0804
7E04
0804
08FC
0880
0880
0880
0E80
7080
0081
0081
00FF
0000
ENDCHAR

STARTCHAR cns2_2229
ENCODING 8745
SWIDTH 854 0
DWIDTH 16 0
BBX 16 18 0 -2
BITMAP
0000
1020
1020
1040
107F
1080
7D00
10FC
1008
1010
1020
1040
1C40
6080
0081
0081
007F
0000
ENDCHAR

STARTCHAR cns2_222A
ENCODING 8746
SWIDTH 854 0
DWIDTH 16 0
BBX 16 18 0 -2
BITMAP
0000
1080
1080
1080
10FF
7D01
1201
1001
1041
1021
1011
1001
1401
1801
6001
0002
001C
0000
ENDCHAR

STARTCHAR cns2_222B
ENCODING 8747
SWIDTH 854 0
DWIDTH 16 0
BBX 16 18 0 -2
BITMAP
0000
0080
0080
3FFE
0220
0410
0808
148C
648B
0488
0488
0488
0488
0488
0888
0808
1008
0000
ENDCHAR

STARTCHAR cns2_222C
ENCODING 8748
SWIDTH 854 0
DWIDTH 16 0
BBX 16 18 0 -2
BITMAP
0000
0208
7E08
0208
0208
02FF
0212
7E12
4012
4022
4044
4024
4018
4208
4C14
7022
0040
0000
ENDCHAR

STARTCHAR cns2_222D
ENCODING 8749
SWIDTH 854 0
DWIDTH 16 0
BBX 16 18 0 -2
BITMAP
0000
100E
11F0
1020
1020
7C20
2420
2420
442F
45F0
2820
1820
0820
1420
1221
2021
401F
0000
ENDCHAR

STARTCHAR cns2_222E
ENCODING 8750
SWIDTH 854 0
DWIDTH 16 0
BBX 16 18 0 -2
BITMAP
0000
1000
1000
10FE
1010
7C10
2410
2410
4410
4410
2810
1810
0810
1410
1210
20FF
4000
0000
ENDCHAR

STARTCHAR cns2_222F
ENCODING 8751
SWIDTH 854 0
DWIDTH 16 0
BBX 16 18 0 -2
BITMAP
0000
0808
0808
0808
0808
7F7F
1111
1111
1111
2121
6262
1212
0C0C
0404
0A0A
1111
2020
0000
ENDCHAR

STARTCHAR cns2_2230
ENCODING 8752
SWIDTH 854 0
DWIDTH 16 0
BBX 16 18 0 -2
BITMAP
0000
1010
1010
1010
1010
7D11
2511
2511
2511
4511
4511
3511
0911
1511
1511
21FF
4101
0000
ENDCHAR

STARTCHAR cns2_2231
ENCODING 8753
SWIDTH 854 0
DWIDTH 16 0
BBX 16 18 0 -2
BITMAP
0000
100E
1010
10F0
1410
7F10
1410
25FF
2410
4410
4410
4410
2410
1C10
1210
2010
4010
0000
ENDCHAR

STARTCHAR cns2_2232
ENCODING 8754
SWIDTH 854 0
DWIDTH 16 0
BBX 16 18 0 -2
BITMAP
0000
2040
2044
7DFE
2444
2444
2444
6444
3444
2C84
2488
2448
2430
2448
2484
4401
47FF
0000
ENDCHAR

STARTCHAR cns2_2233
ENCODING 8755
SWIDTH 854 0
DWIDTH 16 0
BBX 16 18 0 -2
BITMAP
0000
0000
7F7F
0202
0404
0404
1818
0808
0908
0E7F
7808
0808
0808
0808
0808
0808
3030
0000
ENDCHAR

STARTCHAR cns2_2234
ENCODING 8756
SWIDTH 854 0
DWIDTH 16 0
BBX 16 18 0 -2
BITMAP
0000
0000
1FF0
0110
021F
0201
0401
0801
104E
2040
0040
0240
0444
0842
1041
2040
01C0
0000
ENDCHAR

STARTCHAR cns2_2235
ENCODING 8757
SWIDTH 854 0
DWIDTH 16 0
BBX 16 18 0 -2
BITMAP
0000
0800
0800
0820
7FA0
0840
087F
0C81
0B01
1221
1211
1209
1201
2209
2205
4203
41FE
0000
ENDCHAR

STARTCHAR cns2_2236
ENCODING 8758
SWIDTH 854 0
DWIDTH 16 0
BBX 16 18 0 -2
BITMAP
0000
1000
1000
11FF
5448
5448
5448
5448
5448
5448
5448
5448
7C48
4488
0088
0109
060F
0000
ENDCHAR

STARTCHAR cns2_2237
ENCODING 8759
SWIDTH 854 0
DWIDTH 16 0
BBX 16 18 0 -2
BITMAP
0000
0800
087E
0802
2A02
2A02
2A02
2A02
2A7E
2A42
2A40
2A40
3E40
2240
0041
0041
007F
0000
ENDCHAR

STARTCHAR cns2_2238
ENCODING 8760
SWIDTH 854 0
DWIDTH 16 0
BBX 16 18 0 -2
BITMAP
0000
0800
08FE
0812
4912
4912
4912
4952
4952
4932
4912
4912
4912
7F22
0042
01A6
0018
0000
ENDCHAR

STARTCHAR cns2_2239
ENCODING 8761
SWIDTH 854 0
DWIDTH 16 0
BBX 16 18 0 -2
BITMAP
0000
0808
0808
0808
0808
4949
4949
4949
4949
4949
4949
4949
4949
7F7F
4141
0000
0000
0000
ENDCHAR

STARTCHAR cns2_223A
ENCODING 8762
SWIDTH 854 0
DWIDTH 16 0
BBX 16 18 0 -2
BITMAP
0000
0100
0080
7FFF
1000
1000
1000
1FFC
0000
0888
0888
0888
0888
1088
1089
2089
4007
0000
ENDCHAR

STARTCHAR cns2_223B
ENCODING 8763
SWIDTH 854 0
DWIDTH 16 0
BBX 16 18 0 -2
BITMAP
0000
0000
3E3E
0808
0808
0808
0808
0E08
187F
6808
0808
0808
1008
1008
1008
2008
2008
0000
ENDCHAR

STARTCHAR cns2_223C
ENCODING 8764
SWIDTH 854 0
DWIDTH 16 0
BBX 16 18 0 -2
BITMAP
0000
0040
0040
3FFF
2000
2040
2040
2040
2040
2FFE
2040
2040
2040
2040
2040
2040
4FFF
0000
ENDCHAR

STARTCHAR cns2_223D
ENCODING 8765
SWIDTH 854 0
DWIDTH 16 0
BBX 16 18 0 -2
BITMAP
0000
1FFC
0004
0004
1FFC
1000
1000
1001
1FFF
0000
0108
0108
1FFF
0108
0208
0C08
3008
0000
ENDCHAR

STARTCHAR cns2_223E
ENCODING 8766
SWIDTH 854 0
DWIDTH 16 0
BBX 16 18 0 -2
BITMAP
0000
0340
0220
0418
0804
1003
7FFC
0084
0084
3FFC
2080
7FFF
0081
0082
0082
009C
0080
0000
ENDCHAR

STARTCHAR cns2_223F
ENCODING 8767
SWIDTH 854 0
DWIDTH 16 0
BBX 16 18 0 -2
BITMAP
0000
0880
1080
20FF
4901
0901
1201
1201
3401
5081
1041
1021
1001
1001
1001
1002
100C
0000
ENDCHAR

STARTCHAR cns2_2240
ENCODING 8768
SWIDTH 854 0
DWIDTH 16 0
BBX 16 18 0 -2
BITMAP
0000
1010
1010
1010
1010
5410
55FF
5010
5010
1010
1028
1028
1044
1044
1082
1101
1200
0000
ENDCHAR

STARTCHAR cns2_2241
ENCODING 8769
SWIDTH 854 0
DWIDTH 16 0
BBX 16 18 0 -2
BITMAP
0000
1040
1040
1080
10FF
5500
5400
50FC
5008
1010
1020
1040
1080
1101
1101
10FE
1000
0000
ENDCHAR

STARTCHAR cns2_2242
ENCODING 8770
SWIDTH 854 0
DWIDTH 16 0
BBX 16 18 0 -2
BITMAP
0000
1000
103E
13E0
1020
1020
3820
5420
57FF
1220
1020
1020
1020
1020
1020
1020
1020
0000
ENDCHAR

STARTCHAR cns2_2243
ENCODING 8771
SWIDTH 854 0
DWIDTH 16 0
BBX 16 18 0 -2
BITMAP
0000
1000
1000
10FE
7C10
1010
1010
1410
19FF
7010
1010
1010
1010
1010
1010
1010
3030
0000
ENDCHAR

STARTCHAR cns2_2244
ENCODING 8772
SWIDTH 854 0
DWIDTH 16 0
BBX 16 18 0 -2
BITMAP
0000
1000
11FE
1020
7C20
1020
1020
1420
1BFF
7020
1020
1020
1020
1020
1020
1020
3020
0000
ENDCHAR

STARTCHAR cns2_2245
ENCODING 8773
SWIDTH 854 0
DWIDTH 16 0
BBX 16 18 0 -2
BITMAP
0000
1000
13FF
1048
7C48
1048
1048
1448
1848
7048
1048
1048
1088
1088
1108
1209
3007
0000
ENDCHAR

STARTCHAR cns2_2246
ENCODING 8774
SWIDTH 854 0
DWIDTH 16 0
BBX 16 18 0 -2
BITMAP
0000
1000
1010
1090
7C90
1097
10F9
1391
1C91
7091
1091
1090
1080
1080
1080
1081
30FF
0000
ENDCHAR

STARTCHAR cns2_2247
ENCODING 8775
SWIDTH 854 0
DWIDTH 16 0
BBX 16 18 0 -2
BITMAP
0000
1000
101E
11E0
7C20
1020
1020
1420
1BFF
7020
1020
1020
1020
1020
1020
1020
3020
0000
ENDCHAR

STARTCHAR cns2_2248
ENCODING 8776
SWIDTH 854 0
DWIDTH 16 0
BBX 16 18 0 -2
BITMAP
0000
1020
1020
1040
7C7F
1080
1100
10FC
1C08
7010
1020
1040
1040
1080
1081
1081
307F
0000
ENDCHAR

STARTCHAR cns2_2249
ENCODING 8777
SWIDTH 854 0
DWIDTH 16 0
BBX 16 18 0 -2
BITMAP
0000
1010
1010
1010
10FE
7F10
1090
1290
1490
1850
7030
1020
1020
1050
1088
5106
3201
0000
ENDCHAR

STARTCHAR cns2_224A
ENCODING 8778
SWIDTH 854 0
DWIDTH 16 0
BBX 16 18 0 -2
BITMAP
0000
1000
1000
13FE
7D02
1122
1114
1084
1888
7048
1050
1020
1020
1050
118C
1603
3000
0000
ENDCHAR

STARTCHAR cns2_224B
ENCODING 8779
SWIDTH 854 0
DWIDTH 16 0
BBX 16 18 0 -2
BITMAP
0000
1040
1040
1080
7CFE
1102
1202
1002
1042
1C22
7012
1012
1002
1002
1002
1002
301C
0000
ENDCHAR

STARTCHAR cns2_224C
ENCODING 8780
SWIDTH 854 0
DWIDTH 16 0
BBX 16 18 0 -2
BITMAP
0000
1820
1020
103E
11E0
7C20
1020
1420
1820
37FF
5020
1020
1020
1022
1021
7021
303E
0000
ENDCHAR

STARTCHAR cns2_224D
ENCODING 8781
SWIDTH 854 0
DWIDTH 16 0
BBX 16 18 0 -2
BITMAP
0000
0020
7F20
0820
0840
107F
10A2
1EA2
2222
2222
0214
0214
0208
0208
0214
0462
1981
0000
ENDCHAR

STARTCHAR cns2_224E
ENCODING 8782
SWIDTH 854 0
DWIDTH 16 0
BBX 16 18 0 -2
BITMAP
0000
1FFC
1004
1004
1FFC
1004
1004
1FFC
0200
0200
7FF0
0210
0210
0410
0812
1012
601E
0000
ENDCHAR

STARTCHAR cns2_224F
ENCODING 8783
SWIDTH 854 0
DWIDTH 16 0
BBX 16 18 0 -2
BITMAP
0000
0200
0200
7FF0
0210
0210
0412
0812
301E
0000
1FFC
1004
1004
1FFC
1004
1004
1FFC
0000
ENDCHAR

STARTCHAR cns2_2250
ENCODING 8784
SWIDTH 854 0
DWIDTH 16 0
BBX 16 18 0 -2
BITMAP
0000
0800
0800
0800
08FF
7E08
0808
1808
1C08
2A08
2808
4808
4808
0808
0808
0808
0838
0000
ENDCHAR

STARTCHAR cns2_2251
ENCODING 8785
SWIDTH 854 0
DWIDTH 16 0
BBX 16 18 0 -2
BITMAP
0000
1040
1040
1040
1040
7DF8
1048
1048
3048
3848
5448
5048
5048
1088
1089
1109
120F
0000
ENDCHAR

STARTCHAR cns2_2252
ENCODING 8786
SWIDTH 854 0
DWIDTH 16 0
BBX 16 18 0 -2
BITMAP
0000
0820
0820
0820
7E20
09FF
1821
1C21
2A21
2841
4841
4841
0841
0881
0881
0902
0A1C
0000
ENDCHAR

STARTCHAR cns2_2253
ENCODING 8787
SWIDTH 854 0
DWIDTH 16 0
BBX 16 18 0 -2
BITMAP
0000
0804
0804
0844
0844
7E44
0844
0844
1844
1C44
2A5C
2864
4804
0804
0804
0804
0804
0000
ENDCHAR

STARTCHAR cns2_2254
ENCODING 8788
SWIDTH 854 0
DWIDTH 16 0
BBX 16 18 0 -2
BITMAP
0000
0800
08FC
0884
7E84
0884
0884
1884
2C84
4A84
0884
0884
0884
0884
0885
0905
0A07
0000
ENDCHAR

STARTCHAR cns2_2255
ENCODING 8789
SWIDTH 854 0
DWIDTH 16 0
BBX 16 18 0 -2
BITMAP
0000
0080
0080
7FFF
0080
0080
1FFC
1084
1084
1084
11C4
12AC
0490
0888
1084
6083
0080
0000
ENDCHAR

STARTCHAR cns2_2256
ENCODING 8790
SWIDTH 854 0
DWIDTH 16 0
BBX 16 18 0 -2
BITMAP
0000
0820
0820
0820
7F20
0820
083F
0820
1C20
2A20
4920
0820
0820
0820
0821
0821
081F
0000
ENDCHAR

STARTCHAR cns2_2257
ENCODING 8791
SWIDTH 854 0
DWIDTH 16 0
BBX 16 18 0 -2
BITMAP
0000
0810
0808
0808
0848
3E44
0844
0844
1844
1C42
2A82
2882
2882
0881
0901
0900
0A00
0000
ENDCHAR

STARTCHAR cns2_2258
ENCODING 8792
SWIDTH 854 0
DWIDTH 16 0
BBX 16 18 0 -2
BITMAP
0000
0800
0FFE
1000
1FF8
2000
5FFC
0004
0004
0884
0884
0884
0884
1085
1085
2082
0082
0000
ENDCHAR

STARTCHAR cns2_2259
ENCODING 8793
SWIDTH 854 0
DWIDTH 16 0
BBX 16 18 0 -2
BITMAP
0000
0300
0100
0180
03C0
0660
0C30
181C
7080
0084
008C
3C98
04A0
0C90
1888
3084
6183
0000
ENDCHAR

STARTCHAR cns2_225A
ENCODING 8794
SWIDTH 854 0
DWIDTH 16 0
BBX 16 18 0 -2
BITMAP
0000
2010
1010
0010
07FF
4080
2080
0080
0080
0880
0880
0880
1080
1080
1080
2080
207F
0000
ENDCHAR

STARTCHAR cns2_225B
ENCODING 8795
SWIDTH 854 0
DWIDTH 16 0
BBX 16 18 0 -2
BITMAP
0000
2000
13FE
0202
0202
4202
2202
03FE
0202
1200
1200
1200
2200
2200
2201
4201
41FF
0000
ENDCHAR

STARTCHAR cns2_225C
ENCODING 8796
SWIDTH 854 0
DWIDTH 16 0
BBX 16 18 0 -2
BITMAP
0000
2040
1040
0040
0040
0040
47FF
2040
0040
10A0
10A0
1090
2110
2108
2208
4404
5803
0000
ENDCHAR

STARTCHAR cns2_225D
ENCODING 8797
SWIDTH 854 0
DWIDTH 16 0
BBX 16 18 0 -2
BITMAP
0000
2000
17FE
0102
0142
4124
2114
0084
0088
1048
1050
1020
2030
2048
2184
4602
5801
0000
ENDCHAR

STARTCHAR cns2_225E
ENCODING 8798
SWIDTH 854 0
DWIDTH 16 0
BBX 16 18 0 -2
BITMAP
0000
0100
2100
11FF
0100
0200
44FC
2004
0004
1008
1010
1020
2040
2080
2080
4101
40FF
0000
ENDCHAR

STARTCHAR cns2_225F
ENCODING 8799
SWIDTH 854 0
DWIDTH 16 0
BBX 16 18 0 -2
BITMAP
0000
1040
0840
0080
00FF
2101
1201
0001
0001
0881
0841
0821
1001
1001
1001
2001
200F
0000
ENDCHAR

STARTCHAR cns2_2260
ENCODING 8800
SWIDTH 854 0
DWIDTH 16 0
BBX 16 18 0 -2
BITMAP
0000
2000
1101
0111
0111
4111
2111
0111
0111
1111
1111
1111
2111
2111
2201
4201
4401
0000
ENDCHAR

STARTCHAR cns2_2261
ENCODING 8801
SWIDTH 854 0
DWIDTH 16 0
BBX 16 18 0 -2
BITMAP
0000
0802
08FE
0812
0912
4912
2A12
2812
2812
0812
0812
0812
1422
1222
2042
2082
400C
0000
ENDCHAR

STARTCHAR cns2_2262
ENCODING 8802
SWIDTH 854 0
DWIDTH 16 0
BBX 16 18 0 -2
BITMAP
0000
0810
2810
2810
2810
3EFE
4812
4812
0812
0A12
1C12
6812
0822
0822
0842
0882
080C
0000
ENDCHAR

STARTCHAR cns2_2263
ENCODING 8803
SWIDTH 854 0
DWIDTH 16 0
BBX 16 18 0 -2
BITMAP
0000
4400
28FE
1010
2810
4810
0410
05FF
0410
0C10
1410
2410
4410
0410
0810
1010
6010
0000
ENDCHAR

STARTCHAR cns2_2264
ENCODING 8804
SWIDTH 854 0
DWIDTH 16 0
BBX 16 18 0 -2
BITMAP
0000
4440
2840
1080
28FF
4900
0600
04FC
0408
0C10
1420
2440
4480
0501
0901
10FE
6000
0000
ENDCHAR

STARTCHAR cns2_2265
ENCODING 8805
SWIDTH 854 0
DWIDTH 16 0
BBX 16 18 0 -2
BITMAP
0000
0000
7EFF
0808
0808
0808
0808
0808
7E08
0808
0808
0808
0808
0E08
7008
0008
0038
0000
ENDCHAR

STARTCHAR cns2_2266
ENCODING 8806
SWIDTH 854 0
DWIDTH 16 0
BBX 16 18 0 -2
BITMAP
0000
0200
0200
0400
0FFE
0842
0842
0842
0FFE
0842
0842
0842
0FFE
0842
1042
1042
200E
0000
ENDCHAR

STARTCHAR cns2_2267
ENCODING 8807
SWIDTH 854 0
DWIDTH 16 0
BBX 16 18 0 -2
BITMAP
0000
0800
0820
1020
3F20
2120
2120
2120
2120
3F20
2120
2120
2120
2121
3F21
2121
001F
0000
ENDCHAR

STARTCHAR cns2_2268
ENCODING 8808
SWIDTH 854 0
DWIDTH 16 0
BBX 16 18 0 -2
BITMAP
0000
0080
0080
7FFF
4221
4221
0C22
303E
0000
1FF8
0010
0060
0180
0600
1800
2001
1FFF
0000
ENDCHAR

STARTCHAR cns2_2269
ENCODING 8809
SWIDTH 854 0
DWIDTH 16 0
BBX 16 18 0 -2
BITMAP
0000
0000
3FFF
2001
2105
2105
2925
2515
2209
2209
2515
2515
2495
2825
2821
2041
2007
0000
ENDCHAR

STARTCHAR cns2_226A
ENCODING 8810
SWIDTH 854 0
DWIDTH 16 0
BBX 16 18 0 -2
BITMAP
0000
0808
0808
0808
4949
4949
4949
4949
4949
4949
7F7F
4949
0808
1008
1008
2008
4008
0000
ENDCHAR

STARTCHAR cns2_226B
ENCODING 8811
SWIDTH 854 0
DWIDTH 16 0
BBX 16 18 0 -2
BITMAP
0000
0808
0808
7F7F
0808
0808
0000
7FFE
0080
0080
0080
0080
0080
0080
0080
0080
0300
0000
ENDCHAR

STARTCHAR cns2_226C
ENCODING 8812
SWIDTH 854 0
DWIDTH 16 0
BBX 16 18 0 -2
BITMAP
0000
0808
0808
7F7F
0808
0808
0000
7FFC
0104
0104
0104
0104
0204
0204
0404
0804
3018
0000
ENDCHAR

STARTCHAR cns2_226D
ENCODING 8813
SWIDTH 854 0
DWIDTH 16 0
BBX 16 18 0 -2
BITMAP
0000
0810
0810
7FFF
0810
0810
0200
0200
3FF0
0210
0210
0210
0210
0410
0811
1011
601F
0000
ENDCHAR

STARTCHAR cns2_226E
ENCODING 8814
SWIDTH 854 0
DWIDTH 16 0
BBX 16 18 0 -2
BITMAP
0000
0810
0810
7F7F
0810
1FF8
0408
0410
0420
045F
0441
0401
0801
0801
1002
2024
4018
0000
ENDCHAR

STARTCHAR cns2_226F
ENCODING 8815
SWIDTH 854 0
DWIDTH 16 0
BBX 16 18 0 -2
BITMAP
0000
0080
0080
00FE
0080
0080
1FFF
1001
1082
1080
10FE
1780
1080
1080
2080
207C
4000
0000
ENDCHAR

STARTCHAR cns2_2270
ENCODING 8816
SWIDTH 854 0
DWIDTH 16 0
BBX 16 18 0 -2
BITMAP
0000
0000
7FFF
0220
0220
0220
3FFE
2222
2222
2222
2222
2222
23E2
2222
2002
2002
2002
0000
ENDCHAR

STARTCHAR cns2_2271
ENCODING 8817
SWIDTH 854 0
DWIDTH 16 0
BBX 16 18 0 -2
BITMAP
0000
0400
041F
0411
0411
7FD1
2012
2014
2012
2011
2011
2011
2011
2016
1F90
0010
0010
0000
ENDCHAR

STARTCHAR cns2_2272
ENCODING 8818
SWIDTH 854 0
DWIDTH 16 0
BBX 16 18 0 -2
BITMAP
0000
0000
3F9F
0411
0411
0411
0412
0414
7FD2
0411
0411
0411
0411
0416
0410
0410
0410
0000
ENDCHAR

STARTCHAR cns2_2273
ENCODING 8819
SWIDTH 854 0
DWIDTH 16 0
BBX 16 18 0 -2
BITMAP
0000
0000
001F
3F91
0411
0411
0412
0414
7FD2
0411
0411
0411
0411
0416
0410
0410
1C10
0000
ENDCHAR

STARTCHAR cns2_2274
ENCODING 8820
SWIDTH 854 0
DWIDTH 16 0
BBX 16 18 0 -2
BITMAP
0000
0000
001F
0011
3F91
0411
0412
0414
0412
0411
0411
0411
0411
07D6
7C10
0010
0010
0000
ENDCHAR

STARTCHAR cns2_2275
ENCODING 8821
SWIDTH 854 0
DWIDTH 16 0
BBX 16 18 0 -2
BITMAP
0000
003E
7F22
0122
0124
0124
0128
3F24
2122
2022
2021
2021
2121
2121
20AE
3F20
0020
0000
ENDCHAR

STARTCHAR cns2_2276
ENCODING 8822
SWIDTH 854 0
DWIDTH 16 0
BBX 16 18 0 -2
BITMAP
0000
0000
7DFF
4448
4848
4848
5048
5048
4848
4448
4448
444A
444A
588A
4089
4109
420E
0000
ENDCHAR

STARTCHAR cns2_2277
ENCODING 8823
SWIDTH 854 0
DWIDTH 16 0
BBX 16 18 0 -2
BITMAP
0000
0010
3E10
2210
2290
2496
249A
28F2
2592
2492
2292
2292
2496
3890
2091
2081
20FF
0000
ENDCHAR

STARTCHAR cns2_2278
ENCODING 8824
SWIDTH 854 0
DWIDTH 16 0
BBX 16 18 0 -2
BITMAP
0000
7C00
45F0
4490
4890
5090
4890
4890
49D0
4890
4890
4890
7090
4092
4092
4091
409E
0000
ENDCHAR

STARTCHAR cns2_2279
ENCODING 8825
SWIDTH 854 0
DWIDTH 16 0
BBX 16 18 0 -2
BITMAP
0000
7C80
4480
44FF
4900
5200
5400
51FE
5002
4804
4408
4430
4442
5482
4D02
41FE
4000
0000
ENDCHAR

STARTCHAR cns2_227A
ENCODING 8826
SWIDTH 854 0
DWIDTH 16 0
BBX 16 18 0 -2
BITMAP
0000
0800
0840
0820
1010
1002
2042
3044
5244
5248
1248
1252
1461
14C1
1145
1644
187C
0000
ENDCHAR

STARTCHAR cns2_227B
ENCODING 8827
SWIDTH 854 0
DWIDTH 16 0
BBX 16 18 0 -2
BITMAP
0000
0000
0BFE
0820
1222
1124
21AC
30A8
5020
5020
17FF
1020
1020
1020
1020
1020
1020
0000
ENDCHAR

STARTCHAR cns2_227C
ENCODING 8828
SWIDTH 854 0
DWIDTH 16 0
BBX 16 18 0 -2
BITMAP
0000
0BFF
0A00
0A00
1200
1200
23FE
3202
5202
5202
13FE
1200
1200
1200
1200
13FF
1200
0000
ENDCHAR

STARTCHAR cns2_227D
ENCODING 8829
SWIDTH 854 0
DWIDTH 16 0
BBX 16 18 0 -2
BITMAP
0000
0820
0820
0820
13FE
1020
2020
3020
5020
57FF
1040
1040
1088
1084
113E
17C1
1001
0000
ENDCHAR

STARTCHAR cns2_227E
ENCODING 8830
SWIDTH 854 0
DWIDTH 16 0
BBX 16 18 0 -2
BITMAP
0000
0420
0820
0820
1020
17FF
3020
3060
5070
10A8
1124
1222
1421
11FC
1020
1020
1020
0000
ENDCHAR

STARTCHAR cns2_2321
ENCODING 8993
SWIDTH 854 0
DWIDTH 16 0
BBX 16 18 0 -2
BITMAP
0000
0800
0BFF
0880
1080
1080
20FC
3084
5084
50A4
1114
1114
1104
1104
113C
11C5
1607
0000
ENDCHAR

STARTCHAR cns2_2322
ENCODING 8994
SWIDTH 854 0
DWIDTH 16 0
BBX 16 18 0 -2
BITMAP
0000
0000
0400
0BFF
0810
1010
2020
3040
5060
10A8
1128
1224
1422
1020
1020
17FF
1000
0000
ENDCHAR

STARTCHAR cns2_2323
ENCODING 8995
SWIDTH 854 0
DWIDTH 16 0
BBX 16 18 0 -2
BITMAP
0000
0840
0840
0840
107C
1040
2040
37FF
5040
5040
1060
1050
1048
1044
1040
1040
1040
0000
ENDCHAR

STARTCHAR cns2_2324
ENCODING 8996
SWIDTH 854 0
DWIDTH 16 0
BBX 16 18 0 -2
BITMAP
0000
0820
0820
0820
13FE
1222
2222
3222
5222
57FF
1040
1040
10A0
1090
1108
1204
1C03
0000
ENDCHAR

STARTCHAR cns2_2325
ENCODING 8997
SWIDTH 854 0
DWIDTH 16 0
BBX 16 18 0 -2
BITMAP
0000
0840
0840
08FE
1082
1144
2228
3410
5010
5028
1044
1083
1720
1018
1000
1060
101C
0000
ENDCHAR

STARTCHAR cns2_2326
ENCODING 8998
SWIDTH 854 0
DWIDTH 16 0
BBX 16 18 0 -2
BITMAP
0000
0820
0840
0840
1084
1082
211E
37E1
5001
5000
13FE
1202
1202
1202
1202
13FE
1202
0000
ENDCHAR

STARTCHAR cns2_2327
ENCODING 8999
SWIDTH 854 0
DWIDTH 16 0
BBX 16 18 0 -2
BITMAP
0000
0180
0240
0420
0810
1008
2004
47F3
0000
0000
0000
1FFC
0080
0490
0888
1084
6183
0000
ENDCHAR

STARTCHAR cns2_2328
ENCODING 9000
SWIDTH 854 0
DWIDTH 16 0
BBX 16 18 0 -2
BITMAP
0000
0820
0810
0810
13FF
1010
2020
3042
5184
5068
1010
1020
1048
1084
111E
13E2
1100
0000
ENDCHAR

STARTCHAR cns2_2329
ENCODING 9001
SWIDTH 854 0
DWIDTH 16 0
BBX 16 18 0 -2
BITMAP
0000
0A24
0A24
0A24
1224
1224
2FFF
3224
5224
5224
1224
123C
1224
1200
1200
13FE
1200
0000
ENDCHAR

STARTCHAR cns2_232A
ENCODING 9002
SWIDTH 854 0
DWIDTH 16 0
BBX 16 18 0 -2
BITMAP
0000
0800
0BFC
0A04
1204
1204
2204
3204
5204
5204
13FC
1204
1090
1108
1204
1402
1801
0000
ENDCHAR

STARTCHAR cns2_232B
ENCODING 9003
SWIDTH 854 0
DWIDTH 16 0
BBX 16 18 0 -2
BITMAP
0000
0420
0460
0850
08D0
1088
2188
3104
5302
1201
1420
1020
1222
1222
1222
13FE
1202
0000
ENDCHAR

STARTCHAR cns2_232C
ENCODING 9004
SWIDTH 854 0
DWIDTH 16 0
BBX 16 18 0 -2
BITMAP
0000
0000
3FFE
2242
2242
2242
244A
247A
2802
27F2
2412
2412
2412
27F2
2412
2002
2006
0000
ENDCHAR

STARTCHAR cns2_232D
ENCODING 9005
SWIDTH 854 0
DWIDTH 16 0
BBX 16 18 0 -2
BITMAP
0000
00A0
4090
2088
1080
07FF
0C82
1084
1188
1150
2230
2220
2450
2848
2884
1902
1201
0000
ENDCHAR

STARTCHAR cns2_232E
ENCODING 9006
SWIDTH 854 0
DWIDTH 16 0
BBX 16 18 0 -2
BITMAP
0000
1201
1201
3FC9
1249
1249
7FC9
5249
5209
7FC9
5249
1249
1249
2281
2201
4201
4203
0000
ENDCHAR

STARTCHAR cns2_232F
ENCODING 9007
SWIDTH 854 0
DWIDTH 16 0
BBX 16 18 0 -2
BITMAP
0000
0002
1F02
1112
1112
1112
1F12
1112
1112
1112
1F12
1112
1112
1102
1382
7C02
000E
0000
ENDCHAR

STARTCHAR cns2_2330
ENCODING 9008
SWIDTH 854 0
DWIDTH 16 0
BBX 16 18 0 -2
BITMAP
0000
0001
3FC1
2049
2049
3FC9
2249
2209
2209
3FE9
2209
2209
2109
2101
2081
2CA1
7063
0000
ENDCHAR

STARTCHAR cns2_2331
ENCODING 9009
SWIDTH 854 0
DWIDTH 16 0
BBX 16 18 0 -2
BITMAP
0000
0010
0010
7F90
0890
08FF
1091
1091
6311
0011
7F21
4121
4121
4141
7F41
4081
0306
0000
ENDCHAR

STARTCHAR cns2_2332
ENCODING 9010
SWIDTH 854 0
DWIDTH 16 0
BBX 16 18 0 -2
BITMAP
0000
0410
2410
2410
3F90
247F
4411
4411
0411
7FD1
0A11
0911
1111
1091
2091
40A9
00C6
0000
ENDCHAR

STARTCHAR cns2_2333
ENCODING 9011
SWIDTH 854 0
DWIDTH 16 0
BBX 16 18 0 -2
BITMAP
0000
0800
0800
1FFF
1001
1001
27F1
2081
4491
02A1
0081
1FFD
0081
0081
0081
0091
008F
0000
ENDCHAR

STARTCHAR cns2_2334
ENCODING 9012
SWIDTH 854 0
DWIDTH 16 0
BBX 16 18 0 -2
BITMAP
0000
0080
0080
00FF
0080
0080
1FFF
1001
1001
1FC1
1041
1041
1FC1
1001
1001
1FFF
1001
0000
ENDCHAR

STARTCHAR cns2_2335
ENCODING 9013
SWIDTH 854 0
DWIDTH 16 0
BBX 16 18 0 -2
BITMAP
0000
0000
7FBF
08A1
08A1
08A1
10A1
10A1
2321
4021
3FA1
20A1
20A1
20A6
20A0
3FA0
20A0
0000
ENDCHAR

STARTCHAR cns2_2336
ENCODING 9014
SWIDTH 854 0
DWIDTH 16 0
BBX 16 18 0 -2
BITMAP
0000
0000
3FFF
2000
201C
27E0
2420
2420
27FE
2420
2420
2410
24D1
2709
2C07
4000
47FC
0000
ENDCHAR

STARTCHAR cns2_2337
ENCODING 9015
SWIDTH 854 0
DWIDTH 16 0
BBX 16 18 0 -2
BITMAP
0000
0000
3FFF
2200
2200
2400
27FE
2440
2840
307E
2040
2040
2040
207E
2040
4040
4040
0000
ENDCHAR

STARTCHAR cns2_2338
ENCODING 9016
SWIDTH 854 0
DWIDTH 16 0
BBX 16 18 0 -2
BITMAP
0000
0020
0020
7C20
4420
45FF
4420
4420
4448
4448
4450
7C90
4494
0122
0122
027D
0400
0000
ENDCHAR

STARTCHAR cns2_2339
ENCODING 9017
SWIDTH 854 0
DWIDTH 16 0
BBX 16 18 0 -2
BITMAP
0000
0020
0020
7820
49FE
4822
4822
4822
4822
4BFF
7820
4820
4050
0050
0088
0104
0603
0000
ENDCHAR

STARTCHAR cns2_233A
ENCODING 9018
SWIDTH 854 0
DWIDTH 16 0
BBX 16 18 0 -2
BITMAP
0000
0050
0090
0090
7912
4912
4B14
4B18
4D10
4930
4950
7910
4910
4110
0110
0111
011F
0000
ENDCHAR

STARTCHAR cns2_233B
ENCODING 9019
SWIDTH 854 0
DWIDTH 16 0
BBX 16 18 0 -2
BITMAP
0000
0020
0020
7820
4820
4820
4BFF
4820
4820
4850
7850
4848
4088
0084
0124
0212
0C01
0000
ENDCHAR

STARTCHAR cns2_233C
ENCODING 9020
SWIDTH 854 0
DWIDTH 16 0
BBX 16 18 0 -2
BITMAP
0000
0020
4810
7810
4BFF
4882
4882
4882
4844
4844
4828
7810
4830
0048
0084
0302
0C01
0000
ENDCHAR

STARTCHAR cns2_233D
ENCODING 9021
SWIDTH 854 0
DWIDTH 16 0
BBX 16 18 0 -2
BITMAP
0000
0020
0020
7C20
4420
4622
4524
44A8
4470
4420
4420
4450
4450
7C88
0084
0102
0201
0000
ENDCHAR

STARTCHAR cns2_233E
ENCODING 9022
SWIDTH 854 0
DWIDTH 16 0
BBX 16 18 0 -2
BITMAP
0000
0000
03FE
7844
4844
4844
4844
4844
4BFF
4888
7888
4888
4088
0088
0088
07FF
0000
0000
ENDCHAR

STARTCHAR cns2_233F
ENCODING 9023
SWIDTH 854 0
DWIDTH 16 0
BBX 16 18 0 -2
BITMAP
0000
0000
03FF
7810
4810
4820
4820
4860
4868
48A4
7922
4A21
4421
0020
0020
0020
0020
0000
ENDCHAR

STARTCHAR cns2_2340
ENCODING 9024
SWIDTH 854 0
DWIDTH 16 0
BBX 16 18 0 -2
BITMAP
0000
0040
0040
7880
48FE
4910
4910
4A10
4810
4BFF
7810
4810
4010
0010
0010
0010
0010
0000
ENDCHAR

STARTCHAR cns2_2341
ENCODING 9025
SWIDTH 854 0
DWIDTH 16 0
BBX 16 18 0 -2
BITMAP
0000
0020
0020
7920
4920
49FE
4A20
4A20
4C20
4820
7BFF
4820
4020
0020
0020
0020
0020
0000
ENDCHAR

STARTCHAR cns2_2342
ENCODING 9026
SWIDTH 854 0
DWIDTH 16 0
BBX 16 18 0 -2
BITMAP
0000
0048
0088
7D88
4688
4488
4488
4488
47FF
4488
4488
4488
4488
7C88
0088
0108
0208
0000
ENDCHAR

STARTCHAR cns2_2343
ENCODING 9027
SWIDTH 854 0
DWIDTH 16 0
BBX 16 18 0 -2
BITMAP
0000
0020
0040
7C80
45FE
4602
4402
4402
447A
4402
4402
4402
44FA
7C02
0002
0022
001C
0000
ENDCHAR

STARTCHAR cns2_2344
ENCODING 9028
SWIDTH 854 0
DWIDTH 16 0
BBX 16 18 0 -2
BITMAP
0000
0020
002E
7BF0
4820
4820
4924
4924
4924
4924
4924
49FC
4924
7820
4021
0021
003F
0000
ENDCHAR

STARTCHAR cns2_2345
ENCODING 9029
SWIDTH 854 0
DWIDTH 16 0
BBX 16 18 0 -2
BITMAP
0000
0020
0020
7C30
4448
4484
4502
4649
4448
4448
4448
4448
4448
7C48
0048
0088
0108
0000
ENDCHAR

STARTCHAR cns2_2346
ENCODING 9030
SWIDTH 854 0
DWIDTH 16 0
BBX 16 18 0 -2
BITMAP
0000
0080
0084
7E88
0290
04A0
0890
1088
2284
4182
0FF8
0808
0808
0808
0808
0FF8
0000
0000
ENDCHAR

STARTCHAR cns2_2347
ENCODING 9031
SWIDTH 854 0
DWIDTH 16 0
BBX 16 18 0 -2
BITMAP
0000
0000
3FFE
2002
2242
2242
2442
265A
2A62
3242
2242
2242
224A
227A
2002
3FFE
2002
0000
ENDCHAR

STARTCHAR cns2_2348
ENCODING 9032
SWIDTH 854 0
DWIDTH 16 0
BBX 16 18 0 -2
BITMAP
0000
0000
3FFF
2121
2121
2121
2121
223D
2C01
2001
23F1
2211
2211
2211
2211
3FFF
2001
0000
ENDCHAR

STARTCHAR cns2_2349
ENCODING 9033
SWIDTH 854 0
DWIDTH 16 0
BBX 16 18 0 -2
BITMAP
0000
0000
1FFF
1081
1041
17FD
1001
1001
11E1
1121
1121
1221
1225
143D
1001
1001
1FFF
0000
ENDCHAR

STARTCHAR cns2_234A
ENCODING 9034
SWIDTH 854 0
DWIDTH 16 0
BBX 16 18 0 -2
BITMAP
0000
100E
11F0
1110
1110
1110
7D10
11FE
1110
1110
1110
1108
1D08
6108
0135
01C5
0603
0000
ENDCHAR

STARTCHAR cns2_234B
ENCODING 9035
SWIDTH 854 0
DWIDTH 16 0
BBX 16 18 0 -2
BITMAP
0000
1020
1020
1050
1048
7C84
1102
12FD
1000
1000
11FC
1004
1404
1804
6008
0010
0060
0000
ENDCHAR

STARTCHAR cns2_234C
ENCODING 9036
SWIDTH 854 0
DWIDTH 16 0
BBX 16 18 0 -2
BITMAP
0000
00E0
0220
0C18
1004
6FFB
0208
0208
0408
0808
10B0
0080
1FFC
0080
0080
0080
7FFF
0000
ENDCHAR

STARTCHAR cns2_234D
ENCODING 9037
SWIDTH 854 0
DWIDTH 16 0
BBX 16 18 0 -2
BITMAP
0000
0020
1020
13FE
1020
7D24
1124
1124
1124
1124
1124
11FC
1020
7C20
0022
0022
003E
0000
ENDCHAR

STARTCHAR cns2_234E
ENCODING 9038
SWIDTH 854 0
DWIDTH 16 0
BBX 16 18 0 -2
BITMAP
0000
1000
1038
1008
1088
7C84
1104
1202
15FD
1044
1044
1044
1C84
6084
0108
0208
0430
0000
ENDCHAR

STARTCHAR cns2_234F
ENCODING 9039
SWIDTH 854 0
DWIDTH 16 0
BBX 16 18 0 -2
BITMAP
0000
1040
1040
1042
1F4C
1070
1040
1040
1341
1C7F
7080
0080
1FFC
0080
0080
0080
7FFF
0000
ENDCHAR

STARTCHAR cns2_2350
ENCODING 9040
SWIDTH 854 0
DWIDTH 16 0
BBX 16 18 0 -2
BITMAP
0000
0400
0400
07F8
0C20
1240
2180
0360
0C18
7087
0FF8
0080
1FFC
0080
3FFE
0080
0080
0000
ENDCHAR

STARTCHAR cns2_2351
ENCODING 9041
SWIDTH 854 0
DWIDTH 16 0
BBX 16 18 0 -2
BITMAP
0000
0000
7FFF
0040
0180
0298
0C84
1082
6082
0000
0080
0080
7FFF
0140
0220
0C18
7007
0000
ENDCHAR

STARTCHAR cns2_2352
ENCODING 9042
SWIDTH 854 0
DWIDTH 16 0
BBX 16 18 0 -2
BITMAP
0000
1010
1010
101E
11F0
7C10
2410
2410
44FE
4410
2810
1810
0BFF
1410
1210
2010
4010
0000
ENDCHAR

STARTCHAR cns2_2353
ENCODING 9043
SWIDTH 854 0
DWIDTH 16 0
BBX 16 18 0 -2
BITMAP
0000
1000
1000
107E
1000
7C00
2400
2400
45FF
4410
2810
1820
0828
1444
129E
21E1
4001
0000
ENDCHAR

STARTCHAR cns2_2354
ENCODING 9044
SWIDTH 854 0
DWIDTH 16 0
BBX 16 18 0 -2
BITMAP
0000
1000
10F0
1010
1010
7DFF
2511
2511
2529
4529
4545
3583
0901
1501
1501
2101
4103
0000
ENDCHAR

STARTCHAR cns2_2355
ENCODING 9045
SWIDTH 854 0
DWIDTH 16 0
BBX 16 18 0 -2
BITMAP
0000
1010
1028
1044
1082
7D01
247C
2400
2400
44FE
4402
3402
0802
1402
1204
2008
4070
0000
ENDCHAR

STARTCHAR cns2_2356
ENCODING 9046
SWIDTH 854 0
DWIDTH 16 0
BBX 16 18 0 -2
BITMAP
0000
1010
1028
1028
1044
7C44
2482
2486
2545
4544
4444
3444
0844
1444
1284
2084
4104
0000
ENDCHAR

STARTCHAR cns2_2357
ENCODING 9047
SWIDTH 854 0
DWIDTH 16 0
BBX 16 18 0 -2
BITMAP
0000
1048
1048
1044
1084
7C86
2503
2400
25FE
4422
4422
3442
0842
1442
1284
2084
410C
0000
ENDCHAR

STARTCHAR cns2_2358
ENCODING 9048
SWIDTH 854 0
DWIDTH 16 0
BBX 16 18 0 -2
BITMAP
0000
1000
1038
1048
1048
7C84
2484
2512
2511
2410
2420
6820
1828
0844
149E
21E2
4002
0000
ENDCHAR

STARTCHAR cns2_2359
ENCODING 9049
SWIDTH 854 0
DWIDTH 16 0
BBX 16 18 0 -2
BITMAP
0000
1010
1010
1010
11FF
7C02
2442
2442
4444
4424
2828
1810
0810
1428
1244
2082
4101
0000
ENDCHAR

STARTCHAR cns2_235A
ENCODING 9050
SWIDTH 854 0
DWIDTH 16 0
BBX 16 18 0 -2
BITMAP
0000
1000
10FE
1000
1000
7C00
25FF
2408
2448
4448
4448
3448
0848
1488
1489
2109
460F
0000
ENDCHAR

STARTCHAR cns2_235B
ENCODING 9051
SWIDTH 854 0
DWIDTH 16 0
BBX 16 18 0 -2
BITMAP
0000
0806
08F8
0880
1080
7E80
12FF
1284
2284
2484
2484
5484
1484
0884
1504
2104
4204
0000
ENDCHAR

STARTCHAR cns2_235C
ENCODING 9052
SWIDTH 854 0
DWIDTH 16 0
BBX 16 18 0 -2
BITMAP
0000
0100
0080
3FFF
2001
4002
0038
03C0
1C80
0080
0080
7FFF
0140
0220
0410
180C
6003
0000
ENDCHAR

STARTCHAR cns2_235D
ENCODING 9053
SWIDTH 854 0
DWIDTH 16 0
BBX 16 18 0 -2
BITMAP
0000
0080
0040
3FFF
2001
4002
0038
03C0
3D00
01F8
3F00
0100
01FF
7F00
0102
0102
01FE
0000
ENDCHAR

STARTCHAR cns2_235E
ENCODING 9054
SWIDTH 854 0
DWIDTH 16 0
BBX 16 18 0 -2
BITMAP
0000
0A00
0900
0804
7F88
0810
0862
0804
0C08
1431
1402
1404
1418
1460
2401
21FF
4000
0000
ENDCHAR

STARTCHAR cns2_235F
ENCODING 9055
SWIDTH 854 0
DWIDTH 16 0
BBX 16 18 0 -2
BITMAP
0000
0800
0800
08FE
0810
7E10
0810
08FE
0810
0C10
1410
15FF
1400
2400
2402
2401
43FE
0000
ENDCHAR

STARTCHAR cns2_2360
ENCODING 9056
SWIDTH 854 0
DWIDTH 16 0
BBX 16 18 0 -2
BITMAP
0000
0800
087F
0822
2A22
2A22
2A22
2A22
2AFF
2A22
2A22
2A22
3E22
2222
0042
0042
0082
0000
ENDCHAR

STARTCHAR cns2_2361
ENCODING 9057
SWIDTH 854 0
DWIDTH 16 0
BBX 16 18 0 -2
BITMAP
0000
1000
10FE
1000
5400
5400
5400
55FF
5448
5448
5448
5448
5449
7C89
4489
0109
060F
0000
ENDCHAR

STARTCHAR cns2_2362
ENCODING 9058
SWIDTH 854 0
DWIDTH 16 0
BBX 16 18 0 -2
BITMAP
0000
107E
1044
1044
5444
5444
5484
54FF
540C
5414
5414
5424
5424
7C44
4584
4014
0008
0000
ENDCHAR

STARTCHAR cns2_2363
ENCODING 9059
SWIDTH 854 0
DWIDTH 16 0
BBX 16 18 0 -2
BITMAP
0000
13FC
1084
1084
5484
5488
5488
54FE
54C2
54C2
54A4
54A4
5498
7D18
4124
4242
0581
0000
ENDCHAR

STARTCHAR cns2_2364
ENCODING 9060
SWIDTH 854 0
DWIDTH 16 0
BBX 16 18 0 -2
BITMAP
0000
1040
1040
1040
547F
5495
5515
5415
5415
5415
5425
5429
5429
7C49
4C91
0021
0006
0000
ENDCHAR

STARTCHAR cns2_2365
ENCODING 9061
SWIDTH 854 0
DWIDTH 16 0
BBX 16 18 0 -2
BITMAP
0000
1030
1050
1048
5484
5502
5601
54F8
5400
5400
55FE
5402
5404
7C04
4408
4008
0010
0000
ENDCHAR

STARTCHAR cns2_2366
ENCODING 9062
SWIDTH 854 0
DWIDTH 16 0
BBX 16 18 0 -2
BITMAP
0000
1FFC
1084
1084
1084
1FFC
1000
1001
1001
1FFF
0000
0040
1041
1041
1041
1FFF
1001
0000
ENDCHAR

STARTCHAR cns2_2367
ENCODING 9063
SWIDTH 854 0
DWIDTH 16 0
BBX 16 18 0 -2
BITMAP
0000
0806
0808
08F0
0810
0810
0810
49FF
4910
4910
4910
4910
4910
7F28
0044
0082
0101
0000
ENDCHAR

STARTCHAR cns2_2368
ENCODING 9064
SWIDTH 854 0
DWIDTH 16 0
BBX 16 18 0 -2
BITMAP
0000
100E
10F0
1080
5480
5480
5480
54FF
5488
5488
5488
5488
5508
7D08
4508
4208
0008
0000
ENDCHAR

STARTCHAR cns2_2369
ENCODING 9065
SWIDTH 854 0
DWIDTH 16 0
BBX 16 18 0 -2
BITMAP
0000
0080
2082
2082
2082
3FFE
0180
0240
0420
0810
1428
2424
4422
0420
0820
1020
6020
0000
ENDCHAR

STARTCHAR cns2_236A
ENCODING 9066
SWIDTH 854 0
DWIDTH 16 0
BBX 16 18 0 -2
BITMAP
0000
3FFE
0000
0888
0888
1110
0888
0444
0444
0000
1FFC
0080
0080
0080
0080
7FFF
0000
0000
ENDCHAR

STARTCHAR cns2_236B
ENCODING 9067
SWIDTH 854 0
DWIDTH 16 0
BBX 16 18 0 -2
BITMAP
0000
1000
10FE
1092
7C92
5492
5492
5492
54FE
5480
5480
5480
5481
1081
1081
1081
10FF
0000
ENDCHAR

STARTCHAR cns2_236C
ENCODING 9068
SWIDTH 854 0
DWIDTH 16 0
BBX 16 18 0 -2
BITMAP
0000
1010
1010
1010
11FF
7D11
5512
5410
5410
5410
5410
5430
5450
5C90
1111
1211
141F
0000
ENDCHAR

STARTCHAR cns2_236D
ENCODING 9069
SWIDTH 854 0
DWIDTH 16 0
BBX 16 18 0 -2
BITMAP
0000
0080
3FFF
2000
2040
2040
2FFE
2040
2040
27FC
2004
2208
2110
20A0
2060
4198
5E07
0000
ENDCHAR

STARTCHAR cns2_236E
ENCODING 9070
SWIDTH 854 0
DWIDTH 16 0
BBX 16 18 0 -2
BITMAP
0000
0100
0080
3FFF
2040
2040
2044
2FFE
2040
2444
2444
2444
27FC
4444
4040
4041
003F
0000
ENDCHAR

STARTCHAR cns2_236F
ENCODING 9071
SWIDTH 854 0
DWIDTH 16 0
BBX 16 18 0 -2
BITMAP
0000
0100
0080
3FFF
2000
2000
27FE
2210
2210
2410
27FF
2030
2050
2090
4110
4210
4C30
0000
ENDCHAR

STARTCHAR cns2_2370
ENCODING 9072
SWIDTH 854 0
DWIDTH 16 0
BBX 16 18 0 -2
BITMAP
0000
0080
1FFF
1000
1020
1050
1088
1104
16FB
1000
1000
13FE
2002
2004
2008
4010
4060
0000
ENDCHAR

STARTCHAR cns2_2371
ENCODING 9073
SWIDTH 854 0
DWIDTH 16 0
BBX 16 18 0 -2
BITMAP
0000
0080
0080
3FFE
2008
27F0
2400
2400
27F8
2420
2420
2420
2420
2420
4420
4820
1020
0000
ENDCHAR

STARTCHAR cns2_2372
ENCODING 9074
SWIDTH 854 0
DWIDTH 16 0
BBX 16 18 0 -2
BITMAP
0000
0230
0410
0408
0804
1FFA
6109
0108
0208
0C30
0210
0210
7FFF
0210
0410
0810
3010
0000
ENDCHAR

STARTCHAR cns2_2373
ENCODING 9075
SWIDTH 854 0
DWIDTH 16 0
BBX 16 18 0 -2
BITMAP
0000
0000
7CFE
0492
0492
0492
3C92
2092
2092
40FE
7C80
4480
0480
0480
0481
0481
387F
0000
ENDCHAR

STARTCHAR cns2_2374
ENCODING 9076
SWIDTH 854 0
DWIDTH 16 0
BBX 16 18 0 -2
BITMAP
0000
0400
0838
1008
2244
0444
0482
0901
1810
6810
0820
0820
0844
0842
088F
0BF1
0800
0000
ENDCHAR

STARTCHAR cns2_2375
ENCODING 9077
SWIDTH 854 0
DWIDTH 16 0
BBX 16 18 0 -2
BITMAP
0000
0400
09FC
1044
2244
0448
0448
087E
1842
6842
08A2
0894
0894
0888
0908
0914
0A63
0000
ENDCHAR

STARTCHAR cns2_2376
ENCODING 9078
SWIDTH 854 0
DWIDTH 16 0
BBX 16 18 0 -2
BITMAP
0000
0260
0218
0200
7FFF
0200
0100
0080
0060
0019
0507
0480
2444
2452
2411
2411
47F0
0000
ENDCHAR

STARTCHAR cns2_2377
ENCODING 9079
SWIDTH 854 0
DWIDTH 16 0
BBX 16 18 0 -2
BITMAP
0000
0000
3FFE
0080
0090
0088
0088
0080
0080
0080
0080
0504
2482
2441
2449
2408
47F8
0000
ENDCHAR

STARTCHAR cns2_2378
ENCODING 9080
SWIDTH 854 0
DWIDTH 16 0
BBX 16 18 0 -2
BITMAP
0000
0080
0080
0080
00FC
0080
0080
0080
0080
3FFF
0000
0500
2484
2442
2449
2409
47F8
0000
ENDCHAR

STARTCHAR cns2_2379
ENCODING 9081
SWIDTH 854 0
DWIDTH 16 0
BBX 16 18 0 -2
BITMAP
0000
1040
1020
1010
1010
55FF
5410
5210
5010
1018
1014
1012
1012
1010
1010
1010
1010
0000
ENDCHAR

STARTCHAR cns2_237A
ENCODING 9082
SWIDTH 854 0
DWIDTH 16 0
BBX 16 18 0 -2
BITMAP
0000
1000
10FE
1000
1000
5400
5400
51FF
5048
1048
1048
1048
1048
1088
1089
1109
160F
0000
ENDCHAR

STARTCHAR cns2_237B
ENCODING 9083
SWIDTH 854 0
DWIDTH 16 0
BBX 16 18 0 -2
BITMAP
0000
1010
1010
1010
11FF
5410
5410
5010
51FE
1002
1082
1044
1028
1010
1028
10C4
1303
0000
ENDCHAR

STARTCHAR cns2_237C
ENCODING 9084
SWIDTH 854 0
DWIDTH 16 0
BBX 16 18 0 -2
BITMAP
0000
0810
0810
08FE
0810
2C10
2A92
2892
4892
0892
0892
08FE
0892
0810
0811
0811
081F
0000
ENDCHAR

STARTCHAR cns2_237D
ENCODING 9085
SWIDTH 854 0
DWIDTH 16 0
BBX 16 18 0 -2
BITMAP
0000
1020
1020
1020
1820
57FF
5221
5221
5221
1221
1221
13FF
1020
1020
1020
1020
1020
0000
ENDCHAR

STARTCHAR cns2_237E
ENCODING 9086
SWIDTH 854 0
DWIDTH 16 0
BBX 16 18 0 -2
BITMAP
0000
1040
1040
1080
18FE
5510
5110
5210
5010
13FF
1010
1010
1010
1010
1010
1010
1010
0000
ENDCHAR

STARTCHAR cns2_2421
ENCODING 9249
SWIDTH 854 0
DWIDTH 16 0
BBX 16 18 0 -2
BITMAP
0000
1000
13FC
1044
1044
5448
5248
507E
5042
1042
10A2
1094
1094
1088
1108
1114
1263
0000
ENDCHAR

STARTCHAR cns2_2422
ENCODING 9250
SWIDTH 854 0
DWIDTH 16 0
BBX 16 18 0 -2
BITMAP
0000
1040
1040
1040
10FF
5891
5511
5112
5010
1010
1028
1028
1024
1044
1042
1082
1101
0000
ENDCHAR

STARTCHAR cns2_2423
ENCODING 9251
SWIDTH 854 0
DWIDTH 16 0
BBX 16 18 0 -2
BITMAP
0000
080C
08F0
0890
0890
2C90
2A90
48FE
4890
0888
0888
0888
0884
0884
08A2
08C2
0801
0000
ENDCHAR

STARTCHAR cns2_2424
ENCODING 9252
SWIDTH 854 0
DWIDTH 16 0
BBX 16 18 0 -2
BITMAP
0000
1101
1103
1105
1105
5589
5549
5131
5111
1129
1149
1145
1183
1101
1101
11FF
1101
0000
ENDCHAR

STARTCHAR cns2_2425
ENCODING 9253
SWIDTH 854 0
DWIDTH 16 0
BBX 16 18 0 -2
BITMAP
0000
1000
100E
11F0
1100
5500
5500
51FF
5108
1108
1108
1108
1108
1208
1208
1408
1008
0000
ENDCHAR

STARTCHAR cns2_2426
ENCODING 9254
SWIDTH 854 0
DWIDTH 16 0
BBX 16 18 0 -2
BITMAP
0000
1000
13FF
1010
1010
5420
5420
5060
5068
10A4
1122
1221
1421
1020
1020
1020
1020
0000
ENDCHAR

STARTCHAR cns2_2427
ENCODING 9255
SWIDTH 854 0
DWIDTH 16 0
BBX 16 18 0 -2
BITMAP
0000
1010
1010
1028
5048
5884
5502
5279
5000
51FE
1002
1002
1004
1004
1008
1010
1020
0000
ENDCHAR

STARTCHAR cns2_2428
ENCODING 9256
SWIDTH 854 0
DWIDTH 16 0
BBX 16 18 0 -2
BITMAP
0000
0000
073E
3822
2022
3FA2
20A2
20BE
20A0
3FA0
2020
2020
2020
2022
2021
4021
003E
0000
ENDCHAR

STARTCHAR cns2_2429
ENCODING 9257
SWIDTH 854 0
DWIDTH 16 0
BBX 16 18 0 -2
BITMAP
0000
0820
0810
0808
0800
7EFF
0810
0810
0810
0E18
1814
6812
0810
0810
0810
0810
1010
0000
ENDCHAR

STARTCHAR cns2_242A
ENCODING 9258
SWIDTH 854 0
DWIDTH 16 0
BBX 16 18 0 -2
BITMAP
0000
1010
1010
1010
7CFF
1091
1091
1091
1091
1C18
7028
1028
1028
1048
1049
1089
330F
0000
ENDCHAR

STARTCHAR cns2_242B
ENCODING 9259
SWIDTH 854 0
DWIDTH 16 0
BBX 16 18 0 -2
BITMAP
0000
1000
1000
10FC
7C00
1000
1000
1000
11FF
1C20
7020
1020
1048
1044
108E
11F2
3000
0000
ENDCHAR

STARTCHAR cns2_242C
ENCODING 9260
SWIDTH 854 0
DWIDTH 16 0
BBX 16 18 0 -2
BITMAP
0000
1000
1000
10FE
7C00
1000
1000
13FF
1048
1C48
7048
1048
1048
1088
1089
1109
160F
0000
ENDCHAR

STARTCHAR cns2_242D
ENCODING 9261
SWIDTH 854 0
DWIDTH 16 0
BBX 16 18 0 -2
BITMAP
0000
1000
13FF
1010
7C10
1020
1020
1460
1868
70A4
1122
1221
1421
1020
1020
1020
3020
0000
ENDCHAR

STARTCHAR cns2_242E
ENCODING 9262
SWIDTH 854 0
DWIDTH 16 0
BBX 16 18 0 -2
BITMAP
0000
1000
1000
11FE
7D02
1102
1102
1102
11FE
1D02
7102
1102
1102
11FE
1102
1102
1000
0000
ENDCHAR

STARTCHAR cns2_242F
ENCODING 9263
SWIDTH 854 0
DWIDTH 16 0
BBX 16 18 0 -2
BITMAP
0000
1000
13FC
1088
1088
7C90
1090
10BE
1082
1CC2
70C2
10A2
1124
1114
1208
1214
3463
0000
ENDCHAR

STARTCHAR cns2_2430
ENCODING 9264
SWIDTH 854 0
DWIDTH 16 0
BBX 16 18 0 -2
BITMAP
0000
1040
1040
1040
7CFF
1091
1111
1112
1010
1C10
7028
1028
1024
1044
1042
1082
3101
0000
ENDCHAR

STARTCHAR cns2_2431
ENCODING 9265
SWIDTH 854 0
DWIDTH 16 0
BBX 16 18 0 -2
BITMAP
0000
100C
11F0
1110
7D10
1110
1110
11FE
1110
1D10
7110
1108
1108
1105
1185
1303
3001
0000
ENDCHAR

STARTCHAR cns2_2432
ENCODING 9266
SWIDTH 854 0
DWIDTH 16 0
BBX 16 18 0 -2
BITMAP
0000
1014
1012
1011
1010
7DFF
1010
1010
1410
1810
1010
3028
5028
1048
1088
5109
320F
0000
ENDCHAR

STARTCHAR cns2_2433
ENCODING 9267
SWIDTH 854 0
DWIDTH 16 0
BBX 16 18 0 -2
BITMAP
0000
1020
1020
1040
7C40
1082
111E
13E1
1000
1C90
7090
1090
1090
1110
1110
1211
141F
0000
ENDCHAR

STARTCHAR cns2_2434
ENCODING 9268
SWIDTH 854 0
DWIDTH 16 0
BBX 16 18 0 -2
BITMAP
0000
0800
087F
0841
3E41
0841
087F
0A41
0C41
3841
087F
0841
0841
0841
0881
0881
1903
0000
ENDCHAR

STARTCHAR cns2_2435
ENCODING 9269
SWIDTH 854 0
DWIDTH 16 0
BBX 16 18 0 -2
BITMAP
0000
1002
1002
11FC
1010
7E10
1010
11FF
1410
1810
3010
5028
1048
1088
1104
5202
3401
0000
ENDCHAR

STARTCHAR cns2_2436
ENCODING 9270
SWIDTH 854 0
DWIDTH 16 0
BBX 16 18 0 -2
BITMAP
0000
1010
1010
11FF
7C10
1010
1092
1092
1092
1C92
7092
10FE
1092
1010
1010
1011
300F
0000
ENDCHAR

STARTCHAR cns2_2437
ENCODING 9271
SWIDTH 854 0
DWIDTH 16 0
BBX 16 18 0 -2
BITMAP
0000
1010
1028
1044
7C82
1101
107C
1400
1800
71FE
1002
1002
1002
1004
1004
1008
3070
0000
ENDCHAR

STARTCHAR cns2_2438
ENCODING 9272
SWIDTH 854 0
DWIDTH 16 0
BBX 16 18 0 -2
BITMAP
0000
1010
1028
1048
7C44
1084
1102
1201
1048
1C48
7048
1048
1048
1088
1088
1108
1208
0000
ENDCHAR

STARTCHAR cns2_2439
ENCODING 9273
SWIDTH 854 0
DWIDTH 16 0
BBX 16 18 0 -2
BITMAP
0000
0000
00FE
7C10
4410
4410
4410
4410
7DFF
4410
4410
4410
4410
7C10
4410
4010
0010
0000
ENDCHAR

STARTCHAR cns2_243A
ENCODING 9274
SWIDTH 854 0
DWIDTH 16 0
BBX 16 18 0 -2
BITMAP
0000
0000
01FE
7C10
4410
4410
4410
4410
7DFF
4410
4410
4410
4410
7C10
4410
0010
0070
0000
ENDCHAR

STARTCHAR cns2_243B
ENCODING 9275
SWIDTH 854 0
DWIDTH 16 0
BBX 16 18 0 -2
BITMAP
0000
0040
0040
0040
7CFF
4481
4501
4401
7C41
4421
4411
4411
4401
7C01
4401
4002
001C
0000
ENDCHAR

STARTCHAR cns2_243C
ENCODING 9276
SWIDTH 854 0
DWIDTH 16 0
BBX 16 18 0 -2
BITMAP
0000
1FFC
1004
1004
1FFC
1004
1004
1FFC
0000
0080
0080
7FFF
0080
0140
0230
0C0C
7003
0000
ENDCHAR

STARTCHAR cns2_243D
ENCODING 9277
SWIDTH 854 0
DWIDTH 16 0
BBX 16 18 0 -2
BITMAP
0000
3FFE
2002
2002
3FFE
2002
2002
3FFE
0000
0080
0080
4081
4081
4081
4081
7FFF
0000
0000
ENDCHAR

STARTCHAR cns2_243E
ENCODING 9278
SWIDTH 854 0
DWIDTH 16 0
BBX 16 18 0 -2
BITMAP
0000
0400
0400
04FF
0408
3F08
0408
0C08
0EFF
1508
1408
2408
2408
0408
0408
0408
0438
0000
ENDCHAR

STARTCHAR cns2_243F
ENCODING 9279
SWIDTH 854 0
DWIDTH 16 0
BBX 16 18 0 -2
BITMAP
0000
0800
08FE
0800
0800
7E00
09FF
1820
1C40
2A40
287E
4882
4802
0802
0802
0804
0818
0000
ENDCHAR

STARTCHAR cns2_2440
ENCODING 9280
SWIDTH 854 0
DWIDTH 16 0
BBX 16 18 0 -2
BITMAP
0000
0820
0820
0828
0824
7E20
083E
1BE0
1C20
2A20
2820
4810
4810
0809
0809
0805
0802
0000
ENDCHAR

STARTCHAR cns2_2441
ENCODING 9281
SWIDTH 854 0
DWIDTH 16 0
BBX 16 18 0 -2
BITMAP
0000
0810
0810
0810
0810
7E10
09FF
1810
1C10
2A10
2828
4828
4844
0844
0882
0901
0A00
0000
ENDCHAR

STARTCHAR cns2_2442
ENCODING 9282
SWIDTH 854 0
DWIDTH 16 0
BBX 16 18 0 -2
BITMAP
0000
1000
1000
13FF
1048
7C48
1048
1048
3048
3848
5448
5048
5048
1088
1089
1109
120F
0000
ENDCHAR

STARTCHAR cns2_2443
ENCODING 9283
SWIDTH 854 0
DWIDTH 16 0
BBX 16 18 0 -2
BITMAP
0000
1000
1000
13FE
1102
7D22
1114
1084
3088
3848
5450
5020
5020
1050
118C
1603
1000
0000
ENDCHAR

STARTCHAR cns2_2444
ENCODING 9284
SWIDTH 854 0
DWIDTH 16 0
BBX 16 18 0 -2
BITMAP
0000
1010
1010
1090
1090
7C90
1097
10F9
3391
3892
5492
5090
5080
1080
1081
1081
107F
0000
ENDCHAR

STARTCHAR cns2_2445
ENCODING 9285
SWIDTH 854 0
DWIDTH 16 0
BBX 16 18 0 -2
BITMAP
0000
0800
09FE
0802
0804
7E08
0810
1810
1C10
2BFF
2810
4810
4810
0810
0810
0810
0870
0000
ENDCHAR

STARTCHAR cns2_2446
ENCODING 9286
SWIDTH 854 0
DWIDTH 16 0
BBX 16 18 0 -2
BITMAP
0000
1040
1040
1080
10FF
7D00
1200
10FC
3008
3810
5420
5040
5080
1101
1101
10FE
1000
0000
ENDCHAR

STARTCHAR cns2_2447
ENCODING 9287
SWIDTH 854 0
DWIDTH 16 0
BBX 16 18 0 -2
BITMAP
0000
1000
10FC
1084
1084
7C84
1084
10C4
30A4
3894
5494
5094
5084
1084
1085
1105
1207
0000
ENDCHAR

STARTCHAR cns2_2448
ENCODING 9288
SWIDTH 854 0
DWIDTH 16 0
BBX 16 18 0 -2
BITMAP
0000
0080
0080
7FFF
0080
0080
3FFE
0000
1FFC
1084
1084
7FFF
1104
2104
3FFC
0018
0060
0000
ENDCHAR

STARTCHAR cns2_2449
ENCODING 9289
SWIDTH 854 0
DWIDTH 16 0
BBX 16 18 0 -2
BITMAP
0000
0800
0FFE
1000
1FF8
2000
5FF8
0008
0208
2228
2228
2228
2224
2225
2225
3FE2
2022
0000
ENDCHAR

STARTCHAR cns2_244A
ENCODING 9290
SWIDTH 854 0
DWIDTH 16 0
BBX 16 18 0 -2
BITMAP
0000
0800
0FFE
1000
1FF8
2000
5FFC
0004
0924
0924
0924
0924
0924
1125
1125
2122
0022
0000
ENDCHAR

STARTCHAR cns2_244B
ENCODING 9291
SWIDTH 854 0
DWIDTH 16 0
BBX 16 18 0 -2
BITMAP
0000
2020
1020
0010
0010
43FF
2040
0040
0040
107E
1042
1042
2082
2082
2104
4204
4038
0000
ENDCHAR

STARTCHAR cns2_244C
ENCODING 9292
SWIDTH 854 0
DWIDTH 16 0
BBX 16 18 0 -2
BITMAP
0000
2000
17FF
0084
0084
4084
2084
0084
07FF
1084
1084
1084
2084
2104
2104
4604
4004
0000
ENDCHAR

STARTCHAR cns2_244D
ENCODING 9293
SWIDTH 854 0
DWIDTH 16 0
BBX 16 18 0 -2
BITMAP
0000
2088
1088
0088
0088
43FE
2088
0088
0088
1088
17FF
1088
2108
2108
2108
4208
4408
0000
ENDCHAR

STARTCHAR cns2_244E
ENCODING 9294
SWIDTH 854 0
DWIDTH 16 0
BBX 16 18 0 -2
BITMAP
0000
2000
1000
01FE
0000
4000
2000
0000
03FF
1020
1020
1040
2048
2084
211E
43E1
4001
0000
ENDCHAR

STARTCHAR cns2_244F
ENCODING 9295
SWIDTH 854 0
DWIDTH 16 0
BBX 16 18 0 -2
BITMAP
0000
2040
1040
0048
0044
4044
23FE
0040
0040
1060
10A0
10A0
20A0
2121
2121
4221
441E
0000
ENDCHAR

STARTCHAR cns2_2450
ENCODING 9296
SWIDTH 854 0
DWIDTH 16 0
BBX 16 18 0 -2
BITMAP
0000
2100
1100
013F
0109
4169
2789
0109
0109
1109
1109
1111
2151
21D2
2022
4042
408C
0000
ENDCHAR

STARTCHAR cns2_2451
ENCODING 9297
SWIDTH 854 0
DWIDTH 16 0
BBX 16 18 0 -2
BITMAP
0000
2020
1024
0022
0022
4020
27FF
0020
0020
1040
1050
1088
2088
2104
2202
4401
4800
0000
ENDCHAR

STARTCHAR cns2_2452
ENCODING 9298
SWIDTH 854 0
DWIDTH 16 0
BBX 16 18 0 -2
BITMAP
0000
2020
1020
0020
0020
43FF
2020
0020
0048
1048
1050
1090
2094
2122
2122
427D
4001
0000
ENDCHAR

STARTCHAR cns2_2453
ENCODING 9299
SWIDTH 854 0
DWIDTH 16 0
BBX 16 18 0 -2
BITMAP
0000
6000
1102
09FF
0102
4102
3102
0902
01FE
1102
1102
1102
1102
21FE
2102
4102
4000
0000
ENDCHAR

STARTCHAR cns2_2454
ENCODING 9300
SWIDTH 854 0
DWIDTH 16 0
BBX 16 18 0 -2
BITMAP
0000
2000
1020
0020
0020
4020
2220
0220
023E
1220
1220
1220
2220
2220
2220
4220
4FFF
0000
ENDCHAR

STARTCHAR cns2_2455
ENCODING 9301
SWIDTH 854 0
DWIDTH 16 0
BBX 16 18 0 -2
BITMAP
0000
1010
0810
0010
01FF
2111
1111
0111
0111
0929
0945
0983
1101
1101
1101
2101
2103
0000
ENDCHAR

STARTCHAR cns2_2456
ENCODING 9302
SWIDTH 854 0
DWIDTH 16 0
BBX 16 18 0 -2
BITMAP
0000
2020
1040
0040
0088
4084
213E
03D1
0090
1090
1090
1090
2110
2110
2211
4411
481F
0000
ENDCHAR

STARTCHAR cns2_2457
ENCODING 9303
SWIDTH 854 0
DWIDTH 16 0
BBX 16 18 0 -2
BITMAP
0000
2080
1080
0100
01FF
4249
2249
0489
0089
1111
1111
1211
2021
2042
2082
4302
400C
0000
ENDCHAR

STARTCHAR cns2_2458
ENCODING 9304
SWIDTH 854 0
DWIDTH 16 0
BBX 16 18 0 -2
BITMAP
0000
2102
1102
0102
0102
41FE
2100
0100
0100
11FE
1102
1102
2102
2102
2202
4202
4400
0000
ENDCHAR

STARTCHAR cns2_2459
ENCODING 9305
SWIDTH 854 0
DWIDTH 16 0
BBX 16 18 0 -2
BITMAP
0000
200E
13F0
0220
0220
4220
2220
03FE
0210
1210
1210
1208
2208
2205
2245
4283
4301
0000
ENDCHAR

STARTCHAR cns2_245A
ENCODING 9306
SWIDTH 854 0
DWIDTH 16 0
BBX 16 18 0 -2
BITMAP
0000
2000
13FF
0200
4200
2200
03FE
0242
0242
1244
1224
1228
2210
2410
2428
4844
4383
0000
ENDCHAR

STARTCHAR cns2_245B
ENCODING 9307
SWIDTH 854 0
DWIDTH 16 0
BBX 16 18 0 -2
BITMAP
0000
2020
1020
0020
07FF
4020
2020
0020
07FE
1202
1104
1088
2050
2020
2050
418C
4603
0000
ENDCHAR

STARTCHAR cns2_245C
ENCODING 9308
SWIDTH 854 0
DWIDTH 16 0
BBX 16 18 0 -2
BITMAP
0000
4080
2080
1100
03FE
0420
0820
0020
4020
2020
17FF
0020
0420
0820
1020
2020
4020
0000
ENDCHAR

STARTCHAR cns2_245D
ENCODING 9309
SWIDTH 854 0
DWIDTH 16 0
BBX 16 18 0 -2
BITMAP
0000
2090
1090
0090
0110
4110
2110
011E
0310
0510
0110
0910
0910
1111
1111
210F
2100
0000
ENDCHAR

STARTCHAR cns2_245E
ENCODING 9310
SWIDTH 854 0
DWIDTH 16 0
BBX 16 18 0 -2
BITMAP
0000
1000
1000
10FE
1010
1410
5810
5010
5010
1010
1010
1010
2810
2410
21FF
4000
0000
0000
ENDCHAR

STARTCHAR cns2_245F
ENCODING 9311
SWIDTH 854 0
DWIDTH 16 0
BBX 16 18 0 -2
BITMAP
0000
1008
1008
1048
5248
5248
544F
5079
12C9
1049
104A
1048
2848
2440
2441
4041
403F
0000
ENDCHAR

STARTCHAR cns2_2460
ENCODING 9312
SWIDTH 854 0
DWIDTH 16 0
BBX 16 18 0 -2
BITMAP
0000
0400
04FF
1409
1409
1F89
1429
2419
2409
0709
3C09
0411
0411
0421
0421
0442
058C
0000
ENDCHAR

STARTCHAR cns2_2461
ENCODING 9313
SWIDTH 854 0
DWIDTH 16 0
BBX 16 18 0 -2
BITMAP
0000
4440
2820
1010
2800
49FE
0820
0820
0838
1824
2822
4822
0820
0820
1020
1020
6020
0000
ENDCHAR

STARTCHAR cns2_2462
ENCODING 9314
SWIDTH 854 0
DWIDTH 16 0
BBX 16 18 0 -2
BITMAP
0000
45FE
2848
1048
2848
4888
0888
09FF
0808
1818
2818
4828
0848
0888
0B08
1008
6030
0000
ENDCHAR

STARTCHAR cns2_2463
ENCODING 9315
SWIDTH 854 0
DWIDTH 16 0
BBX 16 18 0 -2
BITMAP
0000
4800
2800
13FC
1044
2844
4844
1844
1844
2BFF
2844
4844
0844
0844
0844
1044
67FF
0000
ENDCHAR

STARTCHAR cns2_2464
ENCODING 9316
SWIDTH 854 0
DWIDTH 16 0
BBX 16 18 0 -2
BITMAP
0000
4420
2820
1020
2922
49FE
0922
0922
0922
1922
29FE
4922
0820
0820
0820
1020
6020
0000
ENDCHAR

STARTCHAR cns2_2465
ENCODING 9317
SWIDTH 854 0
DWIDTH 16 0
BBX 16 18 0 -2
BITMAP
0000
0420
4420
2840
1040
3082
511E
0BE1
1800
1890
2890
4890
0890
0910
0910
0A11
341F
0000
ENDCHAR

STARTCHAR cns2_2466
ENCODING 9318
SWIDTH 854 0
DWIDTH 16 0
BBX 16 18 0 -2
BITMAP
0000
4410
2810
1010
29FF
4800
0400
047C
0444
0C44
1444
2444
4484
0484
0905
1105
6607
0000
ENDCHAR

STARTCHAR cns2_2467
ENCODING 9319
SWIDTH 854 0
DWIDTH 16 0
BBX 16 18 0 -2
BITMAP
0000
4400
2806
10F8
2810
4810
0410
0410
04FE
0C10
1410
2410
4410
0410
0810
11FF
6000
0000
ENDCHAR

STARTCHAR cns2_2468
ENCODING 9320
SWIDTH 854 0
DWIDTH 16 0
BBX 16 18 0 -2
BITMAP
0000
0000
7EFE
0810
0810
0810
0810
09FF
7E10
0810
0810
0810
0810
0E10
7010
0010
0010
0000
ENDCHAR

STARTCHAR cns2_2469
ENCODING 9321
SWIDTH 854 0
DWIDTH 16 0
BBX 16 18 0 -2
BITMAP
0000
0000
7EFE
0810
0810
0810
0810
09FF
7E10
0810
0810
0810
0810
0E10
7010
0010
0070
0000
ENDCHAR

STARTCHAR cns2_246A
ENCODING 9322
SWIDTH 854 0
DWIDTH 16 0
BBX 16 18 0 -2
BITMAP
0000
0020
0020
7C20
107F
1041
1081
1101
7C21
1011
1011
1001
1001
1C01
6001
0002
000C
0000
ENDCHAR

STARTCHAR cns2_246B
ENCODING 9323
SWIDTH 854 0
DWIDTH 16 0
BBX 16 18 0 -2
BITMAP
0000
0041
7E41
0849
0849
0849
0849
0849
7E49
0849
0849
0849
0849
0E49
7049
0081
0101
0000
ENDCHAR

STARTCHAR cns2_246C
ENCODING 9324
SWIDTH 854 0
DWIDTH 16 0
BBX 16 18 0 -2
BITMAP
0000
0000
0000
7CFE
1010
1010
1010
1010
7C10
1010
1010
1010
1010
1C10
61FF
0000
0000
0000
ENDCHAR

STARTCHAR cns2_246D
ENCODING 9325
SWIDTH 854 0
DWIDTH 16 0
BBX 16 18 0 -2
BITMAP
0000
0000
7F00
49FF
4908
4908
4908
7F08
4908
4908
4908
4908
4908
7F08
4108
0008
0038
0000
ENDCHAR

STARTCHAR cns2_246E
ENCODING 9326
SWIDTH 854 0
DWIDTH 16 0
BBX 16 18 0 -2
BITMAP
0000
0080
0080
1FFC
1084
1FFC
1084
1FFC
0000
7FFF
0100
0200
0FFC
0004
0004
0008
0070
0000
ENDCHAR

STARTCHAR cns2_246F
ENCODING 9327
SWIDTH 854 0
DWIDTH 16 0
BBX 16 18 0 -2
BITMAP
0000
0040
0040
1FFE
5000
5000
3000
17FF
1020
3020
5020
1020
1020
2020
2020
4020
00E0
0000
ENDCHAR

STARTCHAR cns2_2470
ENCODING 9328
SWIDTH 854 0
DWIDTH 16 0
BBX 16 18 0 -2
BITMAP
0000
0080
0040
1FFE
5000
5100
3100
1100
110C
3130
51C0
1100
1102
2101
2101
40FE
0000
0000
ENDCHAR

STARTCHAR cns2_2471
ENCODING 9329
SWIDTH 854 0
DWIDTH 16 0
BBX 16 18 0 -2
BITMAP
0000
0100
0200
1FFC
1004
1004
1FFC
1004
1004
1FFC
1084
0080
7FFF
0080
0080
0080
0080
0000
ENDCHAR

STARTCHAR cns2_2472
ENCODING 9330
SWIDTH 854 0
DWIDTH 16 0
BBX 16 18 0 -2
BITMAP
0000
0800
08FC
7E44
0244
0248
0248
044F
0849
1C41
2A81
4881
0882
0882
0902
0A02
080C
0000
ENDCHAR

STARTCHAR cns2_2473
ENCODING 9331
SWIDTH 854 0
DWIDTH 16 0
BBX 16 18 0 -2
BITMAP
0000
0000
7F20
2220
2220
2220
3E20
2220
2220
3E20
2220
2220
2221
2E21
7221
021F
0200
0000
ENDCHAR

STARTCHAR cns2_2474
ENCODING 9332
SWIDTH 854 0
DWIDTH 16 0
BBX 16 18 0 -2
BITMAP
0000
0000
3DFE
2422
2422
2422
3CA2
2462
2422
2432
3C22
2422
2422
2442
2442
4482
4D0C
0000
ENDCHAR

STARTCHAR cns2_2475
ENCODING 9333
SWIDTH 854 0
DWIDTH 16 0
BBX 16 18 0 -2
BITMAP
0000
0FF8
0808
0808
0FF8
0808
0000
0FF8
0808
0B08
0888
0848
0808
08C8
1308
1008
2030
0000
ENDCHAR

STARTCHAR cns2_2476
ENCODING 9334
SWIDTH 854 0
DWIDTH 16 0
BBX 16 18 0 -2
BITMAP
0000
0040
3C40
24FF
2480
2500
3C00
2400
24FE
2402
3C04
2418
2420
2441
2481
4501
4DFF
0000
ENDCHAR

STARTCHAR cns2_2477
ENCODING 9335
SWIDTH 854 0
DWIDTH 16 0
BBX 16 18 0 -2
BITMAP
0000
0040
3C40
2440
25FC
2444
3C44
2444
24C4
2464
3C54
2454
2444
2484
2485
4505
4A07
0000
ENDCHAR

STARTCHAR cns2_2478
ENCODING 9336
SWIDTH 854 0
DWIDTH 16 0
BBX 16 18 0 -2
BITMAP
0000
3E04
2208
2210
2220
3EC0
2202
2204
2208
3E10
2220
22C1
2202
2204
2208
4210
46E0
0000
ENDCHAR

STARTCHAR cns2_2479
ENCODING 9337
SWIDTH 854 0
DWIDTH 16 0
BBX 16 18 0 -2
BITMAP
0000
0808
0808
7F7F
0808
0808
0000
7FFF
0080
0080
00E0
0090
0088
0088
0080
0080
0080
0000
ENDCHAR

STARTCHAR cns2_247A
ENCODING 9338
SWIDTH 854 0
DWIDTH 16 0
BBX 16 18 0 -2
BITMAP
0000
0808
0808
7F7F
0808
0808
0000
0080
0080
0080
1FFC
0080
0080
0080
0080
7FFF
0000
0000
ENDCHAR

STARTCHAR cns2_247B
ENCODING 9339
SWIDTH 854 0
DWIDTH 16 0
BBX 16 18 0 -2
BITMAP
0000
0808
0808
7F7F
0808
0808
0000
0090
0088
0084
7FFF
0040
0040
0020
0010
000A
0004
0000
ENDCHAR

STARTCHAR cns2_247C
ENCODING 9340
SWIDTH 854 0
DWIDTH 16 0
BBX 16 18 0 -2
BITMAP
0000
0810
0810
7FFF
0810
0810
0000
0FF8
0008
0FF8
0800
1000
1FFC
1004
0004
0004
0078
0000
ENDCHAR

STARTCHAR cns2_247D
ENCODING 9341
SWIDTH 854 0
DWIDTH 16 0
BBX 16 18 0 -2
BITMAP
0000
0808
0808
7F7F
0808
0808
0000
1FFC
0004
0004
1FFC
1000
1000
1001
1001
0FFF
0000
0000
ENDCHAR

STARTCHAR cns2_247E
ENCODING 9342
SWIDTH 854 0
DWIDTH 16 0
BBX 16 18 0 -2
BITMAP
0000
0808
0808
7F7F
0808
0808
0000
1FF8
0010
0020
0040
7FFF
0040
0040
0040
0040
01C0
0000
ENDCHAR

STARTCHAR cns2_2521
ENCODING 9505
SWIDTH 854 0
DWIDTH 16 0
BBX 16 18 0 -2
BITMAP
0000
0410
0410
7FFF
0410
0410
0000
00FC
0F80
0080
0080
7FFF
0080
0080
0080
0080
0080
0000
ENDCHAR

STARTCHAR cns2_2522
ENCODING 9506
SWIDTH 854 0
DWIDTH 16 0
BBX 16 18 0 -2
BITMAP
0000
0810
0810
7FFF
0810
0810
0000
0FF0
0810
0810
0A10
0910
0890
1090
1011
2011
401F
0000
ENDCHAR

STARTCHAR cns2_2523
ENCODING 9507
SWIDTH 854 0
DWIDTH 16 0
BBX 16 18 0 -2
BITMAP
0000
0810
0810
7FFF
0810
0810
0200
0200
3FF0
0210
0A10
0610
0210
0510
0891
1011
601F
0000
ENDCHAR

STARTCHAR cns2_2524
ENCODING 9508
SWIDTH 854 0
DWIDTH 16 0
BBX 16 18 0 -2
BITMAP
0000
003C
03C0
3D04
0088
1030
08C0
0720
3850
0088
0318
0C28
3048
0188
0608
7810
00E0
0000
ENDCHAR

STARTCHAR cns2_2525
ENCODING 9509
SWIDTH 854 0
DWIDTH 16 0
BBX 16 18 0 -2
BITMAP
0000
6000
1000
10FE
0082
0082
7882
08FE
1082
2080
7880
0900
0900
1200
1000
2C00
43FE
0000
ENDCHAR

STARTCHAR cns2_2526
ENCODING 9510
SWIDTH 854 0
DWIDTH 16 0
BBX 16 18 0 -2
BITMAP
0000
6010
1010
1010
0092
0092
7892
0892
1092
2092
7892
0892
08FE
1082
1000
2C00
43FE
0000
ENDCHAR

STARTCHAR cns2_2527
ENCODING 9511
SWIDTH 854 0
DWIDTH 16 0
BBX 16 18 0 -2
BITMAP
0000
0800
041F
7FD1
0011
0012
0014
1E12
1211
1211
1211
1211
1211
1296
2290
2250
4390
0000
ENDCHAR

STARTCHAR cns2_2528
ENCODING 9512
SWIDTH 854 0
DWIDTH 16 0
BBX 16 18 0 -2
BITMAP
0000
0400
041F
0411
7FD1
1011
1012
1014
1F92
1091
1091
1091
1091
2096
2090
4090
0310
0000
ENDCHAR

STARTCHAR cns2_2529
ENCODING 9513
SWIDTH 854 0
DWIDTH 16 0
BBX 16 18 0 -2
BITMAP
0000
0400
041F
0411
7FD1
4452
4494
0412
0411
0411
0A11
0A11
0A11
1216
1290
2250
4390
0000
ENDCHAR

STARTCHAR cns2_252A
ENCODING 9514
SWIDTH 854 0
DWIDTH 16 0
BBX 16 18 0 -2
BITMAP
0000
0400
041F
0411
3F91
0412
0414
0412
0411
7FD1
0411
0A11
0A11
1116
1110
2090
4050
0000
ENDCHAR

STARTCHAR cns2_252B
ENCODING 9515
SWIDTH 854 0
DWIDTH 16 0
BBX 16 18 0 -2
BITMAP
0000
0000
3F9F
0011
0011
0011
0012
7FD4
1212
1211
1211
1211
1211
1216
1250
2290
4310
0000
ENDCHAR

STARTCHAR cns2_252C
ENCODING 9516
SWIDTH 854 0
DWIDTH 16 0
BBX 16 18 0 -2
BITMAP
0000
0200
0A1F
0911
0911
1091
1092
2054
5FB2
0491
0491
0491
0891
0896
1090
2090
0310
0000
ENDCHAR

STARTCHAR cns2_252D
ENCODING 9517
SWIDTH 854 0
DWIDTH 16 0
BBX 16 18 0 -2
BITMAP
0000
0108
7D08
4508
4508
4908
51EF
4908
4508
4508
4508
4508
450A
590A
4169
418F
4000
0000
ENDCHAR

STARTCHAR cns2_252E
ENCODING 9518
SWIDTH 854 0
DWIDTH 16 0
BBX 16 18 0 -2
BITMAP
0000
0000
7DFF
4500
4900
497E
5142
4942
4942
4542
4542
4546
5940
4240
4240
4441
447F
0000
ENDCHAR

STARTCHAR cns2_252F
ENCODING 9519
SWIDTH 854 0
DWIDTH 16 0
BBX 16 18 0 -2
BITMAP
0000
0010
7C10
4410
4810
4910
5110
491F
4910
4510
4510
4510
5910
4110
4110
4110
4FFF
0000
ENDCHAR

STARTCHAR cns2_2530
ENCODING 9520
SWIDTH 854 0
DWIDTH 16 0
BBX 16 18 0 -2
BITMAP
0000
7C20
4440
4480
4904
53FE
5849
4448
4448
4448
4448
4448
5448
4C48
4049
4089
430F
0000
ENDCHAR

STARTCHAR cns2_2531
ENCODING 9521
SWIDTH 854 0
DWIDTH 16 0
BBX 16 18 0 -2
BITMAP
0000
0220
0220
1FFC
1224
1224
1FFC
0220
0220
3FFE
2222
2222
3FFE
0420
0420
0820
3020
0000
ENDCHAR

STARTCHAR cns2_2532
ENCODING 9522
SWIDTH 854 0
DWIDTH 16 0
BBX 16 18 0 -2
BITMAP
0000
0820
0820
1020
17FF
1401
2038
33C0
5040
5040
105F
17E0
1040
1040
1040
1041
103F
0000
ENDCHAR

STARTCHAR cns2_2533
ENCODING 9523
SWIDTH 854 0
DWIDTH 16 0
BBX 16 18 0 -2
BITMAP
0000
0820
0820
0820
13FF
1000
2088
3104
5202
5488
1088
1050
1020
1050
1088
1104
1603
0000
ENDCHAR

STARTCHAR cns2_2534
ENCODING 9524
SWIDTH 854 0
DWIDTH 16 0
BBX 16 18 0 -2
BITMAP
0000
0820
0820
0820
13FF
1040
2288
3108
5090
5052
1024
1048
1090
1328
1044
1182
1602
0000
ENDCHAR

STARTCHAR cns2_2535
ENCODING 9525
SWIDTH 854 0
DWIDTH 16 0
BBX 16 18 0 -2
BITMAP
0000
0820
0840
087F
1049
1489
220A
3108
5010
5018
1018
1124
1624
1044
1042
1082
1301
0000
ENDCHAR

STARTCHAR cns2_2536
ENCODING 9526
SWIDTH 854 0
DWIDTH 16 0
BBX 16 18 0 -2
BITMAP
0000
0801
0BF1
0921
1121
1125
2125
3125
57F5
5125
1125
1125
1125
1125
1121
1221
1426
0000
ENDCHAR

STARTCHAR cns2_2537
ENCODING 9527
SWIDTH 854 0
DWIDTH 16 0
BBX 16 18 0 -2
BITMAP
0000
0840
0840
17FE
1040
17FC
2044
37FC
5444
5440
17FE
1442
10A2
1096
1108
1204
1C03
0000
ENDCHAR

STARTCHAR cns2_2538
ENCODING 9528
SWIDTH 854 0
DWIDTH 16 0
BBX 16 18 0 -2
BITMAP
0000
0820
0820
1020
17FF
1020
2020
3020
53FE
5000
1000
11FC
1104
1104
1104
11FC
1104
0000
ENDCHAR

STARTCHAR cns2_2539
ENCODING 9529
SWIDTH 854 0
DWIDTH 16 0
BBX 16 18 0 -2
BITMAP
0000
0800
0BFF
0904
1104
1104
21FC
3104
5104
5104
11FC
1104
1104
113F
13C4
1004
1004
0000
ENDCHAR

STARTCHAR cns2_253A
ENCODING 9530
SWIDTH 854 0
DWIDTH 16 0
BBX 16 18 0 -2
BITMAP
0000
0820
0820
0BFF
1048
1084
2082
317D
5000
51FF
1020
1040
10FE
1102
1002
1002
101C
0000
ENDCHAR

STARTCHAR cns2_253B
ENCODING 9531
SWIDTH 854 0
DWIDTH 16 0
BBX 16 18 0 -2
BITMAP
0000
0800
0BFE
0820
1020
1044
209E
33E2
5120
5020
1020
13FE
1020
1020
1020
17FF
1000
0000
ENDCHAR

STARTCHAR cns2_253C
ENCODING 9532
SWIDTH 854 0
DWIDTH 16 0
BBX 16 18 0 -2
BITMAP
0000
0800
0BFC
0A04
1204
13FC
2204
3204
53FC
5220
1223
122C
1210
1208
12C4
1302
1C01
0000
ENDCHAR

STARTCHAR cns2_253D
ENCODING 9533
SWIDTH 854 0
DWIDTH 16 0
BBX 16 18 0 -2
BITMAP
0000
0800
0888
0888
1088
1288
2288
3288
52E9
528E
1288
1288
1288
1288
1289
12E9
170F
0000
ENDCHAR

STARTCHAR cns2_253E
ENCODING 9534
SWIDTH 854 0
DWIDTH 16 0
BBX 16 18 0 -2
BITMAP
0000
0800
0BFF
0A01
1201
12FD
2201
3201
52FD
5285
1285
1285
1285
12FD
1201
1201
1207
0000
ENDCHAR

STARTCHAR cns2_253F
ENCODING 9535
SWIDTH 854 0
DWIDTH 16 0
BBX 16 18 0 -2
BITMAP
0000
0800
0BFF
0A01
1201
1201
22FD
3285
5285
5285
1285
12FD
1201
1201
1201
13FF
1201
0000
ENDCHAR

STARTCHAR cns2_2540
ENCODING 9536
SWIDTH 854 0
DWIDTH 16 0
BBX 16 18 0 -2
BITMAP
0000
0880
0880
0900
11FF
1201
2401
31F9
5109
5109
11F9
1109
1109
11F9
1001
1001
100E
0000
ENDCHAR

STARTCHAR cns2_2541
ENCODING 9537
SWIDTH 854 0
DWIDTH 16 0
BBX 16 18 0 -2
BITMAP
0000
0840
087C
0884
1108
13FF
2200
3200
52FE
5282
1282
1282
128E
1280
1480
1481
10FF
0000
ENDCHAR

STARTCHAR cns2_2542
ENCODING 9538
SWIDTH 854 0
DWIDTH 16 0
BBX 16 18 0 -2
BITMAP
0000
0820
0A20
0A20
13FE
1420
2020
3020
57FF
5050
1050
1050
1090
1090
1110
1211
141F
0000
ENDCHAR

STARTCHAR cns2_2543
ENCODING 9539
SWIDTH 854 0
DWIDTH 16 0
BBX 16 18 0 -2
BITMAP
0000
0806
0BF8
0820
1020
1020
27FF
3020
5020
5020
13FE
1202
1202
1202
1202
13FE
1202
0000
ENDCHAR

STARTCHAR cns2_2544
ENCODING 9540
SWIDTH 854 0
DWIDTH 16 0
BBX 16 18 0 -2
BITMAP
0000
0820
0820
0840
1040
13FC
2294
3294
5294
5294
1294
1294
1294
1294
1294
1FFF
1000
0000
ENDCHAR

STARTCHAR cns2_2545
ENCODING 9541
SWIDTH 854 0
DWIDTH 16 0
BBX 16 18 0 -2
BITMAP
0000
0820
0840
08FC
1084
10A4
2094
3094
5084
57FF
1084
10A4
1094
1094
1084
1104
1218
0000
ENDCHAR

STARTCHAR cns2_2546
ENCODING 9542
SWIDTH 854 0
DWIDTH 16 0
BBX 16 18 0 -2
BITMAP
0000
0880
0904
0902
123F
17C1
2020
3220
53FE
5420
1020
1020
17FF
1020
1020
1020
1020
0000
ENDCHAR

STARTCHAR cns2_2547
ENCODING 9543
SWIDTH 854 0
DWIDTH 16 0
BBX 16 18 0 -2
BITMAP
0000
0900
0900
0900
111F
17D1
2251
3251
5251
5451
1451
1351
1091
1151
1151
121F
1C11
0000
ENDCHAR

STARTCHAR cns2_2548
ENCODING 9544
SWIDTH 854 0
DWIDTH 16 0
BBX 16 18 0 -2
BITMAP
0000
0820
0820
0820
13FE
1202
2222
3020
5040
57FF
1088
1088
1148
1030
1018
1064
1382
0000
ENDCHAR

STARTCHAR cns2_2549
ENCODING 9545
SWIDTH 854 0
DWIDTH 16 0
BBX 16 18 0 -2
BITMAP
0000
0210
0410
09FF
1902
290C
4978
0910
0910
09FF
0910
0910
0910
0910
0910
0A11
0A1F
0000
ENDCHAR

STARTCHAR cns2_254A
ENCODING 9546
SWIDTH 854 0
DWIDTH 16 0
BBX 16 18 0 -2
BITMAP
0000
0800
0BFF
0820
1020
1040
27FE
3492
5492
5492
1492
1492
1492
1492
1492
1492
1402
0000
ENDCHAR

STARTCHAR cns2_254B
ENCODING 9547
SWIDTH 854 0
DWIDTH 16 0
BBX 16 18 0 -2
BITMAP
0000
0840
0840
08FE
1184
1288
2450
3020
5050
508C
1103
17FC
1104
1104
1104
11FC
1104
0000
ENDCHAR

STARTCHAR cns2_254C
ENCODING 9548
SWIDTH 854 0
DWIDTH 16 0
BBX 16 18 0 -2
BITMAP
0000
0420
0820
0850
1088
3104
5202
14F9
1000
1000
11FE
1102
1102
1102
1102
11FE
1000
0000
ENDCHAR

STARTCHAR cns2_254D
ENCODING 9549
SWIDTH 854 0
DWIDTH 16 0
BBX 16 18 0 -2
BITMAP
0000
0000
3FFE
2002
2082
288A
0490
0080
0080
7FFF
0080
02A0
0490
0888
3086
0080
0080
0000
ENDCHAR

STARTCHAR cns2_254E
ENCODING 9550
SWIDTH 854 0
DWIDTH 16 0
BBX 16 18 0 -2
BITMAP
0000
0020
2120
1120
03FE
0220
0420
0020
1020
17FF
1090
2090
2090
2111
4111
4211
0C1F
0000
ENDCHAR

STARTCHAR cns2_254F
ENCODING 9551
SWIDTH 854 0
DWIDTH 16 0
BBX 16 18 0 -2
BITMAP
0000
0020
2050
1050
0088
0088
0104
0202
15F9
1000
1000
23FC
2204
2204
4204
43FC
0204
0000
ENDCHAR

STARTCHAR cns2_2550
ENCODING 9552
SWIDTH 854 0
DWIDTH 16 0
BBX 16 18 0 -2
BITMAP
0000
0001
3FE1
1089
1089
1089
1F89
1089
1089
1F89
1089
1089
1089
17E1
3881
0081
0083
0000
ENDCHAR

STARTCHAR cns2_2551
ENCODING 9553
SWIDTH 854 0
DWIDTH 16 0
BBX 16 18 0 -2
BITMAP
0000
0401
0401
3F91
0411
0411
0411
7FD1
0411
0411
0411
3F91
0411
0401
0401
07C1
7C03
0000
ENDCHAR

STARTCHAR cns2_2552
ENCODING 9554
SWIDTH 854 0
DWIDTH 16 0
BBX 16 18 0 -2
BITMAP
0000
0401
0401
7FC9
0A09
1109
2089
5F49
0009
3FC9
0809
0809
1F89
0081
0081
0101
0603
0000
ENDCHAR

STARTCHAR cns2_2553
ENCODING 9555
SWIDTH 854 0
DWIDTH 16 0
BBX 16 18 0 -2
BITMAP
0000
0802
0402
3F92
2092
2092
3F92
2092
2092
3F92
2012
2212
2112
2792
2882
308A
0006
0000
ENDCHAR

STARTCHAR cns2_2554
ENCODING 9556
SWIDTH 854 0
DWIDTH 16 0
BBX 16 18 0 -2
BITMAP
0000
1200
127E
1212
7F92
1212
1256
1232
121B
7F92
1212
1222
1222
2222
2242
4284
0218
0000
ENDCHAR

STARTCHAR cns2_2555
ENCODING 9557
SWIDTH 854 0
DWIDTH 16 0
BBX 16 18 0 -2
BITMAP
0000
0810
0810
0810
7F90
0810
087F
7F11
0011
0011
3E21
2221
2221
2241
3E41
2081
0306
0000
ENDCHAR

STARTCHAR cns2_2556
ENCODING 9558
SWIDTH 854 0
DWIDTH 16 0
BBX 16 18 0 -2
BITMAP
0000
0800
0800
0FFF
1001
1081
2491
42A1
0081
0FF9
0081
02A1
0491
0889
0081
0082
000C
0000
ENDCHAR

STARTCHAR cns2_2557
ENCODING 9559
SWIDTH 854 0
DWIDTH 16 0
BBX 16 18 0 -2
BITMAP
0000
0800
0800
0FFF
1001
2401
4FF9
1081
0081
1FFD
0081
0889
0889
0FF9
0809
0002
000C
0000
ENDCHAR

STARTCHAR cns2_2558
ENCODING 9560
SWIDTH 854 0
DWIDTH 16 0
BBX 16 18 0 -2
BITMAP
0000
0000
3FFE
2040
20B0
2108
2204
2DFB
2000
23FC
2204
2204
2204
23FC
2000
3FFF
2000
0000
ENDCHAR

STARTCHAR cns2_2559
ENCODING 9561
SWIDTH 854 0
DWIDTH 16 0
BBX 16 18 0 -2
BITMAP
0000
0000
3FFF
2100
2100
23FC
2240
2440
2840
2FFE
2040
2444
2444
2444
4444
47FC
4404
0000
ENDCHAR

STARTCHAR cns2_255A
ENCODING 9562
SWIDTH 854 0
DWIDTH 16 0
BBX 16 18 0 -2
BITMAP
0000
0000
3FFF
2000
27FC
2100
2110
2208
27F4
2000
2040
2040
23F8
2040
2040
4FFE
4000
0000
ENDCHAR

STARTCHAR cns2_255B
ENCODING 9563
SWIDTH 854 0
DWIDTH 16 0
BBX 16 18 0 -2
BITMAP
0000
0040
0020
0010
7802
4842
4A44
4A44
4A48
4A48
4C50
7862
4841
40C1
0145
0644
087C
0000
ENDCHAR

STARTCHAR cns2_255C
ENCODING 9564
SWIDTH 854 0
DWIDTH 16 0
BBX 16 18 0 -2
BITMAP
0000
0020
0020
0020
7BFE
4820
4820
4820
4FFF
4840
4840
7880
4888
4104
013C
07C2
0002
0000
ENDCHAR

STARTCHAR cns2_255D
ENCODING 9565
SWIDTH 854 0
DWIDTH 16 0
BBX 16 18 0 -2
BITMAP
0000
0084
0084
0084
7C84
4484
47FF
4484
4484
4484
44FC
7C84
4484
4084
0084
00FC
0084
0000
ENDCHAR

STARTCHAR cns2_255E
ENCODING 9566
SWIDTH 854 0
DWIDTH 16 0
BBX 16 18 0 -2
BITMAP
0000
0080
0080
0080
789F
4BE4
4884
4884
4884
48E4
4B84
7C84
4884
4084
0084
0084
018C
0000
ENDCHAR

STARTCHAR cns2_255F
ENCODING 9567
SWIDTH 854 0
DWIDTH 16 0
BBX 16 18 0 -2
BITMAP
0000
0000
03FE
0200
7A10
4A10
4AFE
4A92
4A92
4A92
4A92
7A96
4A10
4210
0200
03FF
0200
0000
ENDCHAR

STARTCHAR cns2_2560
ENCODING 9568
SWIDTH 854 0
DWIDTH 16 0
BBX 16 18 0 -2
BITMAP
0000
0090
0090
0090
7BFE
4892
4892
4BFE
4A92
4C90
4FFF
7C91
4891
4111
0116
0210
0410
0000
ENDCHAR

STARTCHAR cns2_2561
ENCODING 9569
SWIDTH 854 0
DWIDTH 16 0
BBX 16 18 0 -2
BITMAP
0000
0010
0010
0010
3E1F
2210
2210
2210
2210
22FF
2281
2281
3E81
2281
0081
00FF
0081
0000
ENDCHAR

STARTCHAR cns2_2562
ENCODING 9570
SWIDTH 854 0
DWIDTH 16 0
BBX 16 18 0 -2
BITMAP
0000
0000
01FC
0104
7904
4904
49FC
4800
4FFF
4840
4840
78FC
4904
4004
0004
0008
0030
0000
ENDCHAR

STARTCHAR cns2_2563
ENCODING 9571
SWIDTH 854 0
DWIDTH 16 0
BBX 16 18 0 -2
BITMAP
0000
0000
01FC
0104
7904
4904
4904
49FC
4904
4904
4904
7904
49FC
4000
0000
07FF
0000
0000
ENDCHAR

STARTCHAR cns2_2564
ENCODING 9572
SWIDTH 854 0
DWIDTH 16 0
BBX 16 18 0 -2
BITMAP
0000
0020
0020
03FE
7A22
4A22
4A22
4BFE
4A22
4A22
4A22
7FFF
4A02
4202
0202
0402
0406
0000
ENDCHAR

STARTCHAR cns2_2565
ENCODING 9573
SWIDTH 854 0
DWIDTH 16 0
BBX 16 18 0 -2
BITMAP
0000
0000
0000
03FF
7A49
4A49
4A49
4A49
4A49
4A89
4A8F
7B01
4A01
4201
03FF
0201
0000
0000
ENDCHAR

STARTCHAR cns2_2566
ENCODING 9574
SWIDTH 854 0
DWIDTH 16 0
BBX 16 18 0 -2
BITMAP
0000
0040
0040
0080
78FF
4901
4A01
4801
48F9
4889
4889
7889
48F9
4089
0001
0001
0006
0000
ENDCHAR

STARTCHAR cns2_2567
ENCODING 9575
SWIDTH 854 0
DWIDTH 16 0
BBX 16 18 0 -2
BITMAP
0000
0088
0088
0108
7908
4A3F
4A49
4C49
4A89
4A89
4909
7909
4A51
47D1
0021
0041
0186
0000
ENDCHAR

STARTCHAR cns2_2568
ENCODING 9576
SWIDTH 854 0
DWIDTH 16 0
BBX 16 18 0 -2
BITMAP
0000
0020
0020
0040
7840
4884
4882
4BFE
4801
4800
49FE
7902
4902
4102
0102
01FE
0102
0000
ENDCHAR

STARTCHAR cns2_2569
ENCODING 9577
SWIDTH 854 0
DWIDTH 16 0
BBX 16 18 0 -2
BITMAP
0000
0000
03FE
0020
7A22
4924
48A8
48A8
4820
4820
4BFF
7820
0020
0020
0020
0020
0020
0000
ENDCHAR

STARTCHAR cns2_256A
ENCODING 9578
SWIDTH 854 0
DWIDTH 16 0
BBX 16 18 0 -2
BITMAP
0000
0000
03FC
0204
7A04
4BFC
4A24
4A20
4A20
4BFE
4A10
7A10
4A08
4208
02E5
0703
0001
0000
ENDCHAR

STARTCHAR cns2_256B
ENCODING 9579
SWIDTH 854 0
DWIDTH 16 0
BBX 16 18 0 -2
BITMAP
0000
0020
0020
0020
7820
49FC
4820
4860
4870
48A8
4924
7A22
4C21
41FC
0020
0020
0060
0000
ENDCHAR

STARTCHAR cns2_256C
ENCODING 9580
SWIDTH 854 0
DWIDTH 16 0
BBX 16 18 0 -2
BITMAP
0000
0010
0020
7BFF
4890
4910
4A10
4DFF
4911
4911
4911
4911
4911
4917
7810
0010
0010
0000
ENDCHAR

STARTCHAR cns2_256D
ENCODING 9581
SWIDTH 854 0
DWIDTH 16 0
BBX 16 18 0 -2
BITMAP
0000
0000
01FE
7902
4942
4922
4912
4FFF
4904
4984
4944
4924
4904
4BFC
4804
7844
003C
0000
ENDCHAR

STARTCHAR cns2_256E
ENCODING 9582
SWIDTH 854 0
DWIDTH 16 0
BBX 16 18 0 -2
BITMAP
0000
0006
01F8
0110
7910
4910
49FF
4910
4910
4908
4908
7908
4924
41C5
0703
0000
01FC
0000
ENDCHAR

STARTCHAR cns2_256F
ENCODING 9583
SWIDTH 854 0
DWIDTH 16 0
BBX 16 18 0 -2
BITMAP
0000
0000
0040
00A0
7910
4908
4AF4
4C03
4800
4BFC
480C
7818
01B0
00E0
0070
0030
0000
0000
ENDCHAR

STARTCHAR cns2_2570
ENCODING 9584
SWIDTH 854 0
DWIDTH 16 0
BBX 16 18 0 -2
BITMAP
0000
0000
1FFF
1001
1039
13C1
1041
1041
17FD
1041
10E1
1151
1249
1445
1041
1001
1FFF
0000
ENDCHAR

STARTCHAR cns2_2571
ENCODING 9585
SWIDTH 854 0
DWIDTH 16 0
BBX 16 18 0 -2
BITMAP
0000
0000
3FFE
2082
2142
2222
2412
2BEA
3006
27F2
2012
2122
20C2
2062
2022
3FFE
0000
0000
ENDCHAR

STARTCHAR cns2_2572
ENCODING 9586
SWIDTH 854 0
DWIDTH 16 0
BBX 16 18 0 -2
BITMAP
0000
1000
11FF
1008
1010
7C10
1020
1034
1052
1092
1111
1011
1C10
6010
0010
0000
03FF
0000
ENDCHAR

STARTCHAR cns2_2573
ENCODING 9587
SWIDTH 854 0
DWIDTH 16 0
BBX 16 18 0 -2
BITMAP
0000
1090
1090
1090
13FE
1092
7892
13FE
1292
1490
17FF
1091
1891
6111
0116
0210
0410
0000
ENDCHAR

STARTCHAR cns2_2574
ENCODING 9588
SWIDTH 854 0
DWIDTH 16 0
BBX 16 18 0 -2
BITMAP
0000
1000
11FE
1102
1102
7D02
11FE
1102
1140
1140
1146
1178
1D40
6240
0241
0441
047F
0000
ENDCHAR

STARTCHAR cns2_2575
ENCODING 9589
SWIDTH 854 0
DWIDTH 16 0
BBX 16 18 0 -2
BITMAP
0000
1020
1020
1020
103F
1020
7C20
1020
1020
11FE
1102
1502
1902
6102
0102
01FE
0102
0000
ENDCHAR

STARTCHAR cns2_2576
ENCODING 9590
SWIDTH 854 0
DWIDTH 16 0
BBX 16 18 0 -2
BITMAP
0000
1020
1020
1020
11FC
1124
7D24
1124
1124
17FF
1050
1450
1888
6088
0104
0202
0401
0000
ENDCHAR

STARTCHAR cns2_2577
ENCODING 9591
SWIDTH 854 0
DWIDTH 16 0
BBX 16 18 0 -2
BITMAP
0000
1000
11FF
1101
1101
1101
7D7D
1145
1145
1145
117D
1545
1901
6101
0101
0101
0103
0000
ENDCHAR

STARTCHAR cns2_2578
ENCODING 9592
SWIDTH 854 0
DWIDTH 16 0
BBX 16 18 0 -2
BITMAP
0000
1000
10FE
1082
10A2
1092
7C8A
1082
13FF
1082
10A2
1492
188A
6102
01FF
0102
000C
0000
ENDCHAR

STARTCHAR cns2_2579
ENCODING 9593
SWIDTH 854 0
DWIDTH 16 0
BBX 16 18 0 -2
BITMAP
0000
1006
11F8
1010
1010
1112
7C92
1094
1094
13FF
1010
1410
1810
6010
0010
0010
0060
0000
ENDCHAR

STARTCHAR cns2_257A
ENCODING 9594
SWIDTH 854 0
DWIDTH 16 0
BBX 16 18 0 -2
BITMAP
0000
0800
080C
08F0
0880
0880
7E80
08FE
0888
0888
0888
0888
0E88
7088
03FF
0000
0000
0000
ENDCHAR

STARTCHAR cns2_257B
ENCODING 9595
SWIDTH 854 0
DWIDTH 16 0
BBX 16 18 0 -2
BITMAP
0000
1006
11F8
1110
1110
1110
7DFF
1110
1110
1108
1108
1508
1924
61C5
0703
0000
01FC
0000
ENDCHAR

STARTCHAR cns2_257C
ENCODING 9596
SWIDTH 854 0
DWIDTH 16 0
BBX 16 18 0 -2
BITMAP
0000
1088
1088
1108
1108
123F
7A49
1449
1289
1289
1109
1109
1A51
63D1
0621
0041
0186
0000
ENDCHAR

STARTCHAR cns2_257D
ENCODING 9597
SWIDTH 854 0
DWIDTH 16 0
BBX 16 18 0 -2
BITMAP
0000
0080
0080
1FFC
0080
0080
0080
7FFF
0210
0490
0890
1088
67F7
0080
0080
0080
3FFE
0000
ENDCHAR

STARTCHAR cns2_257E
ENCODING 9598
SWIDTH 854 0
DWIDTH 16 0
BBX 16 18 0 -2
BITMAP
0000
0020
1020
1124
10A8
10A8
7C20
11FE
1020
1020
1020
13FF
1C20
6020
0020
0020
0020
0000
ENDCHAR

STARTCHAR cns2_2621
ENCODING 9761
SWIDTH 854 0
DWIDTH 16 0
BBX 16 18 0 -2
BITMAP
0000
1010
1010
1010
11FF
1101
7D41
1141
1040
104C
1070
1040
1C40
6040
0042
0042
007E
0000
ENDCHAR

STARTCHAR cns2_2622
ENCODING 9762
SWIDTH 854 0
DWIDTH 16 0
BBX 16 18 0 -2
BITMAP
0000
0020
1050
1088
1104
12FB
7C00
1000
11FE
1002
1004
1448
1830
6018
0008
0000
0000
0000
ENDCHAR

STARTCHAR cns2_2623
ENCODING 9763
SWIDTH 854 0
DWIDTH 16 0
BBX 16 18 0 -2
BITMAP
0000
0080
1FFC
0080
0080
3FFE
0420
0822
123E
2400
0BF0
1010
0220
01C0
0360
0C18
3006
0000
ENDCHAR

STARTCHAR cns2_2624
ENCODING 9764
SWIDTH 854 0
DWIDTH 16 0
BBX 16 18 0 -2
BITMAP
0000
0080
0080
7FFF
0120
0618
1806
6304
0C00
307E
2142
2142
2742
3A4A
0444
1840
0040
0000
ENDCHAR

STARTCHAR cns2_2625
ENCODING 9765
SWIDTH 854 0
DWIDTH 16 0
BBX 16 18 0 -2
BITMAP
0000
1040
1020
1010
11FF
7C10
2410
2410
2410
4410
44FE
3410
0810
1410
1210
2010
41FF
0000
ENDCHAR

STARTCHAR cns2_2626
ENCODING 9766
SWIDTH 854 0
DWIDTH 16 0
BBX 16 18 0 -2
BITMAP
0000
1010
1010
1010
11FF
7C10
2410
2410
44FE
4410
2830
1858
0854
1494
1312
2211
4010
0000
ENDCHAR

STARTCHAR cns2_2627
ENCODING 9767
SWIDTH 854 0
DWIDTH 16 0
BBX 16 18 0 -2
BITMAP
0000
1044
1044
1044
1044
7DFF
2444
2444
4444
4444
287C
1844
0844
1444
1244
207C
4044
0000
ENDCHAR

STARTCHAR cns2_2628
ENCODING 9768
SWIDTH 854 0
DWIDTH 16 0
BBX 16 18 0 -2
BITMAP
0000
1010
1010
1010
10FE
7C92
2492
2492
4492
4492
29FF
1828
0828
1444
1244
2082
4101
0000
ENDCHAR

STARTCHAR cns2_2629
ENCODING 9769
SWIDTH 854 0
DWIDTH 16 0
BBX 16 18 0 -2
BITMAP
0000
1000
10FC
1084
1084
7C84
2484
24FC
2484
4484
4484
3484
08FC
1484
1200
2000
43FF
0000
ENDCHAR

STARTCHAR cns2_262A
ENCODING 9770
SWIDTH 854 0
DWIDTH 16 0
BBX 16 18 0 -2
BITMAP
0000
1010
1010
10FE
1092
7C92
2492
24FE
4492
4492
2892
19FF
0882
1482
1282
208A
4084
0000
ENDCHAR

STARTCHAR cns2_262B
ENCODING 9771
SWIDTH 854 0
DWIDTH 16 0
BBX 16 18 0 -2
BITMAP
0000
1040
1040
1080
11FF
7D01
2401
2401
24F9
4489
4489
3489
08F9
1409
1201
2102
401C
0000
ENDCHAR

STARTCHAR cns2_262C
ENCODING 9772
SWIDTH 854 0
DWIDTH 16 0
BBX 16 18 0 -2
BITMAP
0000
1010
1010
1010
11FF
7C10
2420
2542
4482
4444
2828
1810
0820
1442
1047
21F9
4001
0000
ENDCHAR

STARTCHAR cns2_262D
ENCODING 9773
SWIDTH 854 0
DWIDTH 16 0
BBX 16 18 0 -2
BITMAP
0000
1030
1008
1000
1022
7C22
2422
2424
24A4
24A8
44AA
28B2
1921
0861
14A1
2122
403E
0000
ENDCHAR

STARTCHAR cns2_262E
ENCODING 9774
SWIDTH 854 0
DWIDTH 16 0
BBX 16 18 0 -2
BITMAP
0000
1000
10FE
1010
1010
7C10
2410
2490
4490
449E
2890
1890
0890
1490
1290
2090
43FF
0000
ENDCHAR

STARTCHAR cns2_262F
ENCODING 9775
SWIDTH 854 0
DWIDTH 16 0
BBX 16 18 0 -2
BITMAP
0000
1000
10FF
1480
7E80
2480
24FE
2482
4482
4482
44FE
2480
1480
0880
14FF
2200
4000
0000
ENDCHAR

STARTCHAR cns2_2630
ENCODING 9776
SWIDTH 854 0
DWIDTH 16 0
BBX 16 18 0 -2
BITMAP
0000
1000
10FF
1011
1011
7C11
2421
2421
44C6
4400
287F
1841
0841
1441
1241
207F
4041
0000
ENDCHAR

STARTCHAR cns2_2631
ENCODING 9777
SWIDTH 854 0
DWIDTH 16 0
BBX 16 18 0 -2
BITMAP
0000
1010
1010
1010
10FE
7C92
2492
2492
44FE
4492
2892
1892
08FE
1410
1210
2010
4010
0000
ENDCHAR

STARTCHAR cns2_2632
ENCODING 9778
SWIDTH 854 0
DWIDTH 16 0
BBX 16 18 0 -2
BITMAP
0000
1006
1078
1008
1008
7C08
24FF
2408
4418
442C
282A
1849
0848
1488
1208
2008
4008
0000
ENDCHAR

STARTCHAR cns2_2633
ENCODING 9779
SWIDTH 854 0
DWIDTH 16 0
BBX 16 18 0 -2
BITMAP
0000
1010
1028
1044
1082
7D01
247E
2400
4400
44FE
2802
1804
0848
1430
1218
2008
4000
0000
ENDCHAR

STARTCHAR cns2_2634
ENCODING 9780
SWIDTH 854 0
DWIDTH 16 0
BBX 16 18 0 -2
BITMAP
0000
1000
1F7E
1142
3142
4A5C
0440
1840
607E
0100
0200
7FFF
0410
1E20
00C0
0330
3C0C
0000
ENDCHAR

STARTCHAR cns2_2635
ENCODING 9781
SWIDTH 854 0
DWIDTH 16 0
BBX 16 18 0 -2
BITMAP
0000
0408
0808
19FF
2808
4848
0828
0808
0918
0100
7FFF
0208
0410
0FE0
0040
0090
0F0E
0000
ENDCHAR

STARTCHAR cns2_2636
ENCODING 9782
SWIDTH 854 0
DWIDTH 16 0
BBX 16 18 0 -2
BITMAP
0000
0080
7C80
04FF
0901
1001
10F9
1089
1C89
3089
50F9
1081
1082
108C
1080
1081
307F
0000
ENDCHAR

STARTCHAR cns2_2637
ENCODING 9783
SWIDTH 854 0
DWIDTH 16 0
BBX 16 18 0 -2
BITMAP
0000
0800
08FE
7F44
1228
3210
0C28
1246
6000
0FF8
0010
0060
0080
7FFF
0080
0080
0380
0000
ENDCHAR

STARTCHAR cns2_2638
ENCODING 9784
SWIDTH 854 0
DWIDTH 16 0
BBX 16 18 0 -2
BITMAP
0000
0080
0080
7FFF
4001
4181
4041
0204
1208
1210
1220
1222
2242
2281
0289
07F8
7800
0000
ENDCHAR

STARTCHAR cns2_2639
ENCODING 9785
SWIDTH 854 0
DWIDTH 16 0
BBX 16 18 0 -2
BITMAP
0000
0080
0080
7FFF
4001
4001
0000
3FFE
0200
0400
0800
1FFC
2804
4804
0804
0FFC
0804
0000
ENDCHAR

STARTCHAR cns2_263A
ENCODING 9786
SWIDTH 854 0
DWIDTH 16 0
BBX 16 18 0 -2
BITMAP
0000
0000
3FFE
2002
2002
3FFE
2000
2040
2FFE
2802
2802
20F0
2110
2110
2208
4404
5803
0000
ENDCHAR

STARTCHAR cns2_263B
ENCODING 9787
SWIDTH 854 0
DWIDTH 16 0
BBX 16 18 0 -2
BITMAP
0000
0000
1FFF
1001
1001
1FFF
1000
1000
17FF
1421
1421
17FF
1421
1421
17FF
2401
2000
0000
ENDCHAR

STARTCHAR cns2_263C
ENCODING 9788
SWIDTH 854 0
DWIDTH 16 0
BBX 16 18 0 -2
BITMAP
0000
1020
1010
11FE
5502
5502
5400
5400
5440
5442
544C
5470
5440
7C42
4442
4042
003E
0000
ENDCHAR

STARTCHAR cns2_263D
ENCODING 9789
SWIDTH 854 0
DWIDTH 16 0
BBX 16 18 0 -2
BITMAP
0000
1020
1010
1010
55FF
5501
5501
5512
5410
5450
5448
5448
5488
7484
4484
0102
0201
0000
ENDCHAR

STARTCHAR cns2_263E
ENCODING 9790
SWIDTH 854 0
DWIDTH 16 0
BBX 16 18 0 -2
BITMAP
0000
1000
11FF
1100
5500
5500
55FE
5502
5502
5502
5502
55FE
7D00
4500
0100
01FF
0100
0000
ENDCHAR

STARTCHAR cns2_263F
ENCODING 9791
SWIDTH 854 0
DWIDTH 16 0
BBX 16 18 0 -2
BITMAP
0000
0810
0810
0810
2A10
2AFF
2A10
2A10
2A10
2A10
2AFE
2A82
3E82
2282
0082
00FE
0082
0000
ENDCHAR

STARTCHAR cns2_2640
ENCODING 9792
SWIDTH 854 0
DWIDTH 16 0
BBX 16 18 0 -2
BITMAP
0000
11FF
1008
1008
5410
5410
5430
545C
5492
5511
5411
5410
5410
7C10
4410
01FF
0000
0000
ENDCHAR

STARTCHAR cns2_2641
ENCODING 9793
SWIDTH 854 0
DWIDTH 16 0
BBX 16 18 0 -2
BITMAP
0000
1000
10FC
1084
5484
5484
5484
54FC
5484
5484
5484
54FC
5484
7C84
4484
0084
03FF
0000
ENDCHAR

STARTCHAR cns2_2642
ENCODING 9794
SWIDTH 854 0
DWIDTH 16 0
BBX 16 18 0 -2
BITMAP
0000
1000
11FF
1111
5511
5511
55FF
5511
5511
5511
55FF
5410
5410
5410
7C10
0010
0010
0000
ENDCHAR

STARTCHAR cns2_2643
ENCODING 9795
SWIDTH 854 0
DWIDTH 16 0
BBX 16 18 0 -2
BITMAP
0000
1010
1010
1010
54FE
5492
5492
5492
5492
55FF
5428
5428
7C44
4444
0082
0101
0600
0000
ENDCHAR

STARTCHAR cns2_2644
ENCODING 9796
SWIDTH 854 0
DWIDTH 16 0
BBX 16 18 0 -2
BITMAP
0000
1040
1040
1080
54FF
5501
5501
5401
54F9
5489
5489
5489
7CF9
4489
0001
0002
001C
0000
ENDCHAR

STARTCHAR cns2_2645
ENCODING 9797
SWIDTH 854 0
DWIDTH 16 0
BBX 16 18 0 -2
BITMAP
0000
1010
1028
1044
5482
5501
547E
5400
5400
54FE
5402
5404
7C48
0030
0018
0008
0000
0000
ENDCHAR

STARTCHAR cns2_2646
ENCODING 9798
SWIDTH 854 0
DWIDTH 16 0
BBX 16 18 0 -2
BITMAP
0000
0080
1084
1084
1084
1FFC
1004
0000
7FFF
0008
0FC8
0848
0848
0FC8
0848
0008
0018
0000
ENDCHAR

STARTCHAR cns2_2647
ENCODING 9799
SWIDTH 854 0
DWIDTH 16 0
BBX 16 18 0 -2
BITMAP
0000
2082
2082
3FFE
0000
0220
1FFE
0222
0222
1FFE
1220
1220
3FFF
0221
0221
0426
1820
0000
ENDCHAR

STARTCHAR cns2_2648
ENCODING 9800
SWIDTH 854 0
DWIDTH 16 0
BBX 16 18 0 -2
BITMAP
0000
0040
1041
1041
1041
1FFF
0000
1FFE
0082
0302
0C02
100C
0000
0FFE
0802
0802
0FFE
0000
ENDCHAR

STARTCHAR cns2_2649
ENCODING 9801
SWIDTH 854 0
DWIDTH 16 0
BBX 16 18 0 -2
BITMAP
0000
1084
1084
1084
1FFC
1004
0400
0400
0FFE
0880
1080
20FC
0080
0080
00FC
0080
0080
0000
ENDCHAR

STARTCHAR cns2_264A
ENCODING 9802
SWIDTH 854 0
DWIDTH 16 0
BBX 16 18 0 -2
BITMAP
0000
1010
1010
11FF
5511
5512
5510
5510
55FE
5502
5542
5524
7D14
4508
0218
0224
04C3
0000
ENDCHAR

STARTCHAR cns2_264B
ENCODING 9803
SWIDTH 854 0
DWIDTH 16 0
BBX 16 18 0 -2
BITMAP
0000
0810
0810
0820
2A20
2AFE
2A82
2A82
2A82
2A82
2AFE
2A82
2A82
3E82
2282
20FE
0082
0000
ENDCHAR

STARTCHAR cns2_264C
ENCODING 9804
SWIDTH 854 0
DWIDTH 16 0
BBX 16 18 0 -2
BITMAP
0000
1024
1044
1084
551F
5525
5525
5545
55C5
5445
5485
5585
5525
7DF9
0011
0027
0040
0000
ENDCHAR

STARTCHAR cns2_264D
ENCODING 9805
SWIDTH 854 0
DWIDTH 16 0
BBX 16 18 0 -2
BITMAP
0000
0080
1084
1084
1084
1FFC
1004
0000
0080
3FFE
0410
0410
0210
0210
0220
0220
7FFF
0000
ENDCHAR

STARTCHAR cns2_264E
ENCODING 9806
SWIDTH 854 0
DWIDTH 16 0
BBX 16 18 0 -2
BITMAP
0000
1040
1048
1044
7C40
57FF
5440
5444
54A4
54A8
54A8
5510
5510
1228
1444
1182
1601
0000
ENDCHAR

STARTCHAR cns2_264F
ENCODING 9807
SWIDTH 854 0
DWIDTH 16 0
BBX 16 18 0 -2
BITMAP
0000
1010
1010
11FF
7D11
5512
5510
5510
55FE
5502
5542
5524
5514
1208
1214
1462
1581
0000
ENDCHAR

STARTCHAR cns2_2650
ENCODING 9808
SWIDTH 854 0
DWIDTH 16 0
BBX 16 18 0 -2
BITMAP
0000
1010
1090
1090
7CFE
5510
5510
5410
55FF
5410
5428
5428
5024
1044
1082
1102
1601
0000
ENDCHAR

STARTCHAR cns2_2651
ENCODING 9809
SWIDTH 854 0
DWIDTH 16 0
BBX 16 18 0 -2
BITMAP
0000
0000
3CFF
0421
0421
0421
3C21
2041
2186
4000
7CFF
4481
0481
0481
0481
04FF
1881
0000
ENDCHAR

STARTCHAR cns2_2652
ENCODING 9810
SWIDTH 854 0
DWIDTH 16 0
BBX 16 18 0 -2
BITMAP
0000
0010
7C10
0511
0511
0511
3DFF
2111
2010
41FF
7C01
4481
0442
042C
0410
046C
1B83
0000
ENDCHAR

STARTCHAR cns2_2653
ENCODING 9811
SWIDTH 854 0
DWIDTH 16 0
BBX 16 18 0 -2
BITMAP
0000
0044
7884
0884
0904
0904
3A7F
2304
2544
4124
7924
4904
0904
0904
0904
0904
310C
0000
ENDCHAR

STARTCHAR cns2_2654
ENCODING 9812
SWIDTH 854 0
DWIDTH 16 0
BBX 16 18 0 -2
BITMAP
0000
000E
79F0
0910
0910
0910
39FE
2110
2110
4110
7908
4928
0945
0982
0800
08FC
3000
0000
ENDCHAR

STARTCHAR cns2_2655
ENCODING 9813
SWIDTH 854 0
DWIDTH 16 0
BBX 16 18 0 -2
BITMAP
0000
0200
0200
07F0
0410
0FE0
0040
7FFF
0080
1084
0898
06E0
0090
0288
0484
3884
0300
0000
ENDCHAR

STARTCHAR cns2_2656
ENCODING 9814
SWIDTH 854 0
DWIDTH 16 0
BBX 16 18 0 -2
BITMAP
0000
0400
09FC
1104
2104
4504
0504
09FC
1104
1104
3104
51FC
1104
1104
1104
1104
17FF
0000
ENDCHAR

STARTCHAR cns2_2657
ENCODING 9815
SWIDTH 854 0
DWIDTH 16 0
BBX 16 18 0 -2
BITMAP
0000
0410
0828
1044
2282
0501
047E
0800
1800
68FE
0802
0804
0848
0830
0818
0808
0800
0000
ENDCHAR

STARTCHAR cns2_2658
ENCODING 9816
SWIDTH 854 0
DWIDTH 16 0
BBX 16 18 0 -2
BITMAP
0000
080E
11F0
2110
4510
0510
0910
09FE
1910
2910
4908
0908
0935
0BC5
0803
0BF9
0800
0000
ENDCHAR

STARTCHAR cns2_2659
ENCODING 9817
SWIDTH 854 0
DWIDTH 16 0
BBX 16 18 0 -2
BITMAP
0000
0100
0080
7FFF
0C0C
0330
00C0
0330
0C0C
7003
0000
2484
2442
4449
4409
07F8
0000
0000
ENDCHAR

STARTCHAR cns2_265A
ENCODING 9818
SWIDTH 854 0
DWIDTH 16 0
BBX 16 18 0 -2
BITMAP
0000
0400
0400
0FFE
0800
1000
2FF8
4000
0000
3FFC
0004
0204
2924
2894
2814
4845
07C2
0000
ENDCHAR

STARTCHAR cns2_265B
ENCODING 9819
SWIDTH 854 0
DWIDTH 16 0
BBX 16 18 0 -2
BITMAP
0000
1000
1030
1008
1000
5442
5442
5044
5144
1148
114A
1152
1261
1041
10C1
1142
167E
0000
ENDCHAR

STARTCHAR cns2_265C
ENCODING 9820
SWIDTH 854 0
DWIDTH 16 0
BBX 16 18 0 -2
BITMAP
0000
1000
11FC
1020
1820
5524
55AC
50A8
5020
1020
17FF
1020
1020
1020
1020
1020
1020
0000
ENDCHAR

STARTCHAR cns2_265D
ENCODING 9821
SWIDTH 854 0
DWIDTH 16 0
BBX 16 18 0 -2
BITMAP
0000
1020
1020
1020
1020
5BFF
5420
5020
5020
1020
13FE
1202
1202
1202
1202
13FE
1202
0000
ENDCHAR

STARTCHAR cns2_265E
ENCODING 9822
SWIDTH 854 0
DWIDTH 16 0
BBX 16 18 0 -2
BITMAP
0000
1000
11FF
1010
1010
5410
55FF
5111
5111
1129
1145
1183
1101
1101
1101
1101
1103
0000
ENDCHAR

STARTCHAR cns2_265F
ENCODING 9823
SWIDTH 854 0
DWIDTH 16 0
BBX 16 18 0 -2
BITMAP
0000
1000
10FE
1082
1082
58FE
5492
5090
5090
10FF
1090
1088
1088
10A4
10C4
1302
1001
0000
ENDCHAR

STARTCHAR cns2_2660
ENCODING 9824
SWIDTH 854 0
DWIDTH 16 0
BBX 16 18 0 -2
BITMAP
0000
100A
1009
1008
10FF
5888
5488
5088
5088
1089
1089
108A
108A
10C4
110D
1033
10C1
0000
ENDCHAR

STARTCHAR cns2_2661
ENCODING 9825
SWIDTH 854 0
DWIDTH 16 0
BBX 16 18 0 -2
BITMAP
0000
1000
11FE
1022
1022
5822
5442
5042
508C
1100
10FE
1082
1082
1082
1082
10FE
1082
0000
ENDCHAR

STARTCHAR cns2_2662
ENCODING 9826
SWIDTH 854 0
DWIDTH 16 0
BBX 16 18 0 -2
BITMAP
0000
0820
0820
0820
0820
2A3E
2A20
2820
2820
0820
09FE
0902
0902
0902
0902
09FE
0902
0000
ENDCHAR

STARTCHAR cns2_2663
ENCODING 9827
SWIDTH 854 0
DWIDTH 16 0
BBX 16 18 0 -2
BITMAP
0000
1000
11FC
1104
1104
5504
5504
5104
51FC
1050
1050
1090
1090
1110
1111
1211
1C1F
0000
ENDCHAR

STARTCHAR cns2_2664
ENCODING 9828
SWIDTH 854 0
DWIDTH 16 0
BBX 16 18 0 -2
BITMAP
0000
1000
10FC
1084
1084
5484
52FC
5084
5084
1084
10FC
1084
1084
1084
1084
13FF
1000
0000
ENDCHAR

STARTCHAR cns2_2665
ENCODING 9829
SWIDTH 854 0
DWIDTH 16 0
BBX 16 18 0 -2
BITMAP
0000
1010
1010
1010
1010
54FE
5292
5092
5092
1092
10FE
1092
1092
1092
1092
10FE
1082
0000
ENDCHAR

STARTCHAR cns2_2666
ENCODING 9830
SWIDTH 854 0
DWIDTH 16 0
BBX 16 18 0 -2
BITMAP
0000
1000
1000
10FE
10AA
54AA
54AA
52AA
50AA
50AA
10AE
10C2
1082
10FE
1082
1082
1000
0000
ENDCHAR

STARTCHAR cns2_2667
ENCODING 9831
SWIDTH 854 0
DWIDTH 16 0
BBX 16 18 0 -2
BITMAP
0000
1010
1010
1050
1050
58FE
5490
5110
5010
13FF
1010
1028
1028
1044
1044
1082
1301
0000
ENDCHAR

STARTCHAR cns2_2668
ENCODING 9832
SWIDTH 854 0
DWIDTH 16 0
BBX 16 18 0 -2
BITMAP
0000
1040
1040
1080
10FF
5520
5520
5220
503E
1020
1020
1020
103E
1020
1020
1020
1020
0000
ENDCHAR

STARTCHAR cns2_2669
ENCODING 9833
SWIDTH 854 0
DWIDTH 16 0
BBX 16 18 0 -2
BITMAP
0000
1080
1080
10FF
1101
5901
5A01
52F9
5489
1089
1089
1089
10F9
1089
1001
1002
100C
0000
ENDCHAR

STARTCHAR cns2_266A
ENCODING 9834
SWIDTH 854 0
DWIDTH 16 0
BBX 16 18 0 -2
BITMAP
0000
1048
1048
1048
109F
5489
5529
5229
5149
5089
1089
1149
12C9
1751
1011
1021
1046
0000
ENDCHAR

STARTCHAR cns2_266B
ENCODING 9835
SWIDTH 854 0
DWIDTH 16 0
BBX 16 18 0 -2
BITMAP
0000
1080
1080
10BE
13D2
5552
5552
5152
5152
5152
1252
1694
1188
1148
1254
1422
1041
0000
ENDCHAR

STARTCHAR cns2_266C
ENCODING 9836
SWIDTH 854 0
DWIDTH 16 0
BBX 16 18 0 -2
BITMAP
0000
1020
1020
1124
10A8
5870
5420
57FE
5020
1020
1020
17FF
1020
1020
1020
1020
1020
0000
ENDCHAR

STARTCHAR cns2_266D
ENCODING 9837
SWIDTH 854 0
DWIDTH 16 0
BBX 16 18 0 -2
BITMAP
0000
1000
11FF
1008
1010
5410
5420
5034
5052
1092
1111
1011
1010
1010
1010
1000
13FF
0000
ENDCHAR

STARTCHAR cns2_266E
ENCODING 9838
SWIDTH 854 0
DWIDTH 16 0
BBX 16 18 0 -2
BITMAP
0000
1080
1080
10FF
1101
5801
54F9
5089
5089
1089
10F9
1081
1082
108C
1080
1081
107F
0000
ENDCHAR

STARTCHAR cns2_266F
ENCODING 9839
SWIDTH 854 0
DWIDTH 16 0
BBX 16 18 0 -2
BITMAP
0000
1010
1028
1044
5882
5501
547E
5000
5000
10FE
1002
1004
1048
1030
1018
1008
1000
0000
ENDCHAR

STARTCHAR cns2_2670
ENCODING 9840
SWIDTH 854 0
DWIDTH 16 0
BBX 16 18 0 -2
BITMAP
0000
0200
0220
7FFE
0200
0130
00C0
0731
3A0F
0220
7FFE
0100
0170
0080
0360
3C19
0007
0000
ENDCHAR

STARTCHAR cns2_2671
ENCODING 9841
SWIDTH 854 0
DWIDTH 16 0
BBX 16 18 0 -2
BITMAP
0000
003C
1FC0
1000
1FFE
1002
1FFE
1008
1088
1048
1208
1108
100F
1078
2788
2008
4008
0000
ENDCHAR

STARTCHAR cns2_2672
ENCODING 9842
SWIDTH 854 0
DWIDTH 16 0
BBX 16 18 0 -2
BITMAP
0000
1020
1010
11FF
1101
7E01
1000
1048
1048
1648
3848
5048
1088
1088
1089
1109
720F
0000
ENDCHAR

STARTCHAR cns2_2673
ENCODING 9843
SWIDTH 854 0
DWIDTH 16 0
BBX 16 18 0 -2
BITMAP
0000
1094
1094
1094
7C94
1094
13FF
1094
1094
1C94
7094
109C
1094
1080
1080
10FE
3080
0000
ENDCHAR

STARTCHAR cns2_2674
ENCODING 9844
SWIDTH 854 0
DWIDTH 16 0
BBX 16 18 0 -2
BITMAP
0000
1084
1084
1084
7C84
13FF
1084
1084
1084
1C84
70FC
1084
1084
1084
1084
10FC
3084
0000
ENDCHAR

STARTCHAR cns2_2675
ENCODING 9845
SWIDTH 854 0
DWIDTH 16 0
BBX 16 18 0 -2
BITMAP
0000
1010
1010
1010
7CFE
1010
1010
1010
1010
1DFF
7020
1020
1048
1044
109E
11E1
3001
0000
ENDCHAR

STARTCHAR cns2_2676
ENCODING 9846
SWIDTH 854 0
DWIDTH 16 0
BBX 16 18 0 -2
BITMAP
0000
1008
1008
1010
7DFF
1028
1048
10FF
1149
1C49
7049
1049
1049
104B
1008
1008
3008
0000
ENDCHAR

STARTCHAR cns2_2677
ENCODING 9847
SWIDTH 854 0
DWIDTH 16 0
BBX 16 18 0 -2
BITMAP
0000
1010
1090
1090
7CFE
1110
1110
1010
19FF
7010
1028
1028
1024
1044
1082
1102
3201
0000
ENDCHAR

STARTCHAR cns2_2678
ENCODING 9848
SWIDTH 854 0
DWIDTH 16 0
BBX 16 18 0 -2
BITMAP
0000
1004
1084
1084
7884
1104
117F
1B04
3344
5524
1124
1104
1104
1104
1104
1104
311C
0000
ENDCHAR

STARTCHAR cns2_2679
ENCODING 9849
SWIDTH 854 0
DWIDTH 16 0
BBX 16 18 0 -2
BITMAP
0000
1020
1030
1048
7C84
1303
1010
1020
10C0
1C04
7008
1030
10C1
1002
100C
1030
11C0
0000
ENDCHAR

STARTCHAR cns2_267A
ENCODING 9850
SWIDTH 854 0
DWIDTH 16 0
BBX 16 18 0 -2
BITMAP
0000
11FF
1101
1101
7D01
11FF
1100
1540
1940
1140
317E
5140
1140
1140
1241
5241
327F
0000
ENDCHAR

STARTCHAR cns2_267B
ENCODING 9851
SWIDTH 854 0
DWIDTH 16 0
BBX 16 18 0 -2
BITMAP
0000
0800
08FE
0882
0882
7F82
0882
0AFE
0C82
0882
1882
28FE
4882
0882
0882
4BFF
3800
0000
ENDCHAR

STARTCHAR cns2_267C
ENCODING 9852
SWIDTH 854 0
DWIDTH 16 0
BBX 16 18 0 -2
BITMAP
0000
1010
1010
1010
11FE
7F12
1112
11FE
1512
1912
31FE
5010
1010
1010
1010
1010
7010
0000
ENDCHAR

STARTCHAR cns2_267D
ENCODING 9853
SWIDTH 854 0
DWIDTH 16 0
BBX 16 18 0 -2
BITMAP
0000
1010
1010
10FE
7C92
1092
1092
10FE
1092
1C92
7092
13FF
1082
1082
1082
109A
1084
0000
ENDCHAR

STARTCHAR cns2_267E
ENCODING 9854
SWIDTH 854 0
DWIDTH 16 0
BBX 16 18 0 -2
BITMAP
0000
1010
1010
1010
7CFE
1092
1092
1092
1092
1C92
71FF
1028
1028
1044
1044
1082
1101
0000
ENDCHAR

STARTCHAR cns2_2721
ENCODING 10017
SWIDTH 854 0
DWIDTH 16 0
BBX 16 18 0 -2
BITMAP
0000
1003
100C
10F8
7C08
1008
11FF
1002
1002
1C04
7008
1030
10C0
1100
1180
1270
120F
0000
ENDCHAR

STARTCHAR cns2_2722
ENCODING 10018
SWIDTH 854 0
DWIDTH 16 0
BBX 16 18 0 -2
BITMAP
0000
0010
0C10
1410
1220
223F
2162
40A2
3F22
0914
0914
0908
0908
1114
1114
2122
4241
0000
ENDCHAR

STARTCHAR cns2_2723
ENCODING 10019
SWIDTH 854 0
DWIDTH 16 0
BBX 16 18 0 -2
BITMAP
0000
0206
0278
1240
1240
1240
1E7F
0244
0244
1E44
1244
1244
1244
2244
2244
4284
0284
0000
ENDCHAR

STARTCHAR cns2_2724
ENCODING 10020
SWIDTH 854 0
DWIDTH 16 0
BBX 16 18 0 -2
BITMAP
0000
0840
0840
087F
7E80
1100
103C
1E24
1224
1224
1224
1224
2224
2224
2244
4245
0C86
0000
ENDCHAR

STARTCHAR cns2_2725
ENCODING 10021
SWIDTH 854 0
DWIDTH 16 0
BBX 16 18 0 -2
BITMAP
0000
0010
0010
7C10
4410
45FF
4420
4420
7C3E
4422
4442
4442
4482
7C82
4102
0204
0018
0000
ENDCHAR

STARTCHAR cns2_2726
ENCODING 10022
SWIDTH 854 0
DWIDTH 16 0
BBX 16 18 0 -2
BITMAP
0000
0010
0010
7C10
45FF
4402
4482
4482
7C44
4444
4428
4410
4410
7C28
4444
4082
0101
0000
ENDCHAR

STARTCHAR cns2_2727
ENCODING 10023
SWIDTH 854 0
DWIDTH 16 0
BBX 16 18 0 -2
BITMAP
0000
0000
007F
3E40
2240
2240
227F
2241
3E51
2251
224A
224A
2244
3E44
224A
2091
00A0
0000
ENDCHAR

STARTCHAR cns2_2728
ENCODING 10024
SWIDTH 854 0
DWIDTH 16 0
BBX 16 18 0 -2
BITMAP
0000
0040
0040
7880
48FF
4929
4929
4A49
7849
4891
4891
4911
4A21
7842
4882
0302
000C
0000
ENDCHAR

STARTCHAR cns2_2729
ENCODING 10025
SWIDTH 854 0
DWIDTH 16 0
BBX 16 18 0 -2
BITMAP
0000
0006
0038
79C0
4900
49FE
4902
7902
4902
49FE
4900
7900
4900
4100
0100
0200
0400
0000
ENDCHAR

STARTCHAR cns2_272A
ENCODING 10026
SWIDTH 854 0
DWIDTH 16 0
BBX 16 18 0 -2
BITMAP
0000
0000
1FFC
1004
1FFC
1004
1FFC
1004
0080
7FFF
0410
0220
0140
0080
0360
0C18
7007
0000
ENDCHAR

STARTCHAR cns2_272B
ENCODING 10027
SWIDTH 854 0
DWIDTH 16 0
BBX 16 18 0 -2
BITMAP
0000
0000
0FFE
0802
0FFE
0802
0FFE
0000
1FFF
1000
1040
1040
10A0
1090
2108
2204
4C03
0000
ENDCHAR

STARTCHAR cns2_272C
ENCODING 10028
SWIDTH 854 0
DWIDTH 16 0
BBX 16 18 0 -2
BITMAP
0000
00FC
1F80
0080
7FFF
00C0
0120
0210
0C0C
7003
1FFC
1004
1004
1FFC
1004
1004
1FFC
0000
ENDCHAR

STARTCHAR cns2_272D
ENCODING 10029
SWIDTH 854 0
DWIDTH 16 0
BBX 16 18 0 -2
BITMAP
0000
0000
0000
3F3F
2121
2121
2121
2121
3F3F
2121
2121
2121
2121
2121
3F3F
2121
0000
0000
ENDCHAR

STARTCHAR cns2_272E
ENCODING 10030
SWIDTH 854 0
DWIDTH 16 0
BBX 16 18 0 -2
BITMAP
0000
03F8
0088
0088
7C88
4488
44FE
4482
4482
7C82
44A4
4494
4488
7D14
0222
0441
0000
0000
ENDCHAR

STARTCHAR cns2_272F
ENCODING 10031
SWIDTH 854 0
DWIDTH 16 0
BBX 16 18 0 -2
BITMAP
0000
0010
0010
01FF
7C10
4410
4511
4511
7D11
4511
4511
45FF
7C10
0010
0011
0011
001F
0000
ENDCHAR

STARTCHAR cns2_2730
ENCODING 10032
SWIDTH 854 0
DWIDTH 16 0
BBX 16 18 0 -2
BITMAP
0000
0010
0028
7844
4882
4901
487C
4800
7800
49FE
4802
4802
4804
7804
4808
0010
0000
0000
ENDCHAR

STARTCHAR cns2_2731
ENCODING 10033
SWIDTH 854 0
DWIDTH 16 0
BBX 16 18 0 -2
BITMAP
0000
0000
0038
7848
4844
4884
4882
4901
7AFE
4822
4822
4822
4822
7842
4842
0082
010C
0000
ENDCHAR

STARTCHAR cns2_2732
ENCODING 10034
SWIDTH 854 0
DWIDTH 16 0
BBX 16 18 0 -2
BITMAP
0000
0400
0800
0FFE
1112
6222
0442
1882
033C
0000
1FFC
1004
1004
1FFC
1004
1004
1FFC
0000
ENDCHAR

STARTCHAR cns2_2733
ENCODING 10035
SWIDTH 854 0
DWIDTH 16 0
BBX 16 18 0 -2
BITMAP
0000
7C00
44FE
4400
4400
4400
7DFF
4448
4448
7C48
4448
4448
4448
4448
4449
4489
4D0F
0000
ENDCHAR

STARTCHAR cns2_2734
ENCODING 10036
SWIDTH 854 0
DWIDTH 16 0
BBX 16 18 0 -2
BITMAP
0000
1000
11FF
1044
1044
7C44
1044
3044
3BFF
5444
5044
5044
1084
1084
1104
1104
1204
0000
ENDCHAR

STARTCHAR cns2_2735
ENCODING 10037
SWIDTH 854 0
DWIDTH 16 0
BBX 16 18 0 -2
BITMAP
0000
0800
08FE
0800
0800
7E00
09FF
1808
1C48
2A48
2848
4848
4848
0888
0889
0909
0A0F
0000
ENDCHAR

STARTCHAR cns2_2736
ENCODING 10038
SWIDTH 854 0
DWIDTH 16 0
BBX 16 18 0 -2
BITMAP
0000
1020
1020
1020
11FE
7C20
1020
1020
33FF
3820
5420
5050
5048
1088
1084
1102
1201
0000
ENDCHAR

STARTCHAR cns2_2737
ENCODING 10039
SWIDTH 854 0
DWIDTH 16 0
BBX 16 18 0 -2
BITMAP
0000
0800
08FF
0804
0824
7E24
0824
0824
1CFF
2A0C
2814
4814
4824
0824
0844
0984
0818
0000
ENDCHAR

STARTCHAR cns2_2738
ENCODING 10040
SWIDTH 854 0
DWIDTH 16 0
BBX 16 18 0 -2
BITMAP
0000
0810
0810
08FE
0810
7E10
0892
1892
1C92
2A92
2892
48FE
4892
0810
0811
0811
081F
0000
ENDCHAR

STARTCHAR cns2_2739
ENCODING 10041
SWIDTH 854 0
DWIDTH 16 0
BBX 16 18 0 -2
BITMAP
0000
0800
08FC
0824
0824
7E24
0824
1824
1DFF
2C44
2A44
4844
4844
0844
0888
0888
0BFF
0000
ENDCHAR

STARTCHAR cns2_273A
ENCODING 10042
SWIDTH 854 0
DWIDTH 16 0
BBX 16 18 0 -2
BITMAP
0000
1000
10F0
1010
1010
7DFF
1111
1111
3129
3929
5545
5183
5101
1101
1101
1101
1103
0000
ENDCHAR

STARTCHAR cns2_273B
ENCODING 10043
SWIDTH 854 0
DWIDTH 16 0
BBX 16 18 0 -2
BITMAP
0000
1006
1018
10F0
1010
7C1E
10F0
1010
3010
381F
55F0
5010
5010
1010
1011
1011
100E
0000
ENDCHAR

STARTCHAR cns2_273C
ENCODING 10044
SWIDTH 854 0
DWIDTH 16 0
BBX 16 18 0 -2
BITMAP
0000
1020
1020
1040
1040
7CFF
1081
1121
3021
3821
5441
5049
50FD
1085
1001
1001
100E
0000
ENDCHAR

STARTCHAR cns2_273D
ENCODING 10045
SWIDTH 854 0
DWIDTH 16 0
BBX 16 18 0 -2
BITMAP
0000
0840
0840
0840
087F
7E81
0891
1912
1C10
2A10
2828
4828
4824
0844
0842
0882
0B01
0000
ENDCHAR

STARTCHAR cns2_273E
ENCODING 10046
SWIDTH 854 0
DWIDTH 16 0
BBX 16 18 0 -2
BITMAP
0000
1030
1048
1044
1082
7D01
10FE
1020
3020
3840
54FE
5002
5002
1004
1004
1008
1070
0000
ENDCHAR

STARTCHAR cns2_273F
ENCODING 10047
SWIDTH 854 0
DWIDTH 16 0
BBX 16 18 0 -2
BITMAP
0000
1010
1010
1048
1048
7C44
1084
3082
39FD
5624
5024
5024
1024
1044
1044
1084
1218
0000
ENDCHAR

STARTCHAR cns2_2740
ENCODING 10048
SWIDTH 854 0
DWIDTH 16 0
BBX 16 18 0 -2
BITMAP
0000
1020
1010
1008
1008
7C20
10A0
10A4
30A2
38A1
5521
5121
5220
1020
1022
1022
103C
0000
ENDCHAR

STARTCHAR cns2_2741
ENCODING 10049
SWIDTH 854 0
DWIDTH 16 0
BBX 16 18 0 -2
BITMAP
0000
0800
0800
087E
0800
7F00
0800
0CFF
1A10
2920
4820
0820
0840
0840
0884
09FE
0801
0000
ENDCHAR

STARTCHAR cns2_2742
ENCODING 10050
SWIDTH 854 0
DWIDTH 16 0
BBX 16 18 0 -2
BITMAP
0000
0800
09FF
0840
7E40
0840
0C7E
0A42
1942
2842
4842
087E
0842
0802
0802
08FF
0800
0000
ENDCHAR

STARTCHAR cns2_2743
ENCODING 10051
SWIDTH 854 0
DWIDTH 16 0
BBX 16 18 0 -2
BITMAP
0000
1000
11FF
1100
1100
7D3E
1122
1122
3122
3922
552E
5120
5120
1120
1221
1221
143F
0000
ENDCHAR

STARTCHAR cns2_2744
ENCODING 10052
SWIDTH 854 0
DWIDTH 16 0
BBX 16 18 0 -2
BITMAP
0000
0820
0840
0840
08FE
7F02
0902
0802
18FA
2C02
4A02
08FA
0802
0802
0802
083E
0800
0000
ENDCHAR

STARTCHAR cns2_2745
ENCODING 10053
SWIDTH 854 0
DWIDTH 16 0
BBX 16 18 0 -2
BITMAP
0000
0804
0808
0878
7F08
0808
0C7E
0A08
1908
2888
48FF
0808
0808
0808
0808
0878
0000
0000
ENDCHAR

STARTCHAR cns2_2746
ENCODING 10054
SWIDTH 854 0
DWIDTH 16 0
BBX 16 18 0 -2
BITMAP
0000
1000
11FC
1044
1044
7C48
1048
107E
3042
3842
54A2
5094
5094
1088
1108
1114
1263
0000
ENDCHAR

STARTCHAR cns2_2747
ENCODING 10055
SWIDTH 854 0
DWIDTH 16 0
BBX 16 18 0 -2
BITMAP
0000
1000
107C
1044
1044
7C44
1084
1087
3100
39FE
5402
5082
5044
1028
1010
106C
1382
0000
ENDCHAR

STARTCHAR cns2_2748
ENCODING 10056
SWIDTH 854 0
DWIDTH 16 0
BBX 16 18 0 -2
BITMAP
0000
1050
1050
1050
1090
7C90
1190
119F
3290
3890
5490
5090
5090
1090
1090
1091
109F
0000
ENDCHAR

STARTCHAR cns2_2749
ENCODING 10057
SWIDTH 854 0
DWIDTH 16 0
BBX 16 18 0 -2
BITMAP
0000
1010
1028
1044
1082
7D01
107C
1000
3000
39FE
5402
5002
5002
1004
1004
1008
1070
0000
ENDCHAR

STARTCHAR cns2_274A
ENCODING 10058
SWIDTH 854 0
DWIDTH 16 0
BBX 16 18 0 -2
BITMAP
0000
0040
0040
7C7F
4481
4491
4511
7C12
4414
4410
4410
7C28
4428
4444
0044
0082
0701
0000
ENDCHAR

STARTCHAR cns2_274B
ENCODING 10059
SWIDTH 854 0
DWIDTH 16 0
BBX 16 18 0 -2
BITMAP
0000
0000
7F0E
08F0
0810
1010
1E10
2210
25FF
5410
0828
0828
1044
1044
2082
4102
0601
0000
ENDCHAR

STARTCHAR cns2_274C
ENCODING 10060
SWIDTH 854 0
DWIDTH 16 0
BBX 16 18 0 -2
BITMAP
0000
0020
7E20
1040
107F
2095
3C95
2525
4425
6849
5849
0889
1111
1022
2042
2182
4004
0000
ENDCHAR

STARTCHAR cns2_274D
ENCODING 10061
SWIDTH 854 0
DWIDTH 16 0
BBX 16 18 0 -2
BITMAP
0000
1040
1044
1F78
1040
1040
1741
787F
0000
00F8
1F00
01FC
1F00
01FE
7F00
0101
01FF
0000
ENDCHAR

STARTCHAR cns2_274E
ENCODING 10062
SWIDTH 854 0
DWIDTH 16 0
BBX 16 18 0 -2
BITMAP
0000
0800
0FFE
1000
1FF8
2000
5FF8
0008
0208
1FE8
1228
1528
1524
18A5
1025
1022
0002
0000
ENDCHAR

STARTCHAR cns2_274F
ENCODING 10063
SWIDTH 854 0
DWIDTH 16 0
BBX 16 18 0 -2
BITMAP
0000
0080
0084
3E88
02D0
04A0
0890
1088
6186
0000
1FF8
1008
1008
1FF8
1008
1008
1FF8
0000
ENDCHAR

STARTCHAR cns2_2750
ENCODING 10064
SWIDTH 854 0
DWIDTH 16 0
BBX 16 18 0 -2
BITMAP
0000
2040
1020
0020
03FE
4202
2202
0212
0050
1050
1050
1088
2088
2084
2104
4102
4201
0000
ENDCHAR

STARTCHAR cns2_2751
ENCODING 10065
SWIDTH 854 0
DWIDTH 16 0
BBX 16 18 0 -2
BITMAP
0000
0020
3010
0808
03FF
6010
1020
0044
0884
0848
0830
1010
1022
2041
208F
43F1
2000
0000
ENDCHAR

STARTCHAR cns2_2752
ENCODING 10066
SWIDTH 854 0
DWIDTH 16 0
BBX 16 18 0 -2
BITMAP
0000
2020
1222
0222
0124
4124
2020
03FE
0020
1020
1020
17FF
2020
2020
2020
4020
4020
0000
ENDCHAR

STARTCHAR cns2_2753
ENCODING 10067
SWIDTH 854 0
DWIDTH 16 0
BBX 16 18 0 -2
BITMAP
0000
2000
13FE
0020
0020
4024
2224
0128
0128
17FF
1020
1020
2020
2020
2020
4020
4020
0000
ENDCHAR

STARTCHAR cns2_2754
ENCODING 10068
SWIDTH 854 0
DWIDTH 16 0
BBX 16 18 0 -2
BITMAP
0000
2000
1000
03FE
0000
4000
2000
07FF
0020
1020
10A8
10A4
2122
2122
2622
4020
4020
0000
ENDCHAR

STARTCHAR cns2_2755
ENCODING 10069
SWIDTH 854 0
DWIDTH 16 0
BBX 16 18 0 -2
BITMAP
0000
2084
1084
0084
0084
43FF
2084
0084
0084
1084
10FC
1084
2084
2084
2084
40FC
4084
0000
ENDCHAR

STARTCHAR cns2_2756
ENCODING 10070
SWIDTH 854 0
DWIDTH 16 0
BBX 16 18 0 -2
BITMAP
0000
202C
1022
0020
03FE
4020
20A8
00A8
00A8
10A8
10A8
1128
2128
2224
2423
4020
4020
0000
ENDCHAR

STARTCHAR cns2_2757
ENCODING 10071
SWIDTH 854 0
DWIDTH 16 0
BBX 16 18 0 -2
BITMAP
0000
200A
1009
0008
03FF
4210
2210
0210
0211
1211
1212
1212
228C
2309
2015
4063
4181
0000
ENDCHAR

STARTCHAR cns2_2758
ENCODING 10072
SWIDTH 854 0
DWIDTH 16 0
BBX 16 18 0 -2
BITMAP
0000
2040
1048
0044
0040
47FF
2040
0044
00A4
10A8
10A8
1110
2110
2228
2444
4182
4601
0000
ENDCHAR

STARTCHAR cns2_2759
ENCODING 10073
SWIDTH 854 0
DWIDTH 16 0
BBX 16 18 0 -2
BITMAP
0000
2008
1788
0488
0488
053F
4509
2509
0489
1489
1489
1489
2711
2411
2421
4421
4446
0000
ENDCHAR

STARTCHAR cns2_275A
ENCODING 10074
SWIDTH 854 0
DWIDTH 16 0
BBX 16 18 0 -2
BITMAP
0000
2000
13FF
0201
0201
0201
42FD
2285
0285
1285
1285
1285
22FD
2201
2201
4201
4207
0000
ENDCHAR

STARTCHAR cns2_275B
ENCODING 10075
SWIDTH 854 0
DWIDTH 16 0
BBX 16 18 0 -2
BITMAP
0000
2000
13FF
0221
0221
4221
2221
0221
03FF
0A21
0A21
0A21
1221
1221
1221
23FF
2201
0000
ENDCHAR

STARTCHAR cns2_275C
ENCODING 10076
SWIDTH 854 0
DWIDTH 16 0
BBX 16 18 0 -2
BITMAP
0000
1040
0040
0880
00FF
2101
1201
00F9
0089
0889
0889
08F9
1089
1001
1001
2002
200C
0000
ENDCHAR

STARTCHAR cns2_275D
ENCODING 10077
SWIDTH 854 0
DWIDTH 16 0
BBX 16 18 0 -2
BITMAP
0000
2020
1120
0120
03FE
4220
2420
0020
07FF
1020
1050
1050
2088
2088
2104
4202
4401
0000
ENDCHAR

STARTCHAR cns2_275E
ENCODING 10078
SWIDTH 854 0
DWIDTH 16 0
BBX 16 18 0 -2
BITMAP
0000
2084
1084
0104
0104
4204
22FF
0404
0604
0A44
0224
1224
2204
2204
2204
4204
421C
0000
ENDCHAR

STARTCHAR cns2_275F
ENCODING 10079
SWIDTH 854 0
DWIDTH 16 0
BBX 16 18 0 -2
BITMAP
0000
2020
1020
003C
03E0
4220
2220
0420
07FF
1021
1021
1061
20A1
2326
2C20
4020
4020
0000
ENDCHAR

STARTCHAR cns2_2760
ENCODING 10080
SWIDTH 854 0
DWIDTH 16 0
BBX 16 18 0 -2
BITMAP
0000
203C
13C8
0208
0208
4248
2248
0248
0248
1248
1248
1248
2444
2454
2872
4B89
5000
0000
ENDCHAR

STARTCHAR cns2_2761
ENCODING 10081
SWIDTH 854 0
DWIDTH 16 0
BBX 16 18 0 -2
BITMAP
0000
200E
13F0
0200
0200
4200
23FF
0210
0210
1210
121C
1212
2212
2410
2410
4810
4010
0000
ENDCHAR

STARTCHAR cns2_2762
ENCODING 10082
SWIDTH 854 0
DWIDTH 16 0
BBX 16 18 0 -2
BITMAP
0000
0020
2020
1050
0048
4084
2102
0611
0020
10C0
1308
1010
2060
2382
200C
4070
4780
0000
ENDCHAR

STARTCHAR cns2_2763
ENCODING 10083
SWIDTH 854 0
DWIDTH 16 0
BBX 16 18 0 -2
BITMAP
0000
0808
0808
0808
7F08
4909
4AFA
080C
0818
082C
144A
1589
2408
2428
2410
67FF
0000
0000
ENDCHAR

STARTCHAR cns2_2764
ENCODING 10084
SWIDTH 854 0
DWIDTH 16 0
BBX 16 18 0 -2
BITMAP
0000
0808
0808
0808
0909
6969
2A2A
2A2A
2C2C
2C2C
2A2A
2A2A
4A4A
4949
0909
0808
3030
0000
ENDCHAR

STARTCHAR cns2_2765
ENCODING 10085
SWIDTH 854 0
DWIDTH 16 0
BBX 16 18 0 -2
BITMAP
0000
047E
0402
0424
0418
748C
1500
167F
1508
1508
1508
1508
2508
45C8
0408
1C38
0000
0000
ENDCHAR

STARTCHAR cns2_2766
ENCODING 10086
SWIDTH 854 0
DWIDTH 16 0
BBX 16 18 0 -2
BITMAP
0000
4020
2020
17FF
0401
0401
0000
43FC
2010
1010
0010
0010
0410
0810
1010
21F0
4000
0000
ENDCHAR

STARTCHAR cns2_2767
ENCODING 10087
SWIDTH 854 0
DWIDTH 16 0
BBX 16 18 0 -2
BITMAP
0000
23FE
1002
0802
01FA
4002
2002
01F2
0112
1112
1112
11F2
2112
2002
2002
4002
401C
0000
ENDCHAR

STARTCHAR cns2_2768
ENCODING 10088
SWIDTH 854 0
DWIDTH 16 0
BBX 16 18 0 -2
BITMAP
0000
4000
21FF
1100
0100
0100
01FE
4102
2102
1102
0902
01FE
0100
0900
1100
21FF
4000
0000
ENDCHAR

STARTCHAR cns2_2769
ENCODING 10089
SWIDTH 854 0
DWIDTH 16 0
BBX 16 18 0 -2
BITMAP
0000
2020
1020
0020
0020
47FF
2020
0060
0070
10A8
1124
1222
2421
21FC
2020
4020
4020
0000
ENDCHAR

STARTCHAR cns2_276A
ENCODING 10090
SWIDTH 854 0
DWIDTH 16 0
BBX 16 18 0 -2
BITMAP
0000
2080
1080
0080
0080
47EF
2129
0129
0129
1129
1129
1129
2229
2229
2229
422F
44C9
0000
ENDCHAR

STARTCHAR cns2_276B
ENCODING 10091
SWIDTH 854 0
DWIDTH 16 0
BBX 16 18 0 -2
BITMAP
0000
1000
09FF
0010
0010
0010
2020
1020
0040
087F
08C1
0941
1241
1041
1041
207F
2041
0000
ENDCHAR

STARTCHAR cns2_276C
ENCODING 10092
SWIDTH 854 0
DWIDTH 16 0
BBX 16 18 0 -2
BITMAP
0000
0000
41FE
2102
1102
0102
0102
41FE
2102
1102
0902
0102
05FE
0800
1000
23FF
4000
0000
ENDCHAR

STARTCHAR cns2_276D
ENCODING 10093
SWIDTH 854 0
DWIDTH 16 0
BBX 16 18 0 -2
BITMAP
0000
2020
1020
0020
0222
4222
2222
0222
03FE
1020
1020
1421
2421
2421
2421
47FF
4000
0000
ENDCHAR

STARTCHAR cns2_276E
ENCODING 10094
SWIDTH 854 0
DWIDTH 16 0
BBX 16 18 0 -2
BITMAP
0000
2010
1110
0110
0110
41FF
2210
0210
0410
1010
10FE
1010
2010
2010
2010
4010
43FF
0000
ENDCHAR

STARTCHAR cns2_276F
ENCODING 10095
SWIDTH 854 0
DWIDTH 16 0
BBX 16 18 0 -2
BITMAP
0000
4084
2104
1104
0145
017F
0245
43C5
2045
1085
0905
0105
0245
0BF9
1011
203F
4040
0000
ENDCHAR

STARTCHAR cns2_2770
ENCODING 10096
SWIDTH 854 0
DWIDTH 16 0
BBX 16 18 0 -2
BITMAP
0000
1020
1020
1020
15FC
5424
5824
5024
5024
13FF
1020
1020
1850
2450
2088
4104
0203
0000
ENDCHAR

STARTCHAR cns2_2771
ENCODING 10097
SWIDTH 854 0
DWIDTH 16 0
BBX 16 18 0 -2
BITMAP
0000
080E
08F0
0880
0880
2A80
2A80
2AFF
4888
0888
0888
0888
1488
1288
2288
2108
4208
0000
ENDCHAR

STARTCHAR cns2_2772
ENCODING 10098
SWIDTH 854 0
DWIDTH 16 0
BBX 16 18 0 -2
BITMAP
0000
0000
1FFC
1004
1FFC
1004
1FFC
1004
0000
0080
0888
0888
1150
0140
0220
0C18
3007
0000
ENDCHAR

STARTCHAR cns2_2773
ENCODING 10099
SWIDTH 854 0
DWIDTH 16 0
BBX 16 18 0 -2
BITMAP
0000
1008
1008
1048
1428
5408
5888
5048
5008
1008
100F
1078
1988
2408
2008
4008
0008
0000
ENDCHAR

STARTCHAR cns2_2774
ENCODING 10100
SWIDTH 854 0
DWIDTH 16 0
BBX 16 18 0 -2
BITMAP
0000
1010
1010
1010
15FF
5402
5882
5082
5044
1044
1028
1010
1810
2428
2044
4082
0301
0000
ENDCHAR

STARTCHAR cns2_2775
ENCODING 10101
SWIDTH 854 0
DWIDTH 16 0
BBX 16 18 0 -2
BITMAP
0000
1000
10FC
1024
1424
5424
5824
5024
51FF
1048
1048
1048
1848
2448
2048
41FE
0000
0000
ENDCHAR

STARTCHAR cns2_2776
ENCODING 10102
SWIDTH 854 0
DWIDTH 16 0
BBX 16 18 0 -2
BITMAP
0000
0808
0808
0808
097F
2908
2A08
2A18
482C
084A
0889
0908
1408
1208
2208
2008
4008
0000
ENDCHAR

STARTCHAR cns2_2777
ENCODING 10103
SWIDTH 854 0
DWIDTH 16 0
BBX 16 18 0 -2
BITMAP
0000
1010
1016
10F8
1410
5410
5892
5092
5092
1092
1092
10FE
1892
2410
2011
4011
001F
0000
ENDCHAR

STARTCHAR cns2_2778
ENCODING 10104
SWIDTH 854 0
DWIDTH 16 0
BBX 16 18 0 -2
BITMAP
0000
1010
1028
1028
5244
5492
5892
5121
5020
1020
1040
1840
1440
1282
2182
40FF
0001
0000
ENDCHAR

STARTCHAR cns2_2779
ENCODING 10105
SWIDTH 854 0
DWIDTH 16 0
BBX 16 18 0 -2
BITMAP
0000
0020
0020
7820
4820
4922
4924
4928
7A20
4850
4850
4850
4888
7888
0104
0102
0601
0000
ENDCHAR

STARTCHAR cns2_277A
ENCODING 10106
SWIDTH 854 0
DWIDTH 16 0
BBX 16 18 0 -2
BITMAP
0000
0240
0420
0810
3FFC
4213
0210
0410
0860
0000
0080
088C
1150
0140
0220
0C18
3007
0000
ENDCHAR

STARTCHAR cns2_277B
ENCODING 10107
SWIDTH 854 0
DWIDTH 16 0
BBX 16 18 0 -2
BITMAP
0000
0408
1428
1428
1F3E
1428
2448
4488
0408
7F7F
0408
0408
0408
0408
0408
0408
0408
0000
ENDCHAR

STARTCHAR cns2_277C
ENCODING 10108
SWIDTH 854 0
DWIDTH 16 0
BBX 16 18 0 -2
BITMAP
0000
4440
2820
1020
2BFF
4A01
0A01
0800
1850
2848
4848
0888
0884
0904
0904
1202
6001
0000
ENDCHAR

STARTCHAR cns2_277D
ENCODING 10109
SWIDTH 854 0
DWIDTH 16 0
BBX 16 18 0 -2
BITMAP
0000
4400
2800
10FE
3000
5000
0800
0BFF
1810
1810
2854
4852
0892
0891
0911
1010
6010
0000
ENDCHAR

STARTCHAR cns2_277E
ENCODING 10110
SWIDTH 854 0
DWIDTH 16 0
BBX 16 18 0 -2
BITMAP
0000
040A
4409
2808
11FF
3108
5108
0909
1909
190A
290A
490A
0904
0905
090D
09D3
3621
0000
ENDCHAR

STARTCHAR cns2_2821
ENCODING 10273
SWIDTH 854 0
DWIDTH 16 0
BBX 16 18 0 -2
BITMAP
0000
4400
2BFF
1010
2810
4820
0420
0440
0468
0CA4
14A2
2521
4621
0420
0820
1020
63FF
0000
ENDCHAR

STARTCHAR cns2_2822
ENCODING 10274
SWIDTH 854 0
DWIDTH 16 0
BBX 16 18 0 -2
BITMAP
0000
4410
2810
1010
3010
53FF
0810
0810
1810
1810
28FE
4882
0882
0882
0882
10FE
3082
0000
ENDCHAR

STARTCHAR cns2_2823
ENCODING 10275
SWIDTH 854 0
DWIDTH 16 0
BBX 16 18 0 -2
BITMAP
0000
4448
2848
1048
31FE
504A
084A
09FE
194A
1A48
2BFF
4A49
0849
0889
088E
1108
3208
0000
ENDCHAR

STARTCHAR cns2_2824
ENCODING 10276
SWIDTH 854 0
DWIDTH 16 0
BBX 16 18 0 -2
BITMAP
0000
44FE
2882
1082
3082
50FE
0880
08A0
18A0
18A0
28BE
48A0
0920
0921
0A21
121F
3000
0000
ENDCHAR

STARTCHAR cns2_2825
ENCODING 10277
SWIDTH 854 0
DWIDTH 16 0
BBX 16 18 0 -2
BITMAP
0000
4400
28FC
1084
3084
5084
08FC
0884
1884
1884
2884
48FC
0884
0800
0800
13FF
3000
0000
ENDCHAR

STARTCHAR cns2_2826
ENCODING 10278
SWIDTH 854 0
DWIDTH 16 0
BBX 16 18 0 -2
BITMAP
0000
4410
2890
1090
3090
51FE
0910
0A10
1810
1810
29FE
4810
0810
0810
0810
13FF
3000
0000
ENDCHAR

STARTCHAR cns2_2827
ENCODING 10279
SWIDTH 854 0
DWIDTH 16 0
BBX 16 18 0 -2
BITMAP
0000
4420
2850
1088
3104
5AFB
0800
0800
19FE
1802
2804
4808
0850
0820
0818
1008
3000
0000
ENDCHAR

STARTCHAR cns2_2828
ENCODING 10280
SWIDTH 854 0
DWIDTH 16 0
BBX 16 18 0 -2
BITMAP
0000
0008
7E08
080F
08F8
0808
0808
7E08
080F
08F8
0808
0808
0E08
19FF
6008
0008
0008
0000
ENDCHAR

STARTCHAR cns2_2829
ENCODING 10281
SWIDTH 854 0
DWIDTH 16 0
BBX 16 18 0 -2
BITMAP
0000
01FE
0048
7C48
1048
1088
1088
11FF
7C08
1018
1018
1028
1048
1C88
6308
0008
0030
0000
ENDCHAR

STARTCHAR cns2_282A
ENCODING 10282
SWIDTH 854 0
DWIDTH 16 0
BBX 16 18 0 -2
BITMAP
0000
0108
0108
7D08
1108
1108
1109
11EE
7D08
1108
1108
1108
1108
1D08
61E8
0309
000F
0000
ENDCHAR

STARTCHAR cns2_282B
ENCODING 10283
SWIDTH 854 0
DWIDTH 16 0
BBX 16 18 0 -2
BITMAP
0000
0020
7E20
0820
08FE
0822
0822
0822
7E22
09FF
0820
0850
0850
0E88
7084
0102
0601
0000
ENDCHAR

STARTCHAR cns2_282C
ENCODING 10284
SWIDTH 854 0
DWIDTH 16 0
BBX 16 18 0 -2
BITMAP
0000
0000
7C38
1008
1088
1084
1104
1202
7DFD
1044
1044
1044
1084
1C84
6108
0208
0430
0000
ENDCHAR

STARTCHAR cns2_282D
ENCODING 10285
SWIDTH 854 0
DWIDTH 16 0
BBX 16 18 0 -2
BITMAP
0000
0010
7E10
0828
0828
0844
0844
0882
7EA5
0924
0824
0844
0844
0E44
7084
0104
0604
0000
ENDCHAR

STARTCHAR cns2_282E
ENCODING 10286
SWIDTH 854 0
DWIDTH 16 0
BBX 16 18 0 -2
BITMAP
0000
0000
3E7E
0842
0842
0852
084A
3E4A
0842
09FF
0842
0842
0E42
7842
0042
0082
010C
0000
ENDCHAR

STARTCHAR cns2_282F
ENCODING 10287
SWIDTH 854 0
DWIDTH 16 0
BBX 16 18 0 -2
BITMAP
0000
0000
7E40
1040
107E
1090
1110
1210
7E10
11FF
1010
1010
1010
1010
7E10
0010
0010
0000
ENDCHAR

STARTCHAR cns2_2830
ENCODING 10288
SWIDTH 854 0
DWIDTH 16 0
BBX 16 18 0 -2
BITMAP
0000
0720
3A20
227E
2A42
2A42
2A82
2A32
2A0A
2A0A
2902
2902
2882
2A4C
4920
4F18
3087
0000
ENDCHAR

STARTCHAR cns2_2831
ENCODING 10289
SWIDTH 854 0
DWIDTH 16 0
BBX 16 18 0 -2
BITMAP
0000
0000
01FF
3E20
0820
0820
083C
0824
0824
0824
0834
082C
0F44
7844
005D
0065
0087
0000
ENDCHAR

STARTCHAR cns2_2832
ENCODING 10290
SWIDTH 854 0
DWIDTH 16 0
BBX 16 18 0 -2
BITMAP
0000
0008
0008
0008
7F7F
4920
4920
4920
4920
7F20
4920
4920
4920
4920
7F20
0020
001F
0000
ENDCHAR

STARTCHAR cns2_2833
ENCODING 10291
SWIDTH 854 0
DWIDTH 16 0
BBX 16 18 0 -2
BITMAP
0000
0000
1FFC
1084
1084
1FFC
1084
1084
1FFC
0000
0000
7FFF
0408
0408
0808
1008
2008
0000
ENDCHAR

STARTCHAR cns2_2834
ENCODING 10292
SWIDTH 854 0
DWIDTH 16 0
BBX 16 18 0 -2
BITMAP
0000
0211
0442
0884
1108
0884
0442
0221
0000
1FFF
1041
1041
1FFF
1041
1041
1FFF
1001
0000
ENDCHAR

STARTCHAR cns2_2835
ENCODING 10293
SWIDTH 854 0
DWIDTH 16 0
BBX 16 18 0 -2
BITMAP
0000
0080
0080
7FFF
0080
1FFC
0084
7FFF
0084
1FFC
0080
0880
08FE
0880
1880
6680
01FE
0000
ENDCHAR

STARTCHAR cns2_2836
ENCODING 10294
SWIDTH 854 0
DWIDTH 16 0
BBX 16 18 0 -2
BITMAP
0000
0040
0040
1FFF
5000
5000
3000
17FC
1040
3040
5040
1040
1040
2040
2040
5FFF
0000
0000
ENDCHAR

STARTCHAR cns2_2837
ENCODING 10295
SWIDTH 854 0
DWIDTH 16 0
BBX 16 18 0 -2
BITMAP
0000
0400
0400
3FBE
2488
2508
2408
2408
3F7F
2908
2A08
2A08
2408
2408
2A08
5108
4008
0000
ENDCHAR

STARTCHAR cns2_2838
ENCODING 10296
SWIDTH 854 0
DWIDTH 16 0
BBX 16 18 0 -2
BITMAP
0000
0000
7C10
4408
4408
45FF
7C40
4440
4440
4440
7C40
4440
4440
4440
7C40
443F
0000
0000
ENDCHAR

STARTCHAR cns2_2839
ENCODING 10297
SWIDTH 854 0
DWIDTH 16 0
BBX 16 18 0 -2
BITMAP
0000
0000
7DFE
4410
4410
4410
7C10
4410
45FF
4410
7C10
4410
4410
4410
7C10
4410
0070
0000
ENDCHAR

STARTCHAR cns2_283A
ENCODING 10298
SWIDTH 854 0
DWIDTH 16 0
BBX 16 18 0 -2
BITMAP
0000
0000
7CFE
4410
4410
4410
7C10
4410
45FF
4410
7C10
4410
4410
4410
7C10
4410
0010
0000
ENDCHAR

STARTCHAR cns2_283B
ENCODING 10299
SWIDTH 854 0
DWIDTH 16 0
BBX 16 18 0 -2
BITMAP
0000
0040
3C40
2440
24FF
2480
3D00
2400
24FC
2408
3C10
2420
2440
2442
3C81
2481
007E
0000
ENDCHAR

STARTCHAR cns2_283C
ENCODING 10300
SWIDTH 854 0
DWIDTH 16 0
BBX 16 18 0 -2
BITMAP
0000
0000
7E00
11FE
1010
1010
2010
3C10
65FF
6410
2410
2410
2410
2410
3C10
2010
0010
0000
ENDCHAR

STARTCHAR cns2_283D
ENCODING 10301
SWIDTH 854 0
DWIDTH 16 0
BBX 16 18 0 -2
BITMAP
0000
0000
7E00
11FE
1020
1020
2020
3C20
6420
6420
2420
2420
2420
2420
3C20
23FF
0000
0000
ENDCHAR

STARTCHAR cns2_283E
ENCODING 10302
SWIDTH 854 0
DWIDTH 16 0
BBX 16 18 0 -2
BITMAP
0000
0000
7E00
10FF
1028
1028
2028
2028
3C28
2428
6428
2428
2428
2448
3C49
2489
010F
0000
ENDCHAR

STARTCHAR cns2_283F
ENCODING 10303
SWIDTH 854 0
DWIDTH 16 0
BBX 16 18 0 -2
BITMAP
0000
0040
7E40
1080
10FF
1100
2100
3C00
64FC
6408
2410
2420
2440
2481
3D01
2101
00FE
0000
ENDCHAR

STARTCHAR cns2_2840
ENCODING 10304
SWIDTH 854 0
DWIDTH 16 0
BBX 16 18 0 -2
BITMAP
0000
0006
7E78
1010
1010
1010
2010
3C10
6417
64F8
2410
2410
2410
2410
3C11
2011
000F
0000
ENDCHAR

STARTCHAR cns2_2841
ENCODING 10305
SWIDTH 854 0
DWIDTH 16 0
BBX 16 18 0 -2
BITMAP
0000
0000
7EFE
1002
1004
1008
2008
3C08
6408
65FF
2408
2408
2408
2408
3C08
2008
0030
0000
ENDCHAR

STARTCHAR cns2_2842
ENCODING 10306
SWIDTH 854 0
DWIDTH 16 0
BBX 16 18 0 -2
BITMAP
0000
2008
1048
1048
7C48
044B
047D
09C9
1049
3849
544A
1048
1048
1040
1041
107F
1000
0000
ENDCHAR

STARTCHAR cns2_2843
ENCODING 10307
SWIDTH 854 0
DWIDTH 16 0
BBX 16 18 0 -2
BITMAP
0000
0840
0840
7E40
02FF
0281
0301
0401
0841
1C21
2A11
4811
0801
0801
0801
0802
081C
0000
ENDCHAR

STARTCHAR cns2_2844
ENCODING 10308
SWIDTH 854 0
DWIDTH 16 0
BBX 16 18 0 -2
BITMAP
0000
0306
7CF8
0810
0810
0810
7F10
0810
1817
1CF8
2A10
2910
4810
0810
0811
0811
080F
0000
ENDCHAR

STARTCHAR cns2_2845
ENCODING 10309
SWIDTH 854 0
DWIDTH 16 0
BBX 16 18 0 -2
BITMAP
0000
0080
0080
7FFF
4221
4221
0420
0922
313E
0200
03FC
0404
0E04
1108
00B0
00C0
3F00
0000
ENDCHAR

STARTCHAR cns2_2846
ENCODING 10310
SWIDTH 854 0
DWIDTH 16 0
BBX 16 18 0 -2
BITMAP
0000
0080
0080
7FFF
4221
4421
183E
0000
0FFC
0080
0080
0080
7FFF
0080
0080
0080
0180
0000
ENDCHAR

STARTCHAR cns2_2847
ENCODING 10311
SWIDTH 854 0
DWIDTH 16 0
BBX 16 18 0 -2
BITMAP
0000
0808
1010
3F3F
4444
0404
0100
0100
3FFC
0104
0204
0204
0404
0404
0824
101C
0000
0000
ENDCHAR

STARTCHAR cns2_2848
ENCODING 10312
SWIDTH 854 0
DWIDTH 16 0
BBX 16 18 0 -2
BITMAP
0000
0808
0808
4908
2908
2A08
0808
7F7F
0808
1808
1C08
2A08
2908
4808
0808
0808
0808
0000
ENDCHAR

STARTCHAR cns2_2849
ENCODING 10313
SWIDTH 854 0
DWIDTH 16 0
BBX 16 18 0 -2
BITMAP
0000
04FF
0808
1008
1008
6208
4208
3C08
0808
1008
2208
7F08
0088
5408
5408
5478
0000
0000
ENDCHAR

STARTCHAR cns2_284A
ENCODING 10314
SWIDTH 854 0
DWIDTH 16 0
BBX 16 18 0 -2
BITMAP
0000
0000
7F00
247F
2408
2408
3C08
2408
2408
3C08
2408
2408
2C08
3408
4408
0408
0430
0000
ENDCHAR

STARTCHAR cns2_284B
ENCODING 10315
SWIDTH 854 0
DWIDTH 16 0
BBX 16 18 0 -2
BITMAP
0000
07C0
0240
0420
1818
6107
0100
7FFE
4182
4262
449A
5882
4142
4222
4C1A
4002
400C
0000
ENDCHAR

STARTCHAR cns2_284C
ENCODING 10316
SWIDTH 854 0
DWIDTH 16 0
BBX 16 18 0 -2
BITMAP
0000
0010
3C08
2408
25FF
2400
3C00
243C
2424
2424
3C24
2424
2424
2444
2445
4485
4D07
0000
ENDCHAR

STARTCHAR cns2_284D
ENCODING 10317
SWIDTH 854 0
DWIDTH 16 0
BBX 16 18 0 -2
BITMAP
0000
0010
3C28
2444
2482
2501
3C7C
2400
2400
25FE
3C02
2402
2404
2404
2408
4410
4C00
0000
ENDCHAR

STARTCHAR cns2_284E
ENCODING 10318
SWIDTH 854 0
DWIDTH 16 0
BBX 16 18 0 -2
BITMAP
0000
003C
3C04
2442
2482
2501
3C00
2410
2410
2410
3DFF
2410
2410
2410
2410
4410
4C10
0000
ENDCHAR

STARTCHAR cns2_284F
ENCODING 10319
SWIDTH 854 0
DWIDTH 16 0
BBX 16 18 0 -2
BITMAP
0000
0006
3C78
2440
2440
2440
3C7F
2444
2444
2444
3C44
2444
2444
2444
2484
4484
4D04
0000
ENDCHAR

STARTCHAR cns2_2850
ENCODING 10320
SWIDTH 854 0
DWIDTH 16 0
BBX 16 18 0 -2
BITMAP
0000
0008
3C08
2408
24FF
2489
3C89
2489
2495
2495
3CA3
24C1
2481
2481
2481
4481
4C86
0000
ENDCHAR

STARTCHAR cns2_2851
ENCODING 10321
SWIDTH 854 0
DWIDTH 16 0
BBX 16 18 0 -2
BITMAP
0000
0400
0800
3EFE
2212
2A12
2A12
2A12
2212
7F12
2212
2A22
2A22
2A22
2242
2282
440C
0000
ENDCHAR

STARTCHAR cns2_2852
ENCODING 10322
SWIDTH 854 0
DWIDTH 16 0
BBX 16 18 0 -2
BITMAP
0000
0808
0808
7F7F
0808
0808
0080
0040
7FFF
0408
0410
0220
0140
0080
0360
0C18
7007
0000
ENDCHAR

STARTCHAR cns2_2853
ENCODING 10323
SWIDTH 854 0
DWIDTH 16 0
BBX 16 18 0 -2
BITMAP
0000
0808
0808
7F7F
0808
0808
0100
0080
7FFF
0000
07F0
0410
0410
0410
0811
1011
601F
0000
ENDCHAR

STARTCHAR cns2_2854
ENCODING 10324
SWIDTH 854 0
DWIDTH 16 0
BBX 16 18 0 -2
BITMAP
0000
0220
0220
7FFF
0220
0000
1FFC
0000
0000
7FFF
0220
0220
0220
0420
0421
0821
703F
0000
ENDCHAR

STARTCHAR cns2_2855
ENCODING 10325
SWIDTH 854 0
DWIDTH 16 0
BBX 16 18 0 -2
BITMAP
0000
0808
0808
7F7F
0808
0808
0080
0080
7FFF
0080
1084
1084
1FFC
0080
0081
0081
007F
0000
ENDCHAR

STARTCHAR cns2_2856
ENCODING 10326
SWIDTH 854 0
DWIDTH 16 0
BBX 16 18 0 -2
BITMAP
0000
0808
0808
7F7F
0808
0808
0000
2020
2020
2020
3E3E
2020
2020
2020
2421
2821
303F
0000
ENDCHAR

STARTCHAR cns2_2857
ENCODING 10327
SWIDTH 854 0
DWIDTH 16 0
BBX 16 18 0 -2
BITMAP
0000
0808
0808
7F7F
0808
0000
1FFC
0104
0104
7FFF
0104
0104
1FFC
0200
0200
0400
1800
0000
ENDCHAR

STARTCHAR cns2_2858
ENCODING 10328
SWIDTH 854 0
DWIDTH 16 0
BBX 16 18 0 -2
BITMAP
0000
0808
0808
7F7F
0808
0080
0080
1FFE
0082
0082
7FFF
0140
0220
0410
0808
1004
6003
0000
ENDCHAR

STARTCHAR cns2_2859
ENCODING 10329
SWIDTH 854 0
DWIDTH 16 0
BBX 16 18 0 -2
BITMAP
0000
0410
7FFF
0410
0000
1FFE
0008
0190
0060
0010
7FFF
0041
0042
0044
0040
0040
01C0
0000
ENDCHAR

STARTCHAR cns2_285A
ENCODING 10330
SWIDTH 854 0
DWIDTH 16 0
BBX 16 18 0 -2
BITMAP
0000
0410
0410
7FFF
0410
0100
0100
3FFE
2102
2102
2282
2442
2822
3012
2002
2002
2006
0000
ENDCHAR

STARTCHAR cns2_285B
ENCODING 10331
SWIDTH 854 0
DWIDTH 16 0
BBX 16 18 0 -2
BITMAP
0000
0410
0410
7FFF
0410
0000
0038
3FC0
0100
011C
1FE0
0100
011F
7FE0
0100
0101
01FF
0000
ENDCHAR

STARTCHAR cns2_285C
ENCODING 10332
SWIDTH 854 0
DWIDTH 16 0
BBX 16 18 0 -2
BITMAP
0000
0808
0808
7F7F
0808
0000
0800
0FFE
1000
2FF8
0000
3FF8
0008
0009
0009
0005
0002
0000
ENDCHAR

STARTCHAR cns2_285D
ENCODING 10333
SWIDTH 854 0
DWIDTH 16 0
BBX 16 18 0 -2
BITMAP
0000
0808
0808
7F7F
0808
0808
0000
003C
03C0
3C80
0080
7FFF
0080
0140
0220
0C18
7007
0000
ENDCHAR

STARTCHAR cns2_285E
ENCODING 10334
SWIDTH 854 0
DWIDTH 16 0
BBX 16 18 0 -2
BITMAP
0000
0808
0808
7F7F
0808
0808
0000
0400
0400
0FFE
0892
1092
2122
0222
0444
1984
0018
0000
ENDCHAR

STARTCHAR cns2_285F
ENCODING 10335
SWIDTH 854 0
DWIDTH 16 0
BBX 16 18 0 -2
BITMAP
0000
0410
0410
7FFF
0410
0000
1FF0
0410
0410
07FC
0504
0504
0888
0850
1020
20D8
0707
0000
ENDCHAR

STARTCHAR cns2_2860
ENCODING 10336
SWIDTH 854 0
DWIDTH 16 0
BBX 16 18 0 -2
BITMAP
0000
0410
0410
7FFF
0410
0000
0400
0800
0FFF
1082
2084
4088
0140
0120
0210
0C08
7007
0000
ENDCHAR

STARTCHAR cns2_2861
ENCODING 10337
SWIDTH 854 0
DWIDTH 16 0
BBX 16 18 0 -2
BITMAP
0000
0410
0410
7FFF
0410
0080
0140
0220
0410
0BEC
1003
6000
0FF8
0008
0008
0010
0010
0000
ENDCHAR

STARTCHAR cns2_2862
ENCODING 10338
SWIDTH 854 0
DWIDTH 16 0
BBX 16 18 0 -2
BITMAP
0000
0808
0808
7F7F
0808
0808
0000
0080
0080
0884
0888
0890
1080
0140
0220
0C18
7007
0000
ENDCHAR

STARTCHAR cns2_2863
ENCODING 10339
SWIDTH 854 0
DWIDTH 16 0
BBX 16 18 0 -2
BITMAP
0000
0410
0410
7FFF
0410
0000
3FA0
0120
0220
0420
07A0
3C20
0420
0420
0420
0421
0C3F
0000
ENDCHAR

STARTCHAR cns2_2864
ENCODING 10340
SWIDTH 854 0
DWIDTH 16 0
BBX 16 18 0 -2
BITMAP
0000
0808
7F7F
0808
0100
0100
7FFE
0200
0200
07FE
0504
0888
0850
1020
1050
2088
4306
0000
ENDCHAR

STARTCHAR cns2_2865
ENCODING 10341
SWIDTH 854 0
DWIDTH 16 0
BBX 16 18 0 -2
BITMAP
0000
0808
0808
7F7E
0808
0800
0800
1FFE
1102
6102
0202
0222
0472
1F92
0002
0004
0038
0000
ENDCHAR

STARTCHAR cns2_2866
ENCODING 10342
SWIDTH 854 0
DWIDTH 16 0
BBX 16 18 0 -2
BITMAP
0000
0808
0808
7F7F
0808
0000
0400
0800
11FC
1000
3000
5000
1000
1000
13FF
1000
1000
0000
ENDCHAR

STARTCHAR cns2_2867
ENCODING 10343
SWIDTH 854 0
DWIDTH 16 0
BBX 16 18 0 -2
BITMAP
0000
0800
08FF
0808
3E08
2A08
2A08
2A08
2A08
3E08
2A08
0808
0A08
0908
0F08
7908
0030
0000
ENDCHAR

STARTCHAR cns2_2868
ENCODING 10344
SWIDTH 854 0
DWIDTH 16 0
BBX 16 18 0 -2
BITMAP
0000
0804
0804
0844
7F44
4944
4944
4944
4944
7F44
4844
0847
0A7C
09C4
0F04
7104
0004
0000
ENDCHAR

STARTCHAR cns2_2869
ENCODING 10345
SWIDTH 854 0
DWIDTH 16 0
BBX 16 18 0 -2
BITMAP
0000
0800
0800
087F
7E11
4A11
4A11
4A11
4A11
7E11
4821
0821
0821
0A41
0E41
7081
010E
0000
ENDCHAR

STARTCHAR cns2_286A
ENCODING 10346
SWIDTH 854 0
DWIDTH 16 0
BBX 16 18 0 -2
BITMAP
0000
1000
103C
1024
1024
7C24
5424
5424
5424
7C24
5424
5024
1044
1444
1C45
6485
0307
0000
ENDCHAR

STARTCHAR cns2_286B
ENCODING 10347
SWIDTH 854 0
DWIDTH 16 0
BBX 16 18 0 -2
BITMAP
0000
7FFE
0100
02C0
0442
0964
72A8
2490
18B0
1850
6550
0250
0548
0846
3040
0240
0180
0000
ENDCHAR

STARTCHAR cns2_286C
ENCODING 10348
SWIDTH 854 0
DWIDTH 16 0
BBX 16 18 0 -2
BITMAP
0000
6040
1020
13FE
0000
0000
78F8
0888
1088
7888
0888
088A
090A
1109
120F
2C00
43FE
0000
ENDCHAR

STARTCHAR cns2_286D
ENCODING 10349
SWIDTH 854 0
DWIDTH 16 0
BBX 16 18 0 -2
BITMAP
0000
201C
10F0
0010
7810
0810
11FE
2010
7810
0810
0810
4810
2BFF
1000
1000
2000
47FF
0000
ENDCHAR

STARTCHAR cns2_286E
ENCODING 10350
SWIDTH 854 0
DWIDTH 16 0
BBX 16 18 0 -2
BITMAP
0000
2000
107F
1044
0044
7C44
0444
0884
10FF
7C0C
0414
0424
0844
0984
1808
2600
41FF
0000
ENDCHAR

STARTCHAR cns2_286F
ENCODING 10351
SWIDTH 854 0
DWIDTH 16 0
BBX 16 18 0 -2
BITMAP
0000
0020
202E
13F0
1020
7820
0924
1124
2124
79FC
0820
0822
0821
103E
1800
2600
41FF
0000
ENDCHAR

STARTCHAR cns2_2870
ENCODING 10352
SWIDTH 854 0
DWIDTH 16 0
BBX 16 18 0 -2
BITMAP
0000
6020
1024
1022
0022
07FF
7820
0820
1050
2050
7888
0888
0904
1202
1000
2C00
43FE
0000
ENDCHAR

STARTCHAR cns2_2871
ENCODING 10353
SWIDTH 854 0
DWIDTH 16 0
BBX 16 18 0 -2
BITMAP
0000
0080
3080
1100
09FE
0210
7C10
0810
1010
23FF
7C10
0410
0810
1010
1010
3C10
47FF
0000
ENDCHAR

STARTCHAR cns2_2872
ENCODING 10354
SWIDTH 854 0
DWIDTH 16 0
BBX 16 18 0 -2
BITMAP
0000
0004
2018
21E0
1020
0020
7C20
05FF
0820
0850
3048
2084
1102
0A01
0C00
1200
61FF
0000
ENDCHAR

STARTCHAR cns2_2873
ENCODING 10355
SWIDTH 854 0
DWIDTH 16 0
BBX 16 18 0 -2
BITMAP
0000
1000
081F
0491
0091
1091
1112
1114
1212
5291
5451
5451
1811
1016
3050
5050
1FD0
0000
ENDCHAR

STARTCHAR cns2_2874
ENCODING 10356
SWIDTH 854 0
DWIDTH 16 0
BBX 16 18 0 -2
BITMAP
0000
0000
7FDF
0411
0411
0411
7FD2
4454
4452
4A51
4A51
5151
60D1
4056
4050
4050
41D0
0000
ENDCHAR

STARTCHAR cns2_2875
ENCODING 10357
SWIDTH 854 0
DWIDTH 16 0
BBX 16 18 0 -2
BITMAP
0000
1100
113F
1121
7FA2
1122
1124
1128
1124
1F22
1121
1121
1121
1121
1F26
1120
0020
0000
ENDCHAR

STARTCHAR cns2_2876
ENCODING 10358
SWIDTH 854 0
DWIDTH 16 0
BBX 16 18 0 -2
BITMAP
0000
0000
7FDF
0211
0411
0411
0812
0D14
1492
2491
4451
0451
0411
0416
0790
7810
0010
0000
ENDCHAR

STARTCHAR cns2_2877
ENCODING 10359
SWIDTH 854 0
DWIDTH 16 0
BBX 16 18 0 -2
BITMAP
0000
0400
041F
0811
0911
1091
1352
7C54
0012
0011
3F91
2091
2091
2096
2090
3F90
2090
0000
ENDCHAR

STARTCHAR cns2_2878
ENCODING 10360
SWIDTH 854 0
DWIDTH 16 0
BBX 16 18 0 -2
BITMAP
0000
0010
7C10
4410
44FE
4810
5010
4810
45FF
4410
4420
4424
5842
409F
43E1
4082
4000
0000
ENDCHAR

STARTCHAR cns2_2879
ENCODING 10361
SWIDTH 854 0
DWIDTH 16 0
BBX 16 18 0 -2
BITMAP
0000
0010
7C10
4410
4810
481F
5010
4810
4810
44FE
4482
4482
5882
4082
4082
40FE
4082
0000
ENDCHAR

STARTCHAR cns2_287A
ENCODING 10362
SWIDTH 854 0
DWIDTH 16 0
BBX 16 18 0 -2
BITMAP
0000
0020
3E20
2240
2440
24FF
2920
2420
2420
223E
2220
2220
2C3E
2020
2020
2020
2020
0000
ENDCHAR

STARTCHAR cns2_287B
ENCODING 10363
SWIDTH 854 0
DWIDTH 16 0
BBX 16 18 0 -2
BITMAP
0000
000F
7CF8
4488
4488
4888
50FF
4888
4488
4488
4488
4485
44B7
58C2
4000
407F
4000
0000
ENDCHAR

STARTCHAR cns2_287C
ENCODING 10364
SWIDTH 854 0
DWIDTH 16 0
BBX 16 18 0 -2
BITMAP
0000
0000
7DFF
4410
4410
4810
51FF
4911
4511
4511
4529
4545
4585
5901
4101
4101
4106
0000
ENDCHAR

STARTCHAR cns2_287D
ENCODING 10365
SWIDTH 854 0
DWIDTH 16 0
BBX 16 18 0 -2
BITMAP
0000
0880
0840
0BFC
1204
1204
23FC
3204
5204
53FC
1223
122C
1210
1208
12C4
1302
1C01
0000
ENDCHAR

STARTCHAR cns2_287E
ENCODING 10366
SWIDTH 854 0
DWIDTH 16 0
BBX 16 18 0 -2
BITMAP
0000
082C
0822
0820
17FF
1020
2021
3632
5134
5028
1028
10A4
1124
1222
1421
1020
1060
0000
ENDCHAR

STARTCHAR cns2_2921
ENCODING 10529
SWIDTH 854 0
DWIDTH 16 0
BBX 16 18 0 -2
BITMAP
0000
0800
0FFF
0800
1092
1124
2248
3124
5092
5092
1000
13FE
1020
1020
1020
1020
17FF
0000
ENDCHAR

STARTCHAR cns2_2922
ENCODING 10530
SWIDTH 854 0
DWIDTH 16 0
BBX 16 18 0 -2
BITMAP
0000
0800
0BFE
0A00
1200
12FC
2200
3200
53FE
5240
1250
1251
124A
1244
1254
1462
1581
0000
ENDCHAR

STARTCHAR cns2_2923
ENCODING 10531
SWIDTH 854 0
DWIDTH 16 0
BBX 16 18 0 -2
BITMAP
0000
0800
0BFE
0820
1020
11FC
2044
3044
5084
57FF
1000
11FC
1104
1104
1104
11FC
1104
0000
ENDCHAR

STARTCHAR cns2_2924
ENCODING 10532
SWIDTH 854 0
DWIDTH 16 0
BBX 16 18 0 -2
BITMAP
0000
0400
05FC
0904
0904
11FC
1800
2800
2BFE
4A22
0A22
0A22
0BFE
0A00
0A01
0A01
0BFF
0000
ENDCHAR

STARTCHAR cns2_2925
ENCODING 10533
SWIDTH 854 0
DWIDTH 16 0
BBX 16 18 0 -2
BITMAP
0000
0400
047C
0844
0844
1144
197C
2900
2900
49FE
0812
0812
0BFF
0820
0850
0888
0B07
0000
ENDCHAR

STARTCHAR cns2_2926
ENCODING 10534
SWIDTH 854 0
DWIDTH 16 0
BBX 16 18 0 -2
BITMAP
0000
0800
09FC
0904
1104
11FC
2104
3104
51FC
5104
1104
11FC
1050
1050
1090
1111
161F
0000
ENDCHAR

STARTCHAR cns2_2927
ENCODING 10535
SWIDTH 854 0
DWIDTH 16 0
BBX 16 18 0 -2
BITMAP
0000
0820
0820
0BFE
1222
13FE
2222
33FE
5000
57FF
1080
1100
13FE
1002
1002
1002
101C
0000
ENDCHAR

STARTCHAR cns2_2928
ENCODING 10536
SWIDTH 854 0
DWIDTH 16 0
BBX 16 18 0 -2
BITMAP
0000
0984
0848
0830
104C
1182
2000
37FF
50A0
5120
13FE
1622
1A22
1222
1222
1226
1020
0000
ENDCHAR

STARTCHAR cns2_2929
ENCODING 10537
SWIDTH 854 0
DWIDTH 16 0
BBX 16 18 0 -2
BITMAP
0000
0810
0888
0888
1104
1603
21FC
3104
5104
5104
11FC
1050
1050
1050
1092
1111
161E
0000
ENDCHAR

STARTCHAR cns2_292A
ENCODING 10538
SWIDTH 854 0
DWIDTH 16 0
BBX 16 18 0 -2
BITMAP
0000
0820
0820
0924
1124
1124
2124
32AA
526A
5431
1020
13FE
1020
1020
1020
1020
17FF
0000
ENDCHAR

STARTCHAR cns2_292B
ENCODING 10539
SWIDTH 854 0
DWIDTH 16 0
BBX 16 18 0 -2
BITMAP
0000
0840
0880
09F8
1210
1420
23FE
3222
5222
5222
13FE
1252
1050
1090
1090
1111
161F
0000
ENDCHAR

STARTCHAR cns2_292C
ENCODING 10540
SWIDTH 854 0
DWIDTH 16 0
BBX 16 18 0 -2
BITMAP
0000
0000
0920
095F
1084
1084
3144
3244
505F
10C4
1144
1244
1044
1044
1084
109F
0000
0000
ENDCHAR

STARTCHAR cns2_292D
ENCODING 10541
SWIDTH 854 0
DWIDTH 16 0
BBX 16 18 0 -2
BITMAP
0000
0800
0BFF
0810
1060
10A8
2128
3124
5224
5422
1020
11FC
1104
1104
1104
11FC
1104
0000
ENDCHAR

STARTCHAR cns2_292E
ENCODING 10542
SWIDTH 854 0
DWIDTH 16 0
BBX 16 18 0 -2
BITMAP
0000
0820
0A22
0A22
13FE
1222
1050
308C
5103
16FC
1000
1000
13FE
1004
1004
1008
1030
0000
ENDCHAR

STARTCHAR cns2_292F
ENCODING 10543
SWIDTH 854 0
DWIDTH 16 0
BBX 16 18 0 -2
BITMAP
0000
0802
13FC
1121
1091
304A
3010
5020
57FF
1042
1082
1084
1048
1030
1018
1064
1183
0000
ENDCHAR

STARTCHAR cns2_2930
ENCODING 10544
SWIDTH 854 0
DWIDTH 16 0
BBX 16 18 0 -2
BITMAP
0000
0800
0807
0BB8
1088
1108
2108
327F
5208
5788
1088
1108
1208
163E
1500
14E0
181F
0000
ENDCHAR

STARTCHAR cns2_2931
ENCODING 10545
SWIDTH 854 0
DWIDTH 16 0
BBX 16 18 0 -2
BITMAP
0000
0800
08C4
1704
1104
1104
2104
37C8
5108
5108
1388
1548
1550
1112
1112
1117
1139
0000
ENDCHAR

STARTCHAR cns2_2932
ENCODING 10546
SWIDTH 854 0
DWIDTH 16 0
BBX 16 18 0 -2
BITMAP
0000
0001
3FE1
0009
0929
1249
2489
1249
0929
0009
3FC9
0209
0209
0201
03E1
3C01
0003
0000
ENDCHAR

STARTCHAR cns2_2933
ENCODING 10547
SWIDTH 854 0
DWIDTH 16 0
BBX 16 18 0 -2
BITMAP
0000
0201
0201
1249
1249
1249
1249
2AA9
26A9
4319
0209
0209
3FE9
0201
0201
0201
7FF3
0000
ENDCHAR

STARTCHAR cns2_2934
ENCODING 10548
SWIDTH 854 0
DWIDTH 16 0
BBX 16 18 0 -2
BITMAP
0000
0408
0408
7FC8
0408
043F
3F89
2089
2089
2091
3F91
0A11
0A11
0A21
0A21
1241
63C6
0000
ENDCHAR

STARTCHAR cns2_2935
ENCODING 10549
SWIDTH 854 0
DWIDTH 16 0
BBX 16 18 0 -2
BITMAP
0000
0400
1410
2410
3F90
447E
4412
0412
7FD2
0012
0012
7F12
4112
4122
4142
7F5E
0000
0000
ENDCHAR

STARTCHAR cns2_2936
ENCODING 10550
SWIDTH 854 0
DWIDTH 16 0
BBX 16 18 0 -2
BITMAP
0000
0000
3FFE
2000
23F8
2208
23F8
2208
23F8
2080
2FFE
2120
20C0
2738
2000
3FFF
2000
0000
ENDCHAR

STARTCHAR cns2_2937
ENCODING 10551
SWIDTH 854 0
DWIDTH 16 0
BBX 16 18 0 -2
BITMAP
0000
0020
003C
7E44
2408
24FF
2480
2480
24BE
24A2
24A2
25A2
46AE
00A0
0121
0121
023F
0000
ENDCHAR

STARTCHAR cns2_2938
ENCODING 10552
SWIDTH 854 0
DWIDTH 16 0
BBX 16 18 0 -2
BITMAP
0000
0000
3FFF
2040
2040
27FC
2208
2208
2110
2FFE
2040
2040
27FC
2040
2040
4040
4040
0000
ENDCHAR

STARTCHAR cns2_2939
ENCODING 10553
SWIDTH 854 0
DWIDTH 16 0
BBX 16 18 0 -2
BITMAP
0000
0000
3FFF
2100
2160
2100
2FF4
2108
2232
2284
2288
22B1
2482
248C
48B0
5081
40FF
0000
ENDCHAR

STARTCHAR cns2_293A
ENCODING 10554
SWIDTH 854 0
DWIDTH 16 0
BBX 16 18 0 -2
BITMAP
0000
0000
3FFF
2000
2040
2FFE
2040
27FC
2444
27FC
2444
27FC
2040
2FFE
2040
4040
4040
0000
ENDCHAR

STARTCHAR cns2_293B
ENCODING 10555
SWIDTH 854 0
DWIDTH 16 0
BBX 16 18 0 -2
BITMAP
0000
0000
3FFF
2000
27FC
2444
2444
27FC
2444
2444
27FC
2040
2040
27FC
2040
4040
5FFF
0000
ENDCHAR

STARTCHAR cns2_293C
ENCODING 10556
SWIDTH 854 0
DWIDTH 16 0
BBX 16 18 0 -2
BITMAP
0000
0000
03FF
0000
7C00
45FE
4502
4502
4502
45FE
4502
7D02
4502
41FE
0000
0000
07FF
0000
ENDCHAR

STARTCHAR cns2_293D
ENCODING 10557
SWIDTH 854 0
DWIDTH 16 0
BBX 16 18 0 -2
BITMAP
0000
0000
03FF
0084
7884
48FC
4884
4884
4884
48FC
4884
7884
489F
43E4
0004
0004
0004
0000
ENDCHAR

STARTCHAR cns2_293E
ENCODING 10558
SWIDTH 854 0
DWIDTH 16 0
BBX 16 18 0 -2
BITMAP
0000
0020
0020
0020
7BFF
4820
4820
4820
49FE
4800
4800
79FC
4904
4104
0104
01FC
0104
0000
ENDCHAR

STARTCHAR cns2_293F
ENCODING 10559
SWIDTH 854 0
DWIDTH 16 0
BBX 16 18 0 -2
BITMAP
0000
0000
03FF
7820
4840
4848
489C
4BE2
4820
4820
4820
7BFE
4820
4020
0020
0020
0FFF
0000
ENDCHAR

STARTCHAR cns2_2940
ENCODING 10560
SWIDTH 854 0
DWIDTH 16 0
BBX 16 18 0 -2
BITMAP
0000
0000
01FC
0104
7904
49FC
4904
4904
49FC
4904
4920
7912
4914
4108
0134
01C2
0601
0000
ENDCHAR

STARTCHAR cns2_2941
ENCODING 10561
SWIDTH 854 0
DWIDTH 16 0
BBX 16 18 0 -2
BITMAP
0000
0000
01FE
7902
4902
497A
4902
4902
497A
494A
494A
494A
497A
7942
4902
4102
020E
0000
ENDCHAR

STARTCHAR cns2_2942
ENCODING 10562
SWIDTH 854 0
DWIDTH 16 0
BBX 16 18 0 -2
BITMAP
0000
0804
0804
7E3F
0804
0400
0FFF
1001
2001
47F1
0411
0411
0411
07F1
0002
0022
001C
0000
ENDCHAR

STARTCHAR cns2_2943
ENCODING 10563
SWIDTH 854 0
DWIDTH 16 0
BBX 16 18 0 -2
BITMAP
0000
0000
0008
0048
7A49
494A
48CC
4848
4848
484C
48CA
7949
4A48
4088
0088
0109
060F
0000
ENDCHAR

STARTCHAR cns2_2944
ENCODING 10564
SWIDTH 854 0
DWIDTH 16 0
BBX 16 18 0 -2
BITMAP
0000
0020
0120
0120
7BFE
4A20
4C20
4820
4FFF
4820
4870
78A8
4924
4222
0421
0020
0020
0000
ENDCHAR

STARTCHAR cns2_2945
ENCODING 10565
SWIDTH 854 0
DWIDTH 16 0
BBX 16 18 0 -2
BITMAP
0000
0040
0080
01FE
7A10
4810
4810
4BFE
4910
4910
4910
7910
4FFF
4010
0010
0010
0010
0000
ENDCHAR

STARTCHAR cns2_2946
ENCODING 10566
SWIDTH 854 0
DWIDTH 16 0
BBX 16 18 0 -2
BITMAP
0000
0006
03F8
0020
7820
4820
4BFF
4820
4820
4820
49FC
7904
4904
4104
0104
01FC
0104
0000
ENDCHAR

STARTCHAR cns2_2947
ENCODING 10567
SWIDTH 854 0
DWIDTH 16 0
BBX 16 18 0 -2
BITMAP
0000
0100
0100
01FF
7A01
4C01
4929
4AA9
4A49
4A49
4AA9
7B19
4A09
43F9
0209
0001
0006
0000
ENDCHAR

STARTCHAR cns2_2948
ENCODING 10568
SWIDTH 854 0
DWIDTH 16 0
BBX 16 18 0 -2
BITMAP
0000
0020
007E
0082
7944
4A28
4810
4820
48D0
4B3F
4841
78A2
4914
4008
0010
0060
0380
0000
ENDCHAR

STARTCHAR cns2_2949
ENCODING 10569
SWIDTH 854 0
DWIDTH 16 0
BBX 16 18 0 -2
BITMAP
0000
0000
0FF8
0808
0808
0FF8
0000
7FFF
0808
0FF8
0808
0FF8
0808
087F
7F88
0008
0008
0000
ENDCHAR

STARTCHAR cns2_294A
ENCODING 10570
SWIDTH 854 0
DWIDTH 16 0
BBX 16 18 0 -2
BITMAP
0000
0420
1420
1426
17B8
1420
1421
15A1
1E3F
6000
0FF8
0808
0808
0808
0808
0FF8
0808
0000
ENDCHAR

STARTCHAR cns2_294B
ENCODING 10571
SWIDTH 854 0
DWIDTH 16 0
BBX 16 18 0 -2
BITMAP
0000
0000
0FF8
0808
0808
09F8
0908
0908
3FFE
2002
2002
27F2
2412
2412
27F2
2412
2006
0000
ENDCHAR

STARTCHAR cns2_294C
ENCODING 10572
SWIDTH 854 0
DWIDTH 16 0
BBX 16 18 0 -2
BITMAP
0000
0000
3E3E
2222
2222
3E3E
0000
0FF8
0000
7FFF
0200
0400
0FFC
0804
0004
0004
0078
0000
ENDCHAR

STARTCHAR cns2_294D
ENCODING 10573
SWIDTH 854 0
DWIDTH 16 0
BBX 16 18 0 -2
BITMAP
0000
0000
0040
7842
4BF4
4848
4850
4FFF
4820
48C0
788C
49B0
42C0
0480
1880
0082
00FE
0000
ENDCHAR

STARTCHAR cns2_294E
ENCODING 10574
SWIDTH 854 0
DWIDTH 16 0
BBX 16 18 0 -2
BITMAP
0000
0044
0044
0044
0044
7845
4945
4976
4944
4944
4944
4944
4944
7944
0175
01C5
0707
0000
ENDCHAR

STARTCHAR cns2_294F
ENCODING 10575
SWIDTH 854 0
DWIDTH 16 0
BBX 16 18 0 -2
BITMAP
0000
0020
0020
0048
7884
4BFE
4801
4890
4890
49FE
4A10
7810
4BFF
4010
0010
0010
0010
0000
ENDCHAR

STARTCHAR cns2_2950
ENCODING 10576
SWIDTH 854 0
DWIDTH 16 0
BBX 16 18 0 -2
BITMAP
0000
0040
0080
7D00
45FF
4601
4401
44F9
4489
44F9
4489
4489
7CF9
0001
0011
000F
0000
0000
ENDCHAR

STARTCHAR cns2_2951
ENCODING 10577
SWIDTH 854 0
DWIDTH 16 0
BBX 16 18 0 -2
BITMAP
0000
0810
0810
0810
09FF
0901
3F11
0810
0820
09FF
0844
0A44
0CA4
3018
000C
0032
01C1
0000
ENDCHAR

STARTCHAR cns2_2952
ENCODING 10578
SWIDTH 854 0
DWIDTH 16 0
BBX 16 18 0 -2
BITMAP
0000
1020
1010
11FF
1101
1202
7C18
10F0
1020
1020
103C
11E0
1C20
6022
0021
0021
003E
0000
ENDCHAR

STARTCHAR cns2_2953
ENCODING 10579
SWIDTH 854 0
DWIDTH 16 0
BBX 16 18 0 -2
BITMAP
0000
1082
1044
1028
11FF
1010
7C10
1010
10FE
1010
1010
1410
19FF
6010
0010
0010
0010
0000
ENDCHAR

STARTCHAR cns2_2954
ENCODING 10580
SWIDTH 854 0
DWIDTH 16 0
BBX 16 18 0 -2
BITMAP
0000
1000
13FE
1020
1040
1048
7C9C
13E2
1020
1020
1020
15FE
1820
6020
0020
0020
07FF
0000
ENDCHAR

STARTCHAR cns2_2955
ENCODING 10581
SWIDTH 854 0
DWIDTH 16 0
BBX 16 18 0 -2
BITMAP
0000
11FF
1101
1101
117D
1101
7D01
117D
1145
1145
1145
157D
1945
6101
0101
0101
0103
0000
ENDCHAR

STARTCHAR cns2_2956
ENCODING 10582
SWIDTH 854 0
DWIDTH 16 0
BBX 16 18 0 -2
BITMAP
0000
1048
1048
1048
1049
114A
7CCC
1048
1048
104C
10CA
1349
1C48
6088
0088
0109
060F
0000
ENDCHAR

STARTCHAR cns2_2957
ENCODING 10583
SWIDTH 854 0
DWIDTH 16 0
BBX 16 18 0 -2
BITMAP
0000
1040
107C
1084
1108
10FF
7C80
1080
10BE
10A2
10A2
14A2
18A6
60A0
0120
0121
001F
0000
ENDCHAR

STARTCHAR cns2_2958
ENCODING 10584
SWIDTH 854 0
DWIDTH 16 0
BBX 16 18 0 -2
BITMAP
0000
1000
10FC
1084
1084
1084
7C84
1107
1220
1020
13FF
1420
1870
60A8
0124
0623
0060
0000
ENDCHAR

STARTCHAR cns2_2959
ENCODING 10585
SWIDTH 854 0
DWIDTH 16 0
BBX 16 18 0 -2
BITMAP
0000
7FFF
0220
0220
3FFE
2222
2222
243E
2002
3FFE
0080
0080
3FFE
0080
0080
7FFF
0000
0000
ENDCHAR

STARTCHAR cns2_295A
ENCODING 10586
SWIDTH 854 0
DWIDTH 16 0
BBX 16 18 0 -2
BITMAP
0000
1048
104A
1049
1089
1088
7D7F
1188
1288
1288
1094
1494
1894
6094
00A2
00A3
00C1
0000
ENDCHAR

STARTCHAR cns2_295B
ENCODING 10587
SWIDTH 854 0
DWIDTH 16 0
BBX 16 18 0 -2
BITMAP
0000
1010
1010
10FE
1012
11FF
7C12
10FE
1010
1010
10FE
1410
1810
63FF
0010
0010
0010
0000
ENDCHAR

STARTCHAR cns2_295C
ENCODING 10588
SWIDTH 854 0
DWIDTH 16 0
BBX 16 18 0 -2
BITMAP
0000
1010
1010
1112
1092
1054
7C54
1010
11FF
1048
1048
1448
1848
6088
0089
0109
020F
0000
ENDCHAR

STARTCHAR cns2_295D
ENCODING 10589
SWIDTH 854 0
DWIDTH 16 0
BBX 16 18 0 -2
BITMAP
0000
1020
1020
1050
1088
1088
7D04
1202
14F9
1000
1000
15FC
1904
6104
0104
01FC
0104
0000
ENDCHAR

STARTCHAR cns2_295E
ENCODING 10590
SWIDTH 854 0
DWIDTH 16 0
BBX 16 18 0 -2
BITMAP
0000
0080
0080
0080
0FF8
0080
0080
0080
1FFC
0000
0410
0410
3F7E
0410
0410
0410
7F7F
0000
ENDCHAR

STARTCHAR cns2_295F
ENCODING 10591
SWIDTH 854 0
DWIDTH 16 0
BBX 16 18 0 -2
BITMAP
0000
0018
1FE0
1000
1FFE
1000
1000
17F8
1408
1408
27F8
2408
4080
1FFC
0080
0080
7FFF
0000
ENDCHAR

STARTCHAR cns2_2960
ENCODING 10592
SWIDTH 854 0
DWIDTH 16 0
BBX 16 18 0 -2
BITMAP
0000
0080
0080
7FFF
0080
0080
3FFE
0000
1FFC
1004
1004
1FFC
1004
0410
0220
0240
7FFE
0000
ENDCHAR

STARTCHAR cns2_2961
ENCODING 10593
SWIDTH 854 0
DWIDTH 16 0
BBX 16 18 0 -2
BITMAP
0000
0800
1FFF
2000
0FFE
0802
0FFE
0802
0FFE
0400
0FFE
0A04
1108
2090
00E0
031C
3C03
0000
ENDCHAR

STARTCHAR cns2_2962
ENCODING 10594
SWIDTH 854 0
DWIDTH 16 0
BBX 16 18 0 -2
BITMAP
0000
0080
0100
3FFF
0220
0490
09E8
1224
6543
0080
0320
0C78
0088
0158
0020
00C0
0700
0000
ENDCHAR

STARTCHAR cns2_2963
ENCODING 10595
SWIDTH 854 0
DWIDTH 16 0
BBX 16 18 0 -2
BITMAP
0000
1006
10F8
1010
1010
7C10
25FF
2410
4410
4410
28FE
1882
0882
1482
1282
20FE
4082
0000
ENDCHAR

STARTCHAR cns2_2964
ENCODING 10596
SWIDTH 854 0
DWIDTH 16 0
BBX 16 18 0 -2
BITMAP
0000
1010
1010
1010
11FF
7E10
2410
2410
24FE
4400
4400
28FE
1882
0882
1482
2282
40FE
0000
ENDCHAR

STARTCHAR cns2_2965
ENCODING 10597
SWIDTH 854 0
DWIDTH 16 0
BBX 16 18 0 -2
BITMAP
0000
1000
11FF
1000
1000
7EFE
2482
2482
2482
24FE
4482
2882
1882
08FE
1482
2000
43FF
0000
ENDCHAR

STARTCHAR cns2_2966
ENCODING 10598
SWIDTH 854 0
DWIDTH 16 0
BBX 16 18 0 -2
BITMAP
0000
100A
1009
1008
11FF
7C08
2448
2449
25F9
444A
444A
248C
2888
1008
1015
2865
4483
0000
ENDCHAR

STARTCHAR cns2_2967
ENCODING 10599
SWIDTH 854 0
DWIDTH 16 0
BBX 16 18 0 -2
BITMAP
0000
1020
1020
11FF
1048
7E84
2482
2579
2400
25FF
4420
2840
187E
0882
1402
2202
401C
0000
ENDCHAR

STARTCHAR cns2_2968
ENCODING 10600
SWIDTH 854 0
DWIDTH 16 0
BBX 16 18 0 -2
BITMAP
0000
1010
1090
1090
10FE
7C90
2510
2410
25FF
4430
4438
3454
0854
1492
1292
2111
4010
0000
ENDCHAR

STARTCHAR cns2_2969
ENCODING 10601
SWIDTH 854 0
DWIDTH 16 0
BBX 16 18 0 -2
BITMAP
0000
1010
1010
1090
1090
7CFE
2490
2510
2410
45FF
4448
3048
0848
1488
1489
2109
460F
0000
ENDCHAR

STARTCHAR cns2_296A
ENCODING 10602
SWIDTH 854 0
DWIDTH 16 0
BBX 16 18 0 -2
BITMAP
0000
1040
1078
1088
1090
7DFF
2500
2500
257C
4544
4544
355C
0940
1540
1141
2241
427F
0000
ENDCHAR

STARTCHAR cns2_296B
ENCODING 10603
SWIDTH 854 0
DWIDTH 16 0
BBX 16 18 0 -2
BITMAP
0000
1010
1020
107F
1082
7D44
2428
2434
4448
459F
4431
3452
0892
0814
1418
2230
43C0
0000
ENDCHAR

STARTCHAR cns2_296C
ENCODING 10604
SWIDTH 854 0
DWIDTH 16 0
BBX 16 18 0 -2
BITMAP
0000
1010
1028
1044
1082
7D01
2400
24FE
2400
2400
24FE
6482
1482
0882
1482
22FE
4082
0000
ENDCHAR

STARTCHAR cns2_296D
ENCODING 10605
SWIDTH 854 0
DWIDTH 16 0
BBX 16 18 0 -2
BITMAP
0000
0000
200E
21F0
2100
7D00
25FF
2500
2500
4500
457E
3542
0942
1542
1542
217E
4242
0000
ENDCHAR

STARTCHAR cns2_296E
ENCODING 10606
SWIDTH 854 0
DWIDTH 16 0
BBX 16 18 0 -2
BITMAP
0000
1010
1010
1010
11FF
7D01
2511
2410
4420
45FF
2844
1844
08A4
1418
120C
2032
41C1
0000
ENDCHAR

STARTCHAR cns2_296F
ENCODING 10607
SWIDTH 854 0
DWIDTH 16 0
BBX 16 18 0 -2
BITMAP
0000
1010
1010
11FF
1420
7E20
247E
2442
4442
44FE
44C2
7542
087E
1442
2342
404A
4046
0000
ENDCHAR

STARTCHAR cns2_2970
ENCODING 10608
SWIDTH 854 0
DWIDTH 16 0
BBX 16 18 0 -2
BITMAP
0000
1000
11FF
1101
1101
7D7D
1501
2501
257D
2545
2545
5545
097D
1501
2101
4101
0203
0000
ENDCHAR

STARTCHAR cns2_2971
ENCODING 10609
SWIDTH 854 0
DWIDTH 16 0
BBX 16 18 0 -2
BITMAP
0000
1080
1080
10FF
1090
7D10
1410
14FE
2490
2490
2490
5490
09FF
1410
1010
2010
4010
0000
ENDCHAR

STARTCHAR cns2_2972
ENCODING 10610
SWIDTH 854 0
DWIDTH 16 0
BBX 16 18 0 -2
BITMAP
0000
0810
0810
083F
1021
7F42
12A2
1214
2208
2410
243F
1461
15A1
0821
1421
223F
4021
0000
ENDCHAR

STARTCHAR cns2_2973
ENCODING 10611
SWIDTH 854 0
DWIDTH 16 0
BBX 16 18 0 -2
BITMAP
0000
2000
23FE
2202
2202
7AFA
2A22
2A22
4AFA
4AAA
4AAA
2AAA
12AA
12AA
2AAA
2421
4821
0000
ENDCHAR

STARTCHAR cns2_2974
ENCODING 10612
SWIDTH 854 0
DWIDTH 16 0
BBX 16 18 0 -2
BITMAP
0000
1020
1020
1040
11FF
7D01
2501
2539
2529
4529
4529
3529
0939
1529
1501
2101
4106
0000
ENDCHAR

STARTCHAR cns2_2975
ENCODING 10613
SWIDTH 854 0
DWIDTH 16 0
BBX 16 18 0 -2
BITMAP
0000
1010
1028
1044
1282
7F01
22FE
2210
4210
4210
64FE
1410
0810
0810
1410
62FF
0000
0000
ENDCHAR

STARTCHAR cns2_2976
ENCODING 10614
SWIDTH 854 0
DWIDTH 16 0
BBX 16 18 0 -2
BITMAP
0000
0002
7FA2
0822
1F22
2122
5122
0A22
0C22
7086
0100
7FFF
0210
0420
03C0
00B0
3F0C
0000
ENDCHAR

STARTCHAR cns2_2977
ENCODING 10615
SWIDTH 854 0
DWIDTH 16 0
BBX 16 18 0 -2
BITMAP
0000
0080
1FFC
0204
041C
0810
7F3F
1111
2727
4040
0100
7FFF
0408
0410
07E0
0050
078C
0000
ENDCHAR

STARTCHAR cns2_2978
ENCODING 10616
SWIDTH 854 0
DWIDTH 16 0
BBX 16 18 0 -2
BITMAP
0000
0080
7FFF
4001
4241
0240
1248
0A50
0240
0240
0650
0A48
1244
2440
0440
1841
603F
0000
ENDCHAR

STARTCHAR cns2_2979
ENCODING 10617
SWIDTH 854 0
DWIDTH 16 0
BBX 16 18 0 -2
BITMAP
0000
1FFC
1004
1004
1FFC
1000
13F8
1208
1208
13F8
1040
17FC
2444
2444
2444
445C
0040
0000
ENDCHAR

STARTCHAR cns2_297A
ENCODING 10618
SWIDTH 854 0
DWIDTH 16 0
BBX 16 18 0 -2
BITMAP
0000
1010
1010
11FF
5420
5420
5548
5488
5452
5422
5444
5488
5510
5428
7C44
0182
0201
0000
ENDCHAR

STARTCHAR cns2_297B
ENCODING 10619
SWIDTH 854 0
DWIDTH 16 0
BBX 16 18 0 -2
BITMAP
0000
1000
11FF
1000
5400
54FE
5482
5482
5482
54FE
5482
5482
7C82
44FE
0082
0000
01FF
0000
ENDCHAR

STARTCHAR cns2_297C
ENCODING 10620
SWIDTH 854 0
DWIDTH 16 0
BBX 16 18 0 -2
BITMAP
0000
1000
11FE
1020
5440
5442
548E
55F1
5411
5410
5410
54FE
5410
7C10
4010
0010
03FF
0000
ENDCHAR

STARTCHAR cns2_297D
ENCODING 10621
SWIDTH 854 0
DWIDTH 16 0
BBX 16 18 0 -2
BITMAP
0000
1040
1078
1088
5490
55FF
5500
5500
557C
5544
5544
5544
555C
5540
7D41
0241
027F
0000
ENDCHAR

STARTCHAR cns2_297E
ENCODING 10622
SWIDTH 854 0
DWIDTH 16 0
BBX 16 18 0 -2
BITMAP
0000
1040
1040
1080
54FF
5501
5501
56F9
5489
5489
54F9
5489
7C89
44F9
0089
0001
0006
0000
ENDCHAR

STARTCHAR cns2_2A21
ENCODING 10785
SWIDTH 854 0
DWIDTH 16 0
BBX 16 18 0 -2
BITMAP
0000
1042
1042
1042
1FFE
0000
0002
7FD2
0812
0F92
1092
3092
4912
0612
0402
1812
600C
0000
ENDCHAR

STARTCHAR cns2_2A22
ENCODING 10786
SWIDTH 854 0
DWIDTH 16 0
BBX 16 18 0 -2
BITMAP
0000
1084
1084
1084
1FFC
0400
07F0
0820
3040
1FFE
1000
13F0
1210
1250
2222
2202
43FE
0000
ENDCHAR

STARTCHAR cns2_2A23
ENCODING 10787
SWIDTH 854 0
DWIDTH 16 0
BBX 16 18 0 -2
BITMAP
0000
0080
2082
2082
3FFE
2002
0080
0080
7FFF
0120
0618
3887
0080
1FFC
0080
0080
7FFF
0000
ENDCHAR

STARTCHAR cns2_2A24
ENCODING 10788
SWIDTH 854 0
DWIDTH 16 0
BBX 16 18 0 -2
BITMAP
0000
0080
1084
1084
1FFC
1004
0400
07FC
0C08
1330
60C0
0330
0C0C
77FB
0408
07F8
0408
0000
ENDCHAR

STARTCHAR cns2_2A25
ENCODING 10789
SWIDTH 854 0
DWIDTH 16 0
BBX 16 18 0 -2
BITMAP
0000
0080
2082
2082
3FFE
2142
0220
0410
0BE8
1004
6003
0FF8
0808
0808
0808
0FF8
0808
0000
ENDCHAR

STARTCHAR cns2_2A26
ENCODING 10790
SWIDTH 854 0
DWIDTH 16 0
BBX 16 18 0 -2
BITMAP
0000
0300
0C00
1FF8
1008
1FF8
1000
1FFC
1004
1FFC
1000
0080
2082
2082
2082
3FFE
2002
0000
ENDCHAR

STARTCHAR cns2_2A27
ENCODING 10791
SWIDTH 854 0
DWIDTH 16 0
BBX 16 18 0 -2
BITMAP
0000
1020
1010
11FF
5501
5521
5420
55FF
5444
5444
5444
5488
54E8
7C14
4C22
00C1
0301
0000
ENDCHAR

STARTCHAR cns2_2A28
ENCODING 10792
SWIDTH 854 0
DWIDTH 16 0
BBX 16 18 0 -2
BITMAP
0000
1020
1020
13FF
5420
55FE
5422
55FE
5520
5520
55FF
5421
7C51
444B
0084
0102
0601
0000
ENDCHAR

STARTCHAR cns2_2A29
ENCODING 10793
SWIDTH 854 0
DWIDTH 16 0
BBX 16 18 0 -2
BITMAP
0000
1010
1010
10FC
1011
5412
5414
55FF
5410
5420
5460
54BF
5520
5620
7C21
0821
003F
0000
ENDCHAR

STARTCHAR cns2_2A2A
ENCODING 10794
SWIDTH 854 0
DWIDTH 16 0
BBX 16 18 0 -2
BITMAP
0000
11FF
1010
1010
5420
54FE
54AA
54AA
54AA
54AA
54AA
54AA
54AA
7CAA
44AA
40AA
0086
0000
ENDCHAR

STARTCHAR cns2_2A2B
ENCODING 10795
SWIDTH 854 0
DWIDTH 16 0
BBX 16 18 0 -2
BITMAP
0000
0010
0820
087F
0881
0912
080C
490A
4911
4960
4900
497F
4941
4941
7F41
007F
0000
0000
ENDCHAR

STARTCHAR cns2_2A2C
ENCODING 10796
SWIDTH 854 0
DWIDTH 16 0
BBX 16 18 0 -2
BITMAP
0000
1010
1010
1028
1044
5482
5501
54FF
5400
5400
5400
54FE
5482
5482
7C82
00FE
0000
0000
ENDCHAR

STARTCHAR cns2_2A2D
ENCODING 10797
SWIDTH 854 0
DWIDTH 16 0
BBX 16 18 0 -2
BITMAP
0000
1084
1084
1084
1FFC
0000
1FF8
1008
1FF8
1008
1FF8
1108
1090
1060
1120
1218
0C06
0000
ENDCHAR

STARTCHAR cns2_2A2E
ENCODING 10798
SWIDTH 854 0
DWIDTH 16 0
BBX 16 18 0 -2
BITMAP
0000
0080
2082
2082
3FFE
0100
0100
7FFF
0400
0FFC
3404
07FC
0404
07FC
0404
0404
0818
0000
ENDCHAR

STARTCHAR cns2_2A2F
ENCODING 10799
SWIDTH 854 0
DWIDTH 16 0
BBX 16 18 0 -2
BITMAP
0000
100A
1009
11FF
5508
5508
5508
55E8
5528
5529
552A
552C
55C8
7D18
0328
0045
0082
0000
ENDCHAR

STARTCHAR cns2_2A30
ENCODING 10800
SWIDTH 854 0
DWIDTH 16 0
BBX 16 18 0 -2
BITMAP
0000
1FFC
0030
04C6
7E98
04E0
1898
6187
0000
7FFE
0000
0FF8
0008
0FF8
0800
0804
0FFC
0000
ENDCHAR

STARTCHAR cns2_2A31
ENCODING 10801
SWIDTH 854 0
DWIDTH 16 0
BBX 16 18 0 -2
BITMAP
0000
1082
1044
1048
7CFE
5444
5444
5444
5444
55FF
5444
5444
5444
1044
1084
1084
1304
0000
ENDCHAR

STARTCHAR cns2_2A32
ENCODING 10802
SWIDTH 854 0
DWIDTH 16 0
BBX 16 18 0 -2
BITMAP
0000
1010
1028
1028
1044
7C44
5482
557D
5400
5400
54FE
5482
1082
1082
1082
10FE
1082
0000
ENDCHAR

STARTCHAR cns2_2A33
ENCODING 10803
SWIDTH 854 0
DWIDTH 16 0
BBX 16 18 0 -2
BITMAP
0000
0890
04A0
0100
0FF0
0240
0420
7FFF
0810
0888
1084
2FFA
4889
0888
0888
0898
0080
0080
ENDCHAR

STARTCHAR cns2_2A34
ENCODING 10804
SWIDTH 854 0
DWIDTH 16 0
BBX 16 18 0 -2
BITMAP
0000
0180
1E3C
1004
1004
1F7C
1004
1004
1FFC
0080
0080
3FFE
2082
2082
2082
2086
0080
0000
ENDCHAR

STARTCHAR cns2_2A35
ENCODING 10805
SWIDTH 854 0
DWIDTH 16 0
BBX 16 18 0 -2
BITMAP
0000
0800
7F3E
1122
2222
1C22
0A22
113E
6120
0080
1FFC
1084
1084
1084
1098
0080
0080
0000
ENDCHAR

STARTCHAR cns2_2A36
ENCODING 10806
SWIDTH 854 0
DWIDTH 16 0
BBX 16 18 0 -2
BITMAP
0000
0080
0040
1FFF
1204
1108
1090
17FE
1090
1090
1090
2FFE
2090
2110
4110
4210
0C10
0000
ENDCHAR

STARTCHAR cns2_2A37
ENCODING 10807
SWIDTH 854 0
DWIDTH 16 0
BBX 16 18 0 -2
BITMAP
0000
0040
0020
1FFF
1020
1020
13FE
1020
1020
11FC
1008
1008
17FE
1108
2088
2088
4030
0000
ENDCHAR

STARTCHAR cns2_2A38
ENCODING 10808
SWIDTH 854 0
DWIDTH 16 0
BBX 16 18 0 -2
BITMAP
0000
0100
0080
3FFF
2000
27FE
2080
2088
2104
2FFE
2042
2040
27FC
4040
4040
4FFE
0000
0000
ENDCHAR

STARTCHAR cns2_2A39
ENCODING 10809
SWIDTH 854 0
DWIDTH 16 0
BBX 16 18 0 -2
BITMAP
0000
0080
0040
3FFF
2000
2110
2110
2510
25DF
2510
2510
2510
2510
25D2
4711
4C1F
4000
0000
ENDCHAR

STARTCHAR cns2_2A3A
ENCODING 10810
SWIDTH 854 0
DWIDTH 16 0
BBX 16 18 0 -2
BITMAP
0000
0080
0040
3FFF
2000
2130
2124
2D24
2328
2130
2130
2328
4524
4924
4120
4222
0C1E
0000
ENDCHAR

STARTCHAR cns2_2A3B
ENCODING 10811
SWIDTH 854 0
DWIDTH 16 0
BBX 16 18 0 -2
BITMAP
0000
0080
3FFF
2000
2210
2210
2410
2C10
35FF
2410
2438
2454
2454
2492
2492
4511
4410
0000
ENDCHAR

STARTCHAR cns2_2A3C
ENCODING 10812
SWIDTH 854 0
DWIDTH 16 0
BBX 16 18 0 -2
BITMAP
0000
00C0
0120
0610
0808
17F4
6003
0FF8
0808
0FF8
0000
0210
7FFF
0210
0410
1810
6010
0000
ENDCHAR

STARTCHAR cns2_2A3D
ENCODING 10813
SWIDTH 854 0
DWIDTH 16 0
BBX 16 18 0 -2
BITMAP
0000
1084
0888
0890
3FFE
0100
7FFF
0630
180C
67FB
0008
07F8
0400
0FFC
0004
0008
00F0
0000
ENDCHAR

STARTCHAR cns2_2A3E
ENCODING 10814
SWIDTH 854 0
DWIDTH 16 0
BBX 16 18 0 -2
BITMAP
0000
0400
07F8
0808
0FF0
0010
7FFF
0100
0E84
7088
0350
0C60
70D0
0348
0C44
7043
0180
0000
ENDCHAR

STARTCHAR cns2_2A3F
ENCODING 10815
SWIDTH 854 0
DWIDTH 16 0
BBX 16 18 0 -2
BITMAP
0000
0BFE
1050
2050
4450
0BFE
1252
3252
5252
1252
1252
13DE
1202
1202
1202
13FE
1000
0000
ENDCHAR

STARTCHAR cns2_2A40
ENCODING 10816
SWIDTH 854 0
DWIDTH 16 0
BBX 16 18 0 -2
BITMAP
0000
0090
0088
7FFE
0080
0888
0888
0888
1088
6086
0000
0084
0442
2441
2409
4408
07F8
0000
ENDCHAR

STARTCHAR cns2_2A41
ENCODING 10817
SWIDTH 854 0
DWIDTH 16 0
BBX 16 18 0 -2
BITMAP
0000
0890
0890
109E
10F2
3394
5094
1090
1090
1081
10FF
0000
2904
28C2
2829
4809
4FF8
0000
ENDCHAR

STARTCHAR cns2_2A42
ENCODING 10818
SWIDTH 854 0
DWIDTH 16 0
BBX 16 18 0 -2
BITMAP
0000
1020
1020
13FE
1000
5488
5504
5202
5088
1088
1090
1050
1020
1050
1088
1104
1603
0000
ENDCHAR

STARTCHAR cns2_2A43
ENCODING 10819
SWIDTH 854 0
DWIDTH 16 0
BBX 16 18 0 -2
BITMAP
0000
1000
1084
1044
1048
55FE
5448
5448
5048
1048
13FF
1048
1048
1088
1088
1108
1208
0000
ENDCHAR

STARTCHAR cns2_2A44
ENCODING 10820
SWIDTH 854 0
DWIDTH 16 0
BBX 16 18 0 -2
BITMAP
0000
1020
1020
13FF
1020
55FE
5422
55FE
5122
1120
11FF
1121
1051
104B
1084
1102
1201
0000
ENDCHAR

STARTCHAR cns2_2A45
ENCODING 10821
SWIDTH 854 0
DWIDTH 16 0
BBX 16 18 0 -2
BITMAP
0000
1020
1020
11FF
1022
5424
5428
55FF
5020
1040
10C0
117E
1240
1040
1040
1040
103E
0000
ENDCHAR

STARTCHAR cns2_2A46
ENCODING 10822
SWIDTH 854 0
DWIDTH 16 0
BBX 16 18 0 -2
BITMAP
0000
1000
13FF
1048
1048
5448
5448
53FF
5249
1249
1249
128F
1301
1201
13FF
1201
1000
0000
ENDCHAR

STARTCHAR cns2_2A47
ENCODING 10823
SWIDTH 854 0
DWIDTH 16 0
BBX 16 18 0 -2
BITMAP
0000
1000
11FF
1100
1100
553E
5508
5108
513E
1108
1108
1108
117F
1100
1100
11FF
1100
0000
ENDCHAR

STARTCHAR cns2_2A48
ENCODING 10824
SWIDTH 854 0
DWIDTH 16 0
BBX 16 18 0 -2
BITMAP
0000
0800
0880
089E
08E0
2A80
2A81
28FF
2800
0800
08FE
0882
0882
08FE
0882
0882
08FE
0000
ENDCHAR

STARTCHAR cns2_2A49
ENCODING 10825
SWIDTH 854 0
DWIDTH 16 0
BBX 16 18 0 -2
BITMAP
0000
1000
11FE
1102
1102
597A
554A
554A
514A
114A
114A
117A
114A
1102
1102
11FE
1102
0000
ENDCHAR

STARTCHAR cns2_2A4A
ENCODING 10826
SWIDTH 854 0
DWIDTH 16 0
BBX 16 18 0 -2
BITMAP
0000
1090
1090
1090
1892
5494
5298
5190
5090
1098
1194
1692
1090
1110
1110
1211
141F
0000
ENDCHAR

STARTCHAR cns2_2A4B
ENCODING 10827
SWIDTH 854 0
DWIDTH 16 0
BBX 16 18 0 -2
BITMAP
0000
1020
107E
1082
5544
5428
5410
5020
5048
519F
1021
1041
10A2
1014
1008
1030
11C0
0000
ENDCHAR

STARTCHAR cns2_2A4C
ENCODING 10828
SWIDTH 854 0
DWIDTH 16 0
BBX 16 18 0 -2
BITMAP
0000
1040
1040
1080
10FF
5901
5901
52F9
5489
1089
10F9
1089
1089
10F9
1089
1002
100C
0000
ENDCHAR

STARTCHAR cns2_2A4D
ENCODING 10829
SWIDTH 854 0
DWIDTH 16 0
BBX 16 18 0 -2
BITMAP
0000
1080
1080
1100
19FF
5A01
5391
5555
5125
1125
1155
118D
1105
11FD
1105
1101
100E
0000
ENDCHAR

STARTCHAR cns2_2A4E
ENCODING 10830
SWIDTH 854 0
DWIDTH 16 0
BBX 16 18 0 -2
BITMAP
0000
0408
0808
13FF
3008
5088
1048
1028
1008
1038
0000
1488
1444
2422
4400
4402
03FE
0000
ENDCHAR

STARTCHAR cns2_2A4F
ENCODING 10831
SWIDTH 854 0
DWIDTH 16 0
BBX 16 18 0 -2
BITMAP
0000
1010
1010
13FF
1010
5810
5410
55FE
1000
1000
11FE
1102
1102
1102
1102
11FE
1000
0000
ENDCHAR

STARTCHAR cns2_2A50
ENCODING 10832
SWIDTH 854 0
DWIDTH 16 0
BBX 16 18 0 -2
BITMAP
0000
1048
1048
1088
1088
59FF
5508
5308
5508
190C
111A
1129
1148
1188
1108
1108
1108
0000
ENDCHAR

STARTCHAR cns2_2A51
ENCODING 10833
SWIDTH 854 0
DWIDTH 16 0
BBX 16 18 0 -2
BITMAP
0000
1020
1040
1080
1100
51FF
5101
5901
557D
1145
1145
1145
1145
117D
1101
1105
1103
0000
ENDCHAR

STARTCHAR cns2_2A52
ENCODING 10834
SWIDTH 854 0
DWIDTH 16 0
BBX 16 18 0 -2
BITMAP
0000
1020
1020
1050
1888
5504
5202
53FE
5020
1020
1020
11FE
1020
1020
1020
17FF
1000
0000
ENDCHAR

STARTCHAR cns2_2A53
ENCODING 10835
SWIDTH 854 0
DWIDTH 16 0
BBX 16 18 0 -2
BITMAP
0000
01F0
1E00
1FFE
1002
1FFE
1080
1080
10FE
1080
1080
17FC
1404
2404
2404
47FC
0404
0000
ENDCHAR

STARTCHAR cns2_2A54
ENCODING 10836
SWIDTH 854 0
DWIDTH 16 0
BBX 16 18 0 -2
BITMAP
0000
001E
0FE0
0800
0FFF
0801
0FFF
0800
0BFF
0A01
0AFD
0A85
1285
12FD
1201
2201
2203
0000
ENDCHAR

STARTCHAR cns2_2A55
ENCODING 10837
SWIDTH 854 0
DWIDTH 16 0
BBX 16 18 0 -2
BITMAP
0000
0800
7F7E
1122
1214
2A08
0434
1AC3
6038
1FC0
0080
1FFC
0080
7FFF
0080
0080
0180
0000
ENDCHAR

STARTCHAR cns2_2A56
ENCODING 10838
SWIDTH 854 0
DWIDTH 16 0
BBX 16 18 0 -2
BITMAP
0000
1010
1010
1010
7DFF
1000
1044
1482
1945
7044
1044
1028
1010
1010
1028
1044
3183
0000
ENDCHAR

STARTCHAR cns2_2A57
ENCODING 10839
SWIDTH 854 0
DWIDTH 16 0
BBX 16 18 0 -2
BITMAP
0000
1000
11FE
1110
7D10
1110
11FE
1102
1102
1D02
71FE
1112
1110
1110
1110
11FF
3100
0000
ENDCHAR

STARTCHAR cns2_2A58
ENCODING 10840
SWIDTH 854 0
DWIDTH 16 0
BBX 16 18 0 -2
BITMAP
0000
1040
1040
13FF
7C80
1080
113E
1102
1B04
7308
1508
117F
1108
1108
1108
1108
3118
0000
ENDCHAR

STARTCHAR cns2_2A59
ENCODING 10841
SWIDTH 854 0
DWIDTH 16 0
BBX 16 18 0 -2
BITMAP
0000
1020
1020
11FE
7C50
1048
1084
117B
1600
19FF
7040
1040
107E
1082
1002
1002
301C
0000
ENDCHAR

STARTCHAR cns2_2A5A
ENCODING 10842
SWIDTH 854 0
DWIDTH 16 0
BBX 16 18 0 -2
BITMAP
0000
1000
13FE
1020
7C40
1048
109C
13E2
1020
1C20
7020
11FE
1020
1020
1020
1020
33FF
0000
ENDCHAR

STARTCHAR cns2_2A5B
ENCODING 10843
SWIDTH 854 0
DWIDTH 16 0
BBX 16 18 0 -2
BITMAP
0000
1000
11FC
1104
7D04
11FC
1104
1104
11FC
1D20
7123
112C
1110
1108
1164
1182
1601
0000
ENDCHAR

STARTCHAR cns2_2A5C
ENCODING 10844
SWIDTH 854 0
DWIDTH 16 0
BBX 16 18 0 -2
BITMAP
0000
1020
11FE
1022
7842
1042
1082
130C
1800
7208
17DF
1249
1249
1249
1249
1451
3596
0000
ENDCHAR

STARTCHAR cns2_2A5D
ENCODING 10845
SWIDTH 854 0
DWIDTH 16 0
BBX 16 18 0 -2
BITMAP
0000
1000
11FF
1101
7D01
117D
1101
1101
117D
1D45
7145
1145
117D
1101
1101
1101
3103
0000
ENDCHAR

STARTCHAR cns2_2A5E
ENCODING 10846
SWIDTH 854 0
DWIDTH 16 0
BBX 16 18 0 -2
BITMAP
0000
1040
1040
10FC
7C84
1148
1250
1020
1C50
708C
1303
15FC
1104
1104
1104
11FC
3104
0000
ENDCHAR

STARTCHAR cns2_2A5F
ENCODING 10847
SWIDTH 854 0
DWIDTH 16 0
BBX 16 18 0 -2
BITMAP
0000
1020
107E
1082
7D44
1028
1010
1020
1048
1D9F
7021
1041
10A2
1014
1008
1030
31C0
0000
ENDCHAR

STARTCHAR cns2_2A60
ENCODING 10848
SWIDTH 854 0
DWIDTH 16 0
BBX 16 18 0 -2
BITMAP
0000
1092
1124
1124
1248
7D24
1124
1092
1040
1C7E
7082
1102
1244
1028
1010
1060
3380
0000
ENDCHAR

STARTCHAR cns2_2A61
ENCODING 10849
SWIDTH 854 0
DWIDTH 16 0
BBX 16 18 0 -2
BITMAP
0000
101E
11E0
1102
7D06
1178
1150
1151
1552
194C
3148
5144
1142
114A
1151
1160
3200
0000
ENDCHAR

STARTCHAR cns2_2A62
ENCODING 10850
SWIDTH 854 0
DWIDTH 16 0
BBX 16 18 0 -2
BITMAP
0000
1010
1010
1010
7DFF
1101
100C
11F0
1020
1C20
703E
11E0
1020
1020
1021
1021
301F
0000
ENDCHAR

STARTCHAR cns2_2A63
ENCODING 10851
SWIDTH 854 0
DWIDTH 16 0
BBX 16 18 0 -2
BITMAP
0000
1010
1010
1010
7DFF
1020
1040
1051
10D2
1954
7248
1048
1044
1044
1052
1062
3181
0000
ENDCHAR

STARTCHAR cns2_2A64
ENCODING 10852
SWIDTH 854 0
DWIDTH 16 0
BBX 16 18 0 -2
BITMAP
0000
0810
0810
09FF
0810
7FFF
0911
0911
0D11
1917
2838
4854
0892
0911
0A10
3810
0010
0000
ENDCHAR

STARTCHAR cns2_2A65
ENCODING 10853
SWIDTH 854 0
DWIDTH 16 0
BBX 16 18 0 -2
BITMAP
0000
1000
11FF
1084
7C84
10FC
1084
1484
1884
70FC
1084
1084
109C
13E4
1004
1004
3004
0000
ENDCHAR

STARTCHAR cns2_2A66
ENCODING 10854
SWIDTH 854 0
DWIDTH 16 0
BBX 16 18 0 -2
BITMAP
0000
1080
1080
17FF
1100
7D10
1110
1110
1592
1954
3138
5210
1228
1448
1888
5104
3203
0000
ENDCHAR

STARTCHAR cns2_2A67
ENCODING 10855
SWIDTH 854 0
DWIDTH 16 0
BBX 16 18 0 -2
BITMAP
0000
1084
1088
1118
1128
7D48
1308
1508
19FF
3108
5108
1108
1108
1108
1108
517F
2100
0000
ENDCHAR

STARTCHAR cns2_2A68
ENCODING 10856
SWIDTH 854 0
DWIDTH 16 0
BBX 16 18 0 -2
BITMAP
0000
0810
0810
0810
081F
0F90
0810
0810
087E
7F22
4124
4114
4108
4108
7F14
4122
00C1
0000
ENDCHAR

STARTCHAR cns2_2A69
ENCODING 10857
SWIDTH 854 0
DWIDTH 16 0
BBX 16 18 0 -2
BITMAP
0000
0020
3F20
2120
213F
3F22
2522
2442
2402
3F24
2214
2214
2208
2908
3114
40A2
0041
0000
ENDCHAR

STARTCHAR cns2_2A6A
ENCODING 10858
SWIDTH 854 0
DWIDTH 16 0
BBX 16 18 0 -2
BITMAP
0000
1007
1078
1040
3E40
4240
027F
3A44
2A44
2A44
2A44
3A44
2244
0284
0284
0204
0C04
0000
ENDCHAR

STARTCHAR cns2_2A6B
ENCODING 10859
SWIDTH 854 0
DWIDTH 16 0
BBX 16 18 0 -2
BITMAP
0000
0820
0820
087F
7F40
1080
103E
1002
1F0C
1108
1108
117F
1108
1108
2108
2108
4638
0000
ENDCHAR

STARTCHAR cns2_2A6C
ENCODING 10860
SWIDTH 854 0
DWIDTH 16 0
BBX 16 18 0 -2
BITMAP
0000
0000
003E
3022
1022
7C22
04BE
0522
7622
1522
1522
24BE
2480
4440
4420
0418
0C0E
0000
ENDCHAR

STARTCHAR cns2_2A6D
ENCODING 10861
SWIDTH 854 0
DWIDTH 16 0
BBX 16 18 0 -2
BITMAP
0000
0010
0010
3C10
25FF
2420
2420
2544
3C84
2448
2428
2410
2420
3C44
209E
01E1
0001
0000
ENDCHAR

STARTCHAR cns2_2A6E
ENCODING 10862
SWIDTH 854 0
DWIDTH 16 0
BBX 16 18 0 -2
BITMAP
0000
0090
0090
7890
4BFE
4892
4892
7BFE
4A92
4A90
4FFF
7891
4891
4111
0116
0210
0410
0000
ENDCHAR

STARTCHAR cns2_2A6F
ENCODING 10863
SWIDTH 854 0
DWIDTH 16 0
BBX 16 18 0 -2
BITMAP
0000
0000
01FE
3D02
2502
25FE
2502
3D40
2540
254E
2570
2540
3D40
2240
0240
0441
087F
0000
ENDCHAR

STARTCHAR cns2_2A70
ENCODING 10864
SWIDTH 854 0
DWIDTH 16 0
BBX 16 18 0 -2
BITMAP
0000
0000
0FFC
0804
0FFC
0804
0FFC
0000
7FFF
0400
0FFF
1091
6111
0621
1841
0182
1E0C
0000
ENDCHAR

STARTCHAR cns2_2A71
ENCODING 10865
SWIDTH 854 0
DWIDTH 16 0
BBX 16 18 0 -2
BITMAP
0000
1FFC
1004
1FFC
1004
1FFC
0000
0040
7FFF
00A0
0310
0C0C
7213
0210
0210
0410
1810
0000
ENDCHAR

STARTCHAR cns2_2A72
ENCODING 10866
SWIDTH 854 0
DWIDTH 16 0
BBX 16 18 0 -2
BITMAP
0000
0010
0010
7C92
4492
4492
4492
44FE
7C12
4410
4511
4511
4511
7D11
4511
41FF
0101
0000
ENDCHAR

STARTCHAR cns2_2A73
ENCODING 10867
SWIDTH 854 0
DWIDTH 16 0
BBX 16 18 0 -2
BITMAP
0000
0010
0010
7890
4890
49FE
4910
4A10
7810
4BFF
4810
4810
4828
7848
4084
0104
0603
0000
ENDCHAR

STARTCHAR cns2_2A74
ENCODING 10868
SWIDTH 854 0
DWIDTH 16 0
BBX 16 18 0 -2
BITMAP
0000
0040
0040
0080
7CFF
4501
4501
4401
7CF9
4489
4489
4489
44F9
7C89
4401
0002
000C
0000
ENDCHAR

STARTCHAR cns2_2A75
ENCODING 10869
SWIDTH 854 0
DWIDTH 16 0
BBX 16 18 0 -2
BITMAP
0000
0000
1FFC
1004
1FFC
1004
1FFC
0000
7FFF
0080
3FFE
2142
2222
2412
280A
3002
2006
0000
ENDCHAR

STARTCHAR cns2_2A76
ENCODING 10870
SWIDTH 854 0
DWIDTH 16 0
BBX 16 18 0 -2
BITMAP
0000
0408
0808
0F88
1890
1518
2224
4242
0580
187F
6000
0FF8
0808
0FF8
0808
0FF8
0808
0000
ENDCHAR

STARTCHAR cns2_2A77
ENCODING 10871
SWIDTH 854 0
DWIDTH 16 0
BBX 16 18 0 -2
BITMAP
0000
0000
0FFC
0804
0FFC
0804
0FFC
0200
1C3E
1122
1122
1722
1922
0222
022C
0420
1820
0000
ENDCHAR

STARTCHAR cns2_2A78
ENCODING 10872
SWIDTH 854 0
DWIDTH 16 0
BBX 16 18 0 -2
BITMAP
0000
0020
0010
7810
4800
49F0
4812
7812
4BD4
4858
4858
7894
4894
4914
0212
0411
1860
0000
ENDCHAR

STARTCHAR cns2_2A79
ENCODING 10873
SWIDTH 854 0
DWIDTH 16 0
BBX 16 18 0 -2
BITMAP
0000
1FFE
1002
1FFE
1002
1FFE
0000
0020
3E20
08FE
0822
0822
0822
0822
0842
3E92
010E
0000
ENDCHAR

STARTCHAR cns2_2A7A
ENCODING 10874
SWIDTH 854 0
DWIDTH 16 0
BBX 16 18 0 -2
BITMAP
0000
0010
3C10
2492
2492
2492
3C92
24FE
2492
2410
3D11
2511
2511
2511
25FF
4501
4C00
0000
ENDCHAR

STARTCHAR cns2_2A7B
ENCODING 10875
SWIDTH 854 0
DWIDTH 16 0
BBX 16 18 0 -2
BITMAP
0000
0040
3C40
2480
24FF
3D01
2601
2401
24F9
3C89
2489
2489
24F9
2489
4401
4402
0C1C
0000
ENDCHAR

STARTCHAR cns2_2A7C
ENCODING 10876
SWIDTH 854 0
DWIDTH 16 0
BBX 16 18 0 -2
BITMAP
0000
1010
1010
1010
7DFF
1101
1141
3941
3440
544C
5070
5040
5040
1040
1042
1042
107E
0000
ENDCHAR

STARTCHAR cns2_2A7D
ENCODING 10877
SWIDTH 854 0
DWIDTH 16 0
BBX 16 18 0 -2
BITMAP
0000
1000
1020
1010
1002
7C02
1044
1044
3048
394A
5551
5151
5260
1040
10C1
1341
107F
0000
ENDCHAR

STARTCHAR cns2_2A7E
ENCODING 10878
SWIDTH 854 0
DWIDTH 16 0
BBX 16 18 0 -2
BITMAP
0000
1010
1010
1112
1092
7C54
1058
10FE
3010
3810
5410
51FF
5010
1010
1010
1010
1010
0000
ENDCHAR

STARTCHAR cns2_2B21
ENCODING 11041
SWIDTH 854 0
DWIDTH 16 0
BBX 16 18 0 -2
BITMAP
0000
1010
1010
1010
11FF
7C10
1010
1010
30FE
3810
5430
5058
5054
1094
1112
1211
1010
0000
ENDCHAR

STARTCHAR cns2_2B22
ENCODING 11042
SWIDTH 854 0
DWIDTH 16 0
BBX 16 18 0 -2
BITMAP
0000
0800
09FE
0880
0880
7E80
08FC
1884
1C84
2A84
2884
48FC
4884
0880
0880
09FF
0800
0000
ENDCHAR

STARTCHAR cns2_2B23
ENCODING 11043
SWIDTH 854 0
DWIDTH 16 0
BBX 16 18 0 -2
BITMAP
0000
1092
1092
1092
1092
7C92
13FF
1092
3092
3892
5492
509E
5082
1080
1080
10FF
1080
0000
ENDCHAR

STARTCHAR cns2_2B24
ENCODING 11044
SWIDTH 854 0
DWIDTH 16 0
BBX 16 18 0 -2
BITMAP
0000
0800
09FF
0808
0810
7E10
0820
1834
1C52
2A92
2911
4811
4810
0810
0810
0800
09FF
0000
ENDCHAR

STARTCHAR cns2_2B25
ENCODING 11045
SWIDTH 854 0
DWIDTH 16 0
BBX 16 18 0 -2
BITMAP
0000
1000
13FF
1020
7C20
1040
1040
3040
3880
54FE
5182
5282
1482
1082
1082
10FE
1082
0000
ENDCHAR

STARTCHAR cns2_2B26
ENCODING 11046
SWIDTH 854 0
DWIDTH 16 0
BBX 16 18 0 -2
BITMAP
0000
1010
1010
11FF
1111
7D12
1110
1110
31FE
3902
5542
5124
5114
1208
1214
1462
1181
0000
ENDCHAR

STARTCHAR cns2_2B27
ENCODING 11047
SWIDTH 854 0
DWIDTH 16 0
BBX 16 18 0 -2
BITMAP
0000
1080
1080
1080
108F
7DE9
10A9
30A9
38A9
54A9
5129
5129
1129
1229
122F
14C9
1000
0000
ENDCHAR

STARTCHAR cns2_2B28
ENCODING 11048
SWIDTH 854 0
DWIDTH 16 0
BBX 16 18 0 -2
BITMAP
0000
1000
11FE
1102
1102
7DFE
1102
1140
3140
3940
557E
5140
5140
1140
1240
1241
147F
0000
ENDCHAR

STARTCHAR cns2_2B29
ENCODING 11049
SWIDTH 854 0
DWIDTH 16 0
BBX 16 18 0 -2
BITMAP
0000
1090
1090
1090
13FE
7C92
1092
13FE
3292
3C90
57FF
5491
5091
1111
1116
1210
1410
0000
ENDCHAR

STARTCHAR cns2_2B2A
ENCODING 11050
SWIDTH 854 0
DWIDTH 16 0
BBX 16 18 0 -2
BITMAP
0000
1000
11FC
1104
1104
7D04
1104
31FC
3904
5504
5104
51FC
1104
1104
1104
1104
17FF
0000
ENDCHAR

STARTCHAR cns2_2B2B
ENCODING 11051
SWIDTH 854 0
DWIDTH 16 0
BBX 16 18 0 -2
BITMAP
0000
0810
0810
08FE
0892
7E92
0892
18FE
1C92
2A92
2892
49FF
4882
0882
0882
0882
0886
0000
ENDCHAR

STARTCHAR cns2_2B2C
ENCODING 11052
SWIDTH 854 0
DWIDTH 16 0
BBX 16 18 0 -2
BITMAP
0000
1000
10FC
1084
1084
7C84
10FC
1000
33FF
3840
5440
50FC
5104
1004
1004
1008
1030
0000
ENDCHAR

STARTCHAR cns2_2B2D
ENCODING 11053
SWIDTH 854 0
DWIDTH 16 0
BBX 16 18 0 -2
BITMAP
0000
1010
1010
1010
10FE
7C92
1092
1092
3092
3892
55FF
5028
5024
1044
1042
1082
1301
0000
ENDCHAR

STARTCHAR cns2_2B2E
ENCODING 11054
SWIDTH 854 0
DWIDTH 16 0
BBX 16 18 0 -2
BITMAP
0000
1000
11FE
1102
1102
7D02
1102
3102
3902
5502
51FE
5102
1048
1084
1102
1201
1401
0000
ENDCHAR

STARTCHAR cns2_2B2F
ENCODING 11055
SWIDTH 854 0
DWIDTH 16 0
BBX 16 18 0 -2
BITMAP
0000
0800
08FE
0882
0882
7E82
0882
1882
1CFE
2AAA
2828
4828
4828
0848
0848
0889
0B0F
0000
ENDCHAR

STARTCHAR cns2_2B30
ENCODING 11056
SWIDTH 854 0
DWIDTH 16 0
BBX 16 18 0 -2
BITMAP
0000
1000
11FF
1129
1129
7D29
1129
1129
3129
3929
5549
518F
5101
1101
1101
11FF
1101
0000
ENDCHAR

STARTCHAR cns2_2B31
ENCODING 11057
SWIDTH 854 0
DWIDTH 16 0
BBX 16 18 0 -2
BITMAP
0000
0810
0810
0892
0892
7E92
0892
1892
1CFE
2A92
2810
4911
4911
0911
0911
09FF
0901
0000
ENDCHAR

STARTCHAR cns2_2B32
ENCODING 11058
SWIDTH 854 0
DWIDTH 16 0
BBX 16 18 0 -2
BITMAP
0000
1010
1090
1090
10FE
7D10
1110
1010
3010
39FF
5410
5028
5028
1044
1044
1082
1101
0000
ENDCHAR

STARTCHAR cns2_2B33
ENCODING 11059
SWIDTH 854 0
DWIDTH 16 0
BBX 16 18 0 -2
BITMAP
0000
1040
1040
1080
10FF
7D00
1010
1090
309E
38F2
5792
5092
5094
1090
1090
1081
10FF
0000
ENDCHAR

STARTCHAR cns2_2B34
ENCODING 11060
SWIDTH 854 0
DWIDTH 16 0
BBX 16 18 0 -2
BITMAP
0000
0880
0880
0880
09FE
7D02
0A02
19F2
1D12
2B12
29F2
4902
490C
0900
0901
0901
09FF
0000
ENDCHAR

STARTCHAR cns2_2B35
ENCODING 11061
SWIDTH 854 0
DWIDTH 16 0
BBX 16 18 0 -2
BITMAP
0000
1044
1044
1044
1084
7CBF
1184
3284
38A4
5494
5094
5084
1084
1084
1084
1084
109C
0000
ENDCHAR

STARTCHAR cns2_2B36
ENCODING 11062
SWIDTH 854 0
DWIDTH 16 0
BBX 16 18 0 -2
BITMAP
0000
101E
11E4
1104
7D24
1124
1124
3124
3924
5524
5124
5124
1122
122A
123A
14E5
1401
0000
ENDCHAR

STARTCHAR cns2_2B37
ENCODING 11063
SWIDTH 854 0
DWIDTH 16 0
BBX 16 18 0 -2
BITMAP
0000
0080
0080
3FFE
02A0
0490
188C
6083
0080
0FF8
0000
0000
7FFF
0080
0888
1084
6183
0000
ENDCHAR

STARTCHAR cns2_2B38
ENCODING 11064
SWIDTH 854 0
DWIDTH 16 0
BBX 16 18 0 -2
BITMAP
0000
0208
0404
083E
3FC2
0000
1FFC
1004
1004
1FFC
0080
7FFF
02A0
0490
0888
1084
6083
0000
ENDCHAR

STARTCHAR cns2_2B39
ENCODING 11065
SWIDTH 854 0
DWIDTH 16 0
BBX 16 18 0 -2
BITMAP
0000
0810
0810
09FF
3F01
0939
0804
1804
2C44
4A44
0844
0844
0884
0904
0A04
0C04
0803
0000
ENDCHAR

STARTCHAR cns2_2B3A
ENCODING 11066
SWIDTH 854 0
DWIDTH 16 0
BBX 16 18 0 -2
BITMAP
0000
0820
0820
0820
7E20
09FE
0800
1804
1C84
2A84
2884
4844
4844
0848
0848
0808
0BFF
0000
ENDCHAR

STARTCHAR cns2_2B3B
ENCODING 11067
SWIDTH 854 0
DWIDTH 16 0
BBX 16 18 0 -2
BITMAP
0000
1024
1022
1021
7CFF
1020
1021
1841
3442
5062
1054
1094
1108
110C
1212
1412
1061
0000
ENDCHAR

STARTCHAR cns2_2B3C
ENCODING 11068
SWIDTH 854 0
DWIDTH 16 0
BBX 16 18 0 -2
BITMAP
0000
0800
09FF
0801
3E01
08FD
0801
0CFD
1A85
2885
4885
08FD
0801
0801
0801
0809
0807
0000
ENDCHAR

STARTCHAR cns2_2B3D
ENCODING 11069
SWIDTH 854 0
DWIDTH 16 0
BBX 16 18 0 -2
BITMAP
0000
1020
1020
1020
103F
7C20
1020
1020
3020
39FE
5502
5102
5102
1102
1102
11FE
1102
0000
ENDCHAR

STARTCHAR cns2_2B3E
ENCODING 11070
SWIDTH 854 0
DWIDTH 16 0
BBX 16 18 0 -2
BITMAP
0000
1000
1000
10FC
1084
7C84
1084
10FC
3084
3884
5484
50FC
5084
1000
1000
13FF
1000
0000
ENDCHAR

STARTCHAR cns2_2B3F
ENCODING 11071
SWIDTH 854 0
DWIDTH 16 0
BBX 16 18 0 -2
BITMAP
0000
0810
0810
0810
08FE
7E92
0892
08FE
1892
1C92
2A92
28FE
4892
0810
0810
0810
0810
0000
ENDCHAR

STARTCHAR cns2_2B40
ENCODING 11072
SWIDTH 854 0
DWIDTH 16 0
BBX 16 18 0 -2
BITMAP
0000
10FE
1082
1082
1082
7C82
10FE
1840
3440
527F
5041
1041
1041
1081
1081
1109
1206
0000
ENDCHAR

STARTCHAR cns2_2B41
ENCODING 11073
SWIDTH 854 0
DWIDTH 16 0
BBX 16 18 0 -2
BITMAP
0000
1003
101C
10F0
1010
7C10
11FF
1002
3004
3808
5410
5020
50C0
1100
1180
1260
121F
0000
ENDCHAR

STARTCHAR cns2_2B42
ENCODING 11074
SWIDTH 854 0
DWIDTH 16 0
BBX 16 18 0 -2
BITMAP
0000
1040
1040
1080
10FC
7C84
1188
1250
3830
3448
5084
5323
1010
1040
1020
1010
1000
0000
ENDCHAR

STARTCHAR cns2_2B43
ENCODING 11075
SWIDTH 854 0
DWIDTH 16 0
BBX 16 18 0 -2
BITMAP
0000
1020
1050
1088
7D04
12FB
1000
1000
39FE
3802
5404
5408
5050
1030
1018
1008
1000
0000
ENDCHAR

STARTCHAR cns2_2B44
ENCODING 11076
SWIDTH 854 0
DWIDTH 16 0
BBX 16 18 0 -2
BITMAP
0000
1088
1088
1088
113F
7D09
1149
1A49
3389
5089
5109
1209
1449
17D1
1051
1021
1046
0000
ENDCHAR

STARTCHAR cns2_2B45
ENCODING 11077
SWIDTH 854 0
DWIDTH 16 0
BBX 16 18 0 -2
BITMAP
0000
0886
1080
17FF
3040
5020
1019
1087
0080
7FFF
02A0
0490
0888
1084
6083
0080
0080
0000
ENDCHAR

STARTCHAR cns2_2B46
ENCODING 11078
SWIDTH 854 0
DWIDTH 16 0
BBX 16 18 0 -2
BITMAP
0000
1020
1020
1020
3F3F
2121
4149
1D0A
1508
1508
1508
1508
1D14
0114
0122
0122
0E41
0000
ENDCHAR

STARTCHAR cns2_2B47
ENCODING 11079
SWIDTH 854 0
DWIDTH 16 0
BBX 16 18 0 -2
BITMAP
0000
0000
7EFC
1084
1084
2084
3C84
24FC
4484
6884
5884
08FC
1084
1084
2084
2084
43FF
0000
ENDCHAR

STARTCHAR cns2_2B48
ENCODING 11080
SWIDTH 854 0
DWIDTH 16 0
BBX 16 18 0 -2
BITMAP
0000
0020
7F20
0850
0848
1084
1E82
2311
2420
54C0
0B08
0810
1060
1382
200C
4070
0780
0000
ENDCHAR

STARTCHAR cns2_2B49
ENCODING 11081
SWIDTH 854 0
DWIDTH 16 0
BBX 16 18 0 -2
BITMAP
0000
1000
083C
0824
0824
7F24
0845
0887
0800
087F
3E02
0822
0814
0808
080C
7F12
0061
0000
ENDCHAR

STARTCHAR cns2_2B4A
ENCODING 11082
SWIDTH 854 0
DWIDTH 16 0
BBX 16 18 0 -2
BITMAP
0000
1040
1044
1F78
1040
1040
1040
1741
787F
0100
0088
1210
1224
1242
2289
07F9
7800
0000
ENDCHAR

STARTCHAR cns2_2B4B
ENCODING 11083
SWIDTH 854 0
DWIDTH 16 0
BBX 16 18 0 -2
BITMAP
0000
0000
1FFC
1084
1084
1FFC
1084
1084
1FFC
0000
1042
1F4C
1070
1040
1040
1741
787F
0000
ENDCHAR

STARTCHAR cns2_2B4C
ENCODING 11084
SWIDTH 854 0
DWIDTH 16 0
BBX 16 18 0 -2
BITMAP
0000
0400
0800
7F3F
1121
1121
2121
473F
0000
1FF0
0080
7FFE
0080
7FFE
0080
0082
00FE
0000
ENDCHAR

STARTCHAR cns2_2B4D
ENCODING 11085
SWIDTH 854 0
DWIDTH 16 0
BBX 16 18 0 -2
BITMAP
0000
0800
0FFE
1000
1FF8
2000
5FFC
0104
1FF4
1114
1FF4
1114
1FF4
1115
0105
0102
0102
0000
ENDCHAR

STARTCHAR cns2_2B4E
ENCODING 11086
SWIDTH 854 0
DWIDTH 16 0
BBX 16 18 0 -2
BITMAP
0000
0800
1000
1FFC
2000
4FFC
0000
7FFC
0404
07E4
0844
3884
0784
1865
631D
0002
0780
0000
ENDCHAR

STARTCHAR cns2_2B4F
ENCODING 11087
SWIDTH 854 0
DWIDTH 16 0
BBX 16 18 0 -2
BITMAP
0000
4020
2010
1010
07FF
4000
2088
0104
028A
1088
1050
1050
2020
2050
2088
4104
4603
0000
ENDCHAR

STARTCHAR cns2_2B50
ENCODING 11088
SWIDTH 854 0
DWIDTH 16 0
BBX 16 18 0 -2
BITMAP
0000
1082
0842
0024
0028
20FE
1044
0044
0044
0844
09FF
0844
1044
1044
1084
2084
2104
0000
ENDCHAR

STARTCHAR cns2_2B51
ENCODING 11089
SWIDTH 854 0
DWIDTH 16 0
BBX 16 18 0 -2
BITMAP
0000
2000
17FF
0400
0400
45FE
2410
0410
04FC
1410
1410
1410
25FE
2400
2400
47FF
4400
0000
ENDCHAR

STARTCHAR cns2_2B52
ENCODING 11090
SWIDTH 854 0
DWIDTH 16 0
BBX 16 18 0 -2
BITMAP
0000
2040
1040
07FE
0040
47FC
2044
07FC
0444
1440
17FE
2442
20A2
2096
4108
4204
4C03
0000
ENDCHAR

STARTCHAR cns2_2B53
ENCODING 11091
SWIDTH 854 0
DWIDTH 16 0
BBX 16 18 0 -2
BITMAP
0000
2020
1020
03FE
0020
4020
2020
07FF
0000
1020
1020
13FE
2020
2020
2020
4020
47FF
0000
ENDCHAR

STARTCHAR cns2_2B54
ENCODING 11092
SWIDTH 854 0
DWIDTH 16 0
BBX 16 18 0 -2
BITMAP
0000
2020
1020
03FF
0050
4088
2104
06FB
0000
1000
11FE
1020
2040
21FE
2002
4002
400C
0000
ENDCHAR

STARTCHAR cns2_2B55
ENCODING 11093
SWIDTH 854 0
DWIDTH 16 0
BBX 16 18 0 -2
BITMAP
0000
0000
27FF
1090
0090
4090
27FE
0492
0492
1492
1492
151E
2602
2402
2402
47FE
4402
0000
ENDCHAR

STARTCHAR cns2_2B56
ENCODING 11094
SWIDTH 854 0
DWIDTH 16 0
BBX 16 18 0 -2
BITMAP
0000
2040
1040
03FF
0080
4080
213E
0102
0304
1308
1508
117F
2108
2108
2108
4108
4118
0000
ENDCHAR

STARTCHAR cns2_2B57
ENCODING 11095
SWIDTH 854 0
DWIDTH 16 0
BBX 16 18 0 -2
BITMAP
0000
2110
1110
0110
0110
4110
2113
05DC
0510
1510
1510
1510
2510
2510
25D1
4711
4C1F
0000
ENDCHAR

STARTCHAR cns2_2B58
ENCODING 11096
SWIDTH 854 0
DWIDTH 16 0
BBX 16 18 0 -2
BITMAP
0000
2100
1100
0100
011F
47D1
2251
0251
0251
1451
1451
1351
2091
2151
2151
421F
4C11
0000
ENDCHAR

STARTCHAR cns2_2B59
ENCODING 11097
SWIDTH 854 0
DWIDTH 16 0
BBX 16 18 0 -2
BITMAP
0000
0000
11FF
0901
0101
217D
1145
0145
0145
0945
0945
097D
1145
1101
1101
21FF
2101
0000
ENDCHAR

STARTCHAR cns2_2B5A
ENCODING 11098
SWIDTH 854 0
DWIDTH 16 0
BBX 16 18 0 -2
BITMAP
0000
2020
1120
0120
01FE
4220
2220
0020
07FF
1020
1070
10A8
2124
2222
2C21
4020
4020
0000
ENDCHAR

STARTCHAR cns2_2B5B
ENCODING 11099
SWIDTH 854 0
DWIDTH 16 0
BBX 16 18 0 -2
BITMAP
0000
2040
1040
00FE
0082
4104
2284
0068
0010
1020
10FE
1342
2042
2042
2042
407E
4042
0000
ENDCHAR

STARTCHAR cns2_2B5C
ENCODING 11100
SWIDTH 854 0
DWIDTH 16 0
BBX 16 18 0 -2
BITMAP
0000
2040
1080
01FC
0288
4050
2020
0050
0188
1617
11F8
1110
2110
23FE
2010
4010
4010
0000
ENDCHAR

STARTCHAR cns2_2B5D
ENCODING 11101
SWIDTH 854 0
DWIDTH 16 0
BBX 16 18 0 -2
BITMAP
0000
2110
1114
0212
0212
4410
26FF
0A10
0210
1210
1228
1228
2224
2244
2242
4281
4200
0000
ENDCHAR

STARTCHAR cns2_2B5E
ENCODING 11102
SWIDTH 854 0
DWIDTH 16 0
BBX 16 18 0 -2
BITMAP
0000
2018
1020
00FC
0084
40A4
2094
0094
0084
17FF
1084
10A4
2094
2094
2104
4104
4208
0000
ENDCHAR

STARTCHAR cns2_2B5F
ENCODING 11103
SWIDTH 854 0
DWIDTH 16 0
BBX 16 18 0 -2
BITMAP
0000
2020
1020
0020
03FE
4202
2222
0020
0040
17FF
1088
1088
2148
2030
2018
4064
4382
0000
ENDCHAR

STARTCHAR cns2_2B60
ENCODING 11104
SWIDTH 854 0
DWIDTH 16 0
BBX 16 18 0 -2
BITMAP
0000
2104
1088
0090
0000
43FE
2020
0020
0020
17FF
1020
1050
2048
2084
2084
4102
4602
0000
ENDCHAR

STARTCHAR cns2_2B61
ENCODING 11105
SWIDTH 854 0
DWIDTH 16 0
BBX 16 18 0 -2
BITMAP
0000
2020
1020
0020
07FF
4020
2020
0020
03FE
1000
1000
11FC
2104
2104
2104
41FC
4104
0000
ENDCHAR

STARTCHAR cns2_2B62
ENCODING 11106
SWIDTH 854 0
DWIDTH 16 0
BBX 16 18 0 -2
BITMAP
0000
4041
2042
13FF
0048
4050
27FF
1040
0080
05FE
0A80
14FF
2881
4001
4002
0044
0038
0000
ENDCHAR

STARTCHAR cns2_2B63
ENCODING 11107
SWIDTH 854 0
DWIDTH 16 0
BBX 16 18 0 -2
BITMAP
0000
4000
23FF
1080
0088
4084
2102
13FF
0821
0020
0420
0BFF
1020
2020
4020
47FF
0000
0000
ENDCHAR

STARTCHAR cns2_2B64
ENCODING 11108
SWIDTH 854 0
DWIDTH 16 0
BBX 16 18 0 -2
BITMAP
0000
2100
1100
07FF
0100
4110
2110
0110
0152
1152
1154
1158
2210
2228
2424
4444
4083
0000
ENDCHAR

STARTCHAR cns2_2B65
ENCODING 11109
SWIDTH 854 0
DWIDTH 16 0
BBX 16 18 0 -2
BITMAP
0000
0000
13FF
0820
0040
4080
23FF
0249
0249
1249
1249
1249
2249
2249
2249
4203
4000
0000
ENDCHAR

STARTCHAR cns2_2B66
ENCODING 11110
SWIDTH 854 0
DWIDTH 16 0
BBX 16 18 0 -2
BITMAP
0000
2050
1050
0050
03FE
4252
2252
0252
0252
13FE
1252
1252
2252
2252
2252
43FE
4202
0000
ENDCHAR

STARTCHAR cns2_2B67
ENCODING 11111
SWIDTH 854 0
DWIDTH 16 0
BBX 16 18 0 -2
BITMAP
0000
4000
27FE
1402
0422
4422
25FA
0422
0422
1452
1452
148A
250A
2402
2402
47FE
4402
0000
ENDCHAR

STARTCHAR cns2_2B68
ENCODING 11112
SWIDTH 854 0
DWIDTH 16 0
BBX 16 18 0 -2
BITMAP
0000
4010
2020
1040
0080
0102
43FF
2049
1048
08FF
0108
0208
09FF
1008
2008
4008
4008
0000
ENDCHAR

STARTCHAR cns2_2B69
ENCODING 11113
SWIDTH 854 0
DWIDTH 16 0
BBX 16 18 0 -2
BITMAP
0000
2000
17FC
0404
0404
45F4
2484
0484
04F4
1514
1594
1654
2424
2442
2882
4B02
4001
0000
ENDCHAR

STARTCHAR cns2_2B6A
ENCODING 11114
SWIDTH 854 0
DWIDTH 16 0
BBX 16 18 0 -2
BITMAP
0000
4080
20FE
1104
0208
0010
41FF
2100
1100
097E
0142
0A42
127E
2240
4240
4241
047F
0000
ENDCHAR

STARTCHAR cns2_2B6B
ENCODING 11115
SWIDTH 854 0
DWIDTH 16 0
BBX 16 18 0 -2
BITMAP
0000
2200
12FE
0212
0212
42FF
2212
0612
0A12
02FE
1210
1210
1210
2220
2220
4240
4200
0000
ENDCHAR

STARTCHAR cns2_2B6C
ENCODING 11116
SWIDTH 854 0
DWIDTH 16 0
BBX 16 18 0 -2
BITMAP
0000
2000
101E
03E0
0200
4200
23FF
0200
0200
1200
12FE
1282
2282
2282
2482
44FE
4882
0000
ENDCHAR

STARTCHAR cns2_2B6D
ENCODING 11117
SWIDTH 854 0
DWIDTH 16 0
BBX 16 18 0 -2
BITMAP
0000
2040
1080
009E
0100
4240
2040
00BF
0084
1184
1284
1084
2084
2084
2084
4084
408C
0000
ENDCHAR

STARTCHAR cns2_2B6E
ENCODING 11118
SWIDTH 854 0
DWIDTH 16 0
BBX 16 18 0 -2
BITMAP
0000
0840
0820
0810
08FF
2A10
2A10
2A10
4810
08FE
0810
0810
1410
1210
2210
21FF
4000
0000
ENDCHAR

STARTCHAR cns2_2B6F
ENCODING 11119
SWIDTH 854 0
DWIDTH 16 0
BBX 16 18 0 -2
BITMAP
0000
1000
10FC
1084
1484
5484
5884
50FC
5084
1084
1084
10FC
1884
2400
2000
43FF
0000
0000
ENDCHAR

STARTCHAR cns2_2B70
ENCODING 11120
SWIDTH 854 0
DWIDTH 16 0
BBX 16 18 0 -2
BITMAP
0000
1000
10FE
1082
1482
5482
5882
5082
50FE
1028
1028
1028
1828
2448
2049
4089
010F
0000
ENDCHAR

STARTCHAR cns2_2B71
ENCODING 11121
SWIDTH 854 0
DWIDTH 16 0
BBX 16 18 0 -2
BITMAP
0000
0200
0400
0804
3FFE
0002
0FFC
0804
0FFC
0080
0482
0884
3148
0220
0410
180C
6003
0000
ENDCHAR

STARTCHAR cns2_2B72
ENCODING 11122
SWIDTH 854 0
DWIDTH 16 0
BBX 16 18 0 -2
BITMAP
0000
0200
0400
0FFE
1002
2002
07E2
0422
0422
07EC
0400
0401
07FF
0000
1222
2221
2221
0000
ENDCHAR

STARTCHAR cns2_2B73
ENCODING 11123
SWIDTH 854 0
DWIDTH 16 0
BBX 16 18 0 -2
BITMAP
0000
1000
11FE
1010
1410
5410
5890
5090
509E
1090
1090
1090
1890
2490
2090
43FF
0000
0000
ENDCHAR

STARTCHAR cns2_2B74
ENCODING 11124
SWIDTH 854 0
DWIDTH 16 0
BBX 16 18 0 -2
BITMAP
0000
0810
0810
0810
08FE
2A92
2A92
2A92
4892
0892
09FF
0828
1444
1244
2282
2102
4201
0000
ENDCHAR

STARTCHAR cns2_2B75
ENCODING 11125
SWIDTH 854 0
DWIDTH 16 0
BBX 16 18 0 -2
BITMAP
0000
0840
0840
0880
0AFC
2E84
2C88
2850
4830
0848
0884
0B23
1C10
1400
2620
2010
4000
0000
ENDCHAR

STARTCHAR cns2_2B76
ENCODING 11126
SWIDTH 854 0
DWIDTH 16 0
BBX 16 18 0 -2
BITMAP
0000
1010
1028
1044
1482
557D
5800
5000
50FE
1002
1004
1828
1410
2418
2408
4200
0000
0000
ENDCHAR

STARTCHAR cns2_2B77
ENCODING 11127
SWIDTH 854 0
DWIDTH 16 0
BBX 16 18 0 -2
BITMAP
0000
0400
0400
25FF
2402
2402
3C02
24F2
0492
7C92
1492
1492
14F2
2492
2402
4402
040E
0000
ENDCHAR

STARTCHAR cns2_2B78
ENCODING 11128
SWIDTH 854 0
DWIDTH 16 0
BBX 16 18 0 -2
BITMAP
0000
2410
2412
2492
2454
3C54
2010
20FE
2010
3C10
2410
25FF
2410
2410
2410
4410
4010
0000
ENDCHAR

STARTCHAR cns2_2B79
ENCODING 11129
SWIDTH 854 0
DWIDTH 16 0
BBX 16 18 0 -2
BITMAP
0000
42FE
4222
4222
4222
4242
7E42
409E
4100
7EFE
4282
4282
4282
4282
4282
42FE
4100
0000
ENDCHAR

STARTCHAR cns2_2B7A
ENCODING 11130
SWIDTH 854 0
DWIDTH 16 0
BBX 16 18 0 -2
BITMAP
0000
0810
081C
28F0
2890
3E90
2890
48FF
4811
0E31
7851
0851
0896
0910
0810
0810
0810
0000
ENDCHAR

STARTCHAR cns2_2B7B
ENCODING 11131
SWIDTH 854 0
DWIDTH 16 0
BBX 16 18 0 -2
BITMAP
0000
0810
0810
2810
2810
3EFE
2892
4892
4892
0E92
18FE
6892
0892
0892
0892
08FE
0882
0000
ENDCHAR

STARTCHAR cns2_2B7C
ENCODING 11132
SWIDTH 854 0
DWIDTH 16 0
BBX 16 18 0 -2
BITMAP
0000
0800
08FE
2882
28A2
3E92
2892
4882
4BFF
0C82
7924
0914
0914
0904
09FF
0904
0818
0000
ENDCHAR

STARTCHAR cns2_2B7D
ENCODING 11133
SWIDTH 854 0
DWIDTH 16 0
BBX 16 18 0 -2
BITMAP
0000
0450
0448
0840
087F
13C0
1820
2820
4810
0C49
0447
0FFC
1040
0040
7FFF
0040
0040
0000
ENDCHAR

STARTCHAR cns2_2B7E
ENCODING 11134
SWIDTH 854 0
DWIDTH 16 0
BBX 16 18 0 -2
BITMAP
0000
0FF8
0808
0FF8
0808
0FF8
0808
0FF8
0800
0090
0088
7FFF
0180
0260
0418
1804
6003
0000
ENDCHAR

STARTCHAR cns2_2C21
ENCODING 11297
SWIDTH 854 0
DWIDTH 16 0
BBX 16 18 0 -2
BITMAP
0000
4410
2810
1010
31FF
5010
0810
0810
18FE
1800
2800
48FE
0882
0882
0882
10FE
3082
0000
ENDCHAR

STARTCHAR cns2_2C22
ENCODING 11298
SWIDTH 854 0
DWIDTH 16 0
BBX 16 18 0 -2
BITMAP
0000
4410
2814
1012
2810
4BFF
0410
0492
0492
0C94
17F4
2488
4488
0494
0915
1223
60C1
0000
ENDCHAR

STARTCHAR cns2_2C23
ENCODING 11299
SWIDTH 854 0
DWIDTH 16 0
BBX 16 18 0 -2
BITMAP
0000
4440
2842
1042
29F4
4844
0448
07FF
0420
0C40
14C6
2758
4460
0440
0841
107F
6000
0000
ENDCHAR

STARTCHAR cns2_2C24
ENCODING 11300
SWIDTH 854 0
DWIDTH 16 0
BBX 16 18 0 -2
BITMAP
0000
4400
29FF
1000
3000
50FE
0882
0882
1882
18FE
2882
4882
0882
08FE
0882
1000
33FF
0000
ENDCHAR

STARTCHAR cns2_2C25
ENCODING 11301
SWIDTH 854 0
DWIDTH 16 0
BBX 16 18 0 -2
BITMAP
0000
4400
29FF
1101
2901
497D
0901
0901
197D
2945
4945
0945
097D
0901
0901
1101
6503
0000
ENDCHAR

STARTCHAR cns2_2C26
ENCODING 11302
SWIDTH 854 0
DWIDTH 16 0
BBX 16 18 0 -2
BITMAP
0000
4400
29FE
114A
314A
514A
0BFF
094A
194A
1BFF
294A
494A
094A
0A4A
0A52
1052
30C6
0000
ENDCHAR

STARTCHAR cns2_2C27
ENCODING 11303
SWIDTH 854 0
DWIDTH 16 0
BBX 16 18 0 -2
BITMAP
0000
4448
2848
1048
3049
514A
08CC
0848
1848
184C
28CA
4949
0848
0848
0889
1089
310F
0000
ENDCHAR

STARTCHAR cns2_2C28
ENCODING 11304
SWIDTH 854 0
DWIDTH 16 0
BBX 16 18 0 -2
BITMAP
0000
0810
0810
0810
7F92
0812
5051
2051
1150
0A92
0412
0832
0A04
1104
2308
7CB0
01C0
0000
ENDCHAR

STARTCHAR cns2_2C29
ENCODING 11305
SWIDTH 854 0
DWIDTH 16 0
BBX 16 18 0 -2
BITMAP
0000
0040
7C20
1010
1002
1042
1044
1144
7D48
1148
1250
1262
1041
1CC1
6145
0644
087C
0000
ENDCHAR

STARTCHAR cns2_2C2A
ENCODING 11306
SWIDTH 854 0
DWIDTH 16 0
BBX 16 18 0 -2
BITMAP
0000
0000
7DFF
1002
1002
1002
11F2
1112
7D12
1112
1112
1112
11F2
1D12
6002
0002
0006
0000
ENDCHAR

STARTCHAR cns2_2C2B
ENCODING 11307
SWIDTH 854 0
DWIDTH 16 0
BBX 16 18 0 -2
BITMAP
0000
0080
7C80
1080
108F
13E9
10A9
7CA9
10A9
1129
1129
1129
1D29
6229
0249
044F
08C9
0000
ENDCHAR

STARTCHAR cns2_2C2C
ENCODING 11308
SWIDTH 854 0
DWIDTH 16 0
BBX 16 18 0 -2
BITMAP
0000
0018
0410
7E92
10FF
1093
1092
7EFE
1092
1092
1092
10FE
1092
1E10
7010
6010
0010
0000
ENDCHAR

STARTCHAR cns2_2C2D
ENCODING 11309
SWIDTH 854 0
DWIDTH 16 0
BBX 16 18 0 -2
BITMAP
0000
0000
7E60
0810
0808
09FF
0820
7E20
0944
0884
0848
0828
0E10
1812
6022
0047
01F9
0000
ENDCHAR

STARTCHAR cns2_2C2E
ENCODING 11310
SWIDTH 854 0
DWIDTH 16 0
BBX 16 18 0 -2
BITMAP
0000
0000
7DFF
1010
1010
1112
1092
1094
7C14
1010
11FF
1010
1010
1C10
6010
0010
0010
0000
ENDCHAR

STARTCHAR cns2_2C2F
ENCODING 11311
SWIDTH 854 0
DWIDTH 16 0
BBX 16 18 0 -2
BITMAP
0000
0104
0104
7D04
1104
17FF
1104
1104
7D04
1104
11FC
1104
1104
1D04
3104
41FC
0000
0000
ENDCHAR

STARTCHAR cns2_2C30
ENCODING 11312
SWIDTH 854 0
DWIDTH 16 0
BBX 16 18 0 -2
BITMAP
0000
0000
7E92
0892
0892
0892
09FF
7E92
0892
0892
0892
089E
0E92
1880
6080
00FF
0080
0000
ENDCHAR

STARTCHAR cns2_2C31
ENCODING 11313
SWIDTH 854 0
DWIDTH 16 0
BBX 16 18 0 -2
BITMAP
0000
0020
0010
7DFF
1020
1020
1044
108E
7DF2
1150
1050
1050
1050
1C90
6091
0111
021F
0000
ENDCHAR

STARTCHAR cns2_2C32
ENCODING 11314
SWIDTH 854 0
DWIDTH 16 0
BBX 16 18 0 -2
BITMAP
0000
0000
01FF
7C21
1021
1021
1021
1041
7D86
1000
10FF
1081
1081
1C81
6081
00FF
0081
0000
ENDCHAR

STARTCHAR cns2_2C33
ENCODING 11315
SWIDTH 854 0
DWIDTH 16 0
BBX 16 18 0 -2
BITMAP
0000
0000
7C7C
1044
1044
1044
107C
1044
7C44
1044
107C
1044
1044
1044
1C44
71FF
0000
0000
ENDCHAR

STARTCHAR cns2_2C34
ENCODING 11316
SWIDTH 854 0
DWIDTH 16 0
BBX 16 18 0 -2
BITMAP
0000
0000
01FF
7D11
1111
1111
11FF
1111
7D11
1111
11FF
1111
1010
1C10
6010
0010
0010
0000
ENDCHAR

STARTCHAR cns2_2C35
ENCODING 11317
SWIDTH 854 0
DWIDTH 16 0
BBX 16 18 0 -2
BITMAP
0000
0010
0010
7CFE
1092
1092
1092
10FE
7C92
1092
1092
11FF
1082
1C82
6082
0082
0086
0000
ENDCHAR

STARTCHAR cns2_2C36
ENCODING 11318
SWIDTH 854 0
DWIDTH 16 0
BBX 16 18 0 -2
BITMAP
0000
0020
0020
7C20
1040
1044
1082
11FE
7C01
1000
10FE
1082
1082
1C82
6082
00FE
0082
0000
ENDCHAR

STARTCHAR cns2_2C37
ENCODING 11319
SWIDTH 854 0
DWIDTH 16 0
BBX 16 18 0 -2
BITMAP
0000
0100
0100
7DFE
1102
1202
10F2
1092
7C92
1092
10F2
1082
108C
1C80
6080
0081
007F
0000
ENDCHAR

STARTCHAR cns2_2C38
ENCODING 11320
SWIDTH 854 0
DWIDTH 16 0
BBX 16 18 0 -2
BITMAP
0000
0030
01C0
7D0F
1129
1129
1129
1129
7D29
1169
11A9
1229
1029
1C4B
6048
0088
0108
0000
ENDCHAR

STARTCHAR cns2_2C39
ENCODING 11321
SWIDTH 854 0
DWIDTH 16 0
BBX 16 18 0 -2
BITMAP
0000
1000
08FF
0820
7F20
1020
103C
1024
1E24
1224
1234
122C
2244
4244
025D
0465
1887
0000
ENDCHAR

STARTCHAR cns2_2C3A
ENCODING 11322
SWIDTH 854 0
DWIDTH 16 0
BBX 16 18 0 -2
BITMAP
0000
00E0
0420
0810
110C
6113
0270
1F88
0008
7FFF
0400
07F0
0810
0B90
0831
1FD1
601F
0000
ENDCHAR

STARTCHAR cns2_2C3B
ENCODING 11323
SWIDTH 854 0
DWIDTH 16 0
BBX 16 18 0 -2
BITMAP
0000
0800
0800
1FFC
2224
4444
1884
0338
0000
3FFE
2082
3FFE
2082
3FFE
2082
2082
200C
0000
ENDCHAR

STARTCHAR cns2_2C3C
ENCODING 11324
SWIDTH 854 0
DWIDTH 16 0
BBX 16 18 0 -2
BITMAP
0000
0040
7C40
5440
547F
5481
5501
5401
7C71
5401
5401
5401
54F9
5401
7C01
4002
001C
0000
ENDCHAR

STARTCHAR cns2_2C3D
ENCODING 11325
SWIDTH 854 0
DWIDTH 16 0
BBX 16 18 0 -2
BITMAP
0000
0000
7CFE
5480
5480
5480
54FE
7CC2
54C2
54A4
5494
5488
5488
7D14
4D24
4242
0182
0000
ENDCHAR

STARTCHAR cns2_2C3E
ENCODING 11326
SWIDTH 854 0
DWIDTH 16 0
BBX 16 18 0 -2
BITMAP
0000
0040
1FFF
1000
101C
57E0
3420
1420
17FE
1420
3420
5410
1410
14D0
1709
2C05
2002
0000
ENDCHAR

STARTCHAR cns2_2C3F
ENCODING 11327
SWIDTH 854 0
DWIDTH 16 0
BBX 16 18 0 -2
BITMAP
0000
0040
1FFF
1000
5210
3210
1210
1210
3210
53DE
5210
1210
2210
2252
4252
418E
4000
0000
ENDCHAR

STARTCHAR cns2_2C40
ENCODING 11328
SWIDTH 854 0
DWIDTH 16 0
BBX 16 18 0 -2
BITMAP
0000
1F80
0088
0150
2222
1414
0BE8
1224
2223
443C
0000
0FF8
0210
0120
00C0
0330
1C0E
0000
ENDCHAR

STARTCHAR cns2_2C41
ENCODING 11329
SWIDTH 854 0
DWIDTH 16 0
BBX 16 18 0 -2
BITMAP
0000
7FFC
0084
0084
1FFC
1080
2080
7FFE
0082
0082
008C
0080
1FFC
1224
1224
1224
7FFF
0000
ENDCHAR

STARTCHAR cns2_2C42
ENCODING 11330
SWIDTH 854 0
DWIDTH 16 0
BBX 16 18 0 -2
BITMAP
0000
0020
7820
4820
4BFF
4A22
7A24
4830
4830
4850
7850
4850
4890
4890
7911
4A11
041F
0000
ENDCHAR

STARTCHAR cns2_2C43
ENCODING 11331
SWIDTH 854 0
DWIDTH 16 0
BBX 16 18 0 -2
BITMAP
0000
0000
7800
48FC
4800
4800
7800
4800
4BFF
4820
7820
4840
4848
4844
788E
49F2
0000
0000
ENDCHAR

STARTCHAR cns2_2C44
ENCODING 11332
SWIDTH 854 0
DWIDTH 16 0
BBX 16 18 0 -2
BITMAP
0000
0000
7BFF
4820
4820
4920
793E
4922
4922
4922
79FE
4902
4802
4802
7802
4804
0018
0000
ENDCHAR

STARTCHAR cns2_2C45
ENCODING 11333
SWIDTH 854 0
DWIDTH 16 0
BBX 16 18 0 -2
BITMAP
0000
0000
7DFF
4500
4500
4500
7DFE
4502
4502
4542
7D44
4524
4528
4510
7D18
4264
0583
0000
ENDCHAR

STARTCHAR cns2_2C46
ENCODING 11334
SWIDTH 854 0
DWIDTH 16 0
BBX 16 18 0 -2
BITMAP
0000
0000
7C0E
45F0
4420
4420
7C3E
45E0
4420
4420
7C3F
45E0
4420
4420
7C21
4421
003F
0000
ENDCHAR

STARTCHAR cns2_2C47
ENCODING 11335
SWIDTH 854 0
DWIDTH 16 0
BBX 16 18 0 -2
BITMAP
0000
0010
7C20
4440
44FF
4501
7E01
4479
4401
4401
4401
7CF9
4401
4401
4401
4431
7C0E
0000
ENDCHAR

STARTCHAR cns2_2C48
ENCODING 11336
SWIDTH 854 0
DWIDTH 16 0
BBX 16 18 0 -2
BITMAP
0000
0000
7838
4888
4884
4902
7901
4AFC
4840
4840
78FE
4882
4802
4802
7802
4804
0018
0000
ENDCHAR

STARTCHAR cns2_2C49
ENCODING 11337
SWIDTH 854 0
DWIDTH 16 0
BBX 16 18 0 -2
BITMAP
0000
0008
7CF0
4480
4480
4480
7C80
44FF
4488
4488
7C88
4488
4488
4488
7D08
0208
0008
0000
ENDCHAR

STARTCHAR cns2_2C4A
ENCODING 11338
SWIDTH 854 0
DWIDTH 16 0
BBX 16 18 0 -2
BITMAP
0000
1002
10F2
2012
3E12
4812
08F2
0882
7E82
0882
09F2
0912
1412
1412
1212
2212
40E2
0000
ENDCHAR

STARTCHAR cns2_2C4B
ENCODING 11339
SWIDTH 854 0
DWIDTH 16 0
BBX 16 18 0 -2
BITMAP
0000
0800
1002
107C
1F10
2410
4410
047F
0410
3F90
0430
0428
0A44
1184
1102
2101
4000
0000
ENDCHAR

STARTCHAR cns2_2C4C
ENCODING 11340
SWIDTH 854 0
DWIDTH 16 0
BBX 16 18 0 -2
BITMAP
0000
0020
7E20
1020
11FE
1020
2020
3C20
65FF
6420
2420
2450
2448
2488
3C84
2102
0601
0000
ENDCHAR

STARTCHAR cns2_2C4D
ENCODING 11341
SWIDTH 854 0
DWIDTH 16 0
BBX 16 18 0 -2
BITMAP
0000
0000
7CFE
1004
1044
1044
1044
2084
7DFF
2404
240C
2414
2424
2444
3D84
2004
0018
0000
ENDCHAR

STARTCHAR cns2_2C4E
ENCODING 11342
SWIDTH 854 0
DWIDTH 16 0
BBX 16 18 0 -2
BITMAP
0000
0088
0088
7E88
0888
1088
108B
20EC
3C88
6488
2488
2488
2488
2488
3C89
20E9
030F
0000
ENDCHAR

STARTCHAR cns2_2C4F
ENCODING 11343
SWIDTH 854 0
DWIDTH 16 0
BBX 16 18 0 -2
BITMAP
0000
0010
7C10
1010
1010
21D1
205A
3C54
6454
6454
2454
2492
2492
2511
3C10
2010
0060
0000
ENDCHAR

STARTCHAR cns2_2C50
ENCODING 11344
SWIDTH 854 0
DWIDTH 16 0
BBX 16 18 0 -2
BITMAP
0000
0000
7DFC
1044
1044
1048
2048
3C7E
6442
6442
24A2
2494
2494
2488
3D14
2122
02C1
0000
ENDCHAR

STARTCHAR cns2_2C51
ENCODING 11345
SWIDTH 854 0
DWIDTH 16 0
BBX 16 18 0 -2
BITMAP
0000
0000
7E1C
1044
1042
1082
2101
3C01
64FE
6422
2422
2422
2422
2442
3C42
2082
010C
0000
ENDCHAR

STARTCHAR cns2_2C52
ENCODING 11346
SWIDTH 854 0
DWIDTH 16 0
BBX 16 18 0 -2
BITMAP
0000
0020
7E50
1050
1048
1084
2102
3C49
6448
6448
2448
2448
2448
2488
3C88
2108
0008
0000
ENDCHAR

STARTCHAR cns2_2C53
ENCODING 11347
SWIDTH 854 0
DWIDTH 16 0
BBX 16 18 0 -2
BITMAP
0000
0080
3FFE
0080
0080
3FFE
0080
0080
7FFF
0080
0000
7FFF
0200
07F8
0C08
1408
27F8
0000
ENDCHAR

STARTCHAR cns2_2C54
ENCODING 11348
SWIDTH 854 0
DWIDTH 16 0
BBX 16 18 0 -2
BITMAP
0000
0000
7CFE
1082
10A2
1092
208A
3C8A
6482
65FF
2482
2482
2482
2502
3D02
2202
0206
0000
ENDCHAR

STARTCHAR cns2_2C55
ENCODING 11349
SWIDTH 854 0
DWIDTH 16 0
BBX 16 18 0 -2
BITMAP
0000
007C
7E44
1044
1044
1084
2087
3D00
64FE
6402
2442
2444
2428
2410
3C28
2044
0183
0000
ENDCHAR

STARTCHAR cns2_2C56
ENCODING 11350
SWIDTH 854 0
DWIDTH 16 0
BBX 16 18 0 -2
BITMAP
0000
0820
0820
7E20
03FF
0240
0240
047E
0842
1C42
2A42
4842
0882
0882
0904
0904
0A18
0000
ENDCHAR

STARTCHAR cns2_2C57
ENCODING 11351
SWIDTH 854 0
DWIDTH 16 0
BBX 16 18 0 -2
BITMAP
0000
2010
1010
1010
7C10
05FF
0511
0911
1111
3911
55FF
1111
1010
1010
1010
1010
1010
0000
ENDCHAR

STARTCHAR cns2_2C58
ENCODING 11352
SWIDTH 854 0
DWIDTH 16 0
BBX 16 18 0 -2
BITMAP
0000
207C
1044
1044
7C44
0484
0487
0900
10FE
3802
5402
1044
1044
1028
1010
106C
1183
0000
ENDCHAR

STARTCHAR cns2_2C59
ENCODING 11353
SWIDTH 854 0
DWIDTH 16 0
BBX 16 18 0 -2
BITMAP
0000
2000
1002
7EFC
0210
0410
0810
19FF
2C10
4A10
0A30
0828
0844
0884
0902
0A01
0800
0000
ENDCHAR

STARTCHAR cns2_2C5A
ENCODING 11354
SWIDTH 854 0
DWIDTH 16 0
BBX 16 18 0 -2
BITMAP
0000
2020
1050
1050
7C48
0484
0502
0849
1048
3848
5448
1048
1048
1088
1088
1108
1008
0000
ENDCHAR

STARTCHAR cns2_2C5B
ENCODING 11355
SWIDTH 854 0
DWIDTH 16 0
BBX 16 18 0 -2
BITMAP
0000
0688
7888
0888
0888
0889
7E8A
08EC
1888
1C88
2A88
2888
4888
4888
08A9
08C9
0B0F
0000
ENDCHAR

STARTCHAR cns2_2C5C
ENCODING 11356
SWIDTH 854 0
DWIDTH 16 0
BBX 16 18 0 -2
BITMAP
0000
0610
7810
0810
0810
09FF
7F11
0911
1911
1D11
2B11
29FF
4810
4810
0810
0810
0810
0000
ENDCHAR

STARTCHAR cns2_2C5D
ENCODING 11357
SWIDTH 854 0
DWIDTH 16 0
BBX 16 18 0 -2
BITMAP
0000
0C06
7018
10E0
1020
103E
7DE0
1020
1020
303F
39E0
5420
5020
1020
1021
1021
101F
0000
ENDCHAR

STARTCHAR cns2_2C5E
ENCODING 11358
SWIDTH 854 0
DWIDTH 16 0
BBX 16 18 0 -2
BITMAP
0000
0C06
70F8
1090
1090
1090
7C90
10FE
1088
3088
3888
5488
5084
1084
1085
10A3
10C1
0000
ENDCHAR

STARTCHAR cns2_2C5F
ENCODING 11359
SWIDTH 854 0
DWIDTH 16 0
BBX 16 18 0 -2
BITMAP
0000
0C00
701C
1044
1042
1082
7D01
1001
10FE
3022
3822
5422
5022
1042
1042
1082
110C
0000
ENDCHAR

STARTCHAR cns2_2C60
ENCODING 11360
SWIDTH 854 0
DWIDTH 16 0
BBX 16 18 0 -2
BITMAP
0000
0080
0080
7FFF
4221
4221
0420
093E
3100
01FE
3F00
0100
1104
1104
1FFD
1101
00FF
0000
ENDCHAR

STARTCHAR cns2_2C61
ENCODING 11361
SWIDTH 854 0
DWIDTH 16 0
BBX 16 18 0 -2
BITMAP
0000
0080
3FFF
2241
4442
087E
3000
0078
1F80
0080
0080
7FFF
0080
0140
0220
0418
1807
0000
ENDCHAR

STARTCHAR cns2_2C62
ENCODING 11362
SWIDTH 854 0
DWIDTH 16 0
BBX 16 18 0 -2
BITMAP
0000
0820
0820
0820
7E20
01FF
4420
4420
4448
2448
2850
2890
0E94
7122
0122
027D
0000
0000
ENDCHAR

STARTCHAR cns2_2C63
ENCODING 11363
SWIDTH 854 0
DWIDTH 16 0
BBX 16 18 0 -2
BITMAP
0000
0810
1020
3F7F
50A0
4890
0000
0080
0080
7FFF
1000
1000
1000
1000
1000
1FFF
0000
0000
ENDCHAR

STARTCHAR cns2_2C64
ENCODING 11364
SWIDTH 854 0
DWIDTH 16 0
BBX 16 18 0 -2
BITMAP
0000
0810
0810
0F9F
1428
2244
0102
0000
0000
3FFE
0080
0080
0080
0080
0080
7FFF
0000
0000
ENDCHAR

STARTCHAR cns2_2C65
ENCODING 11365
SWIDTH 854 0
DWIDTH 16 0
BBX 16 18 0 -2
BITMAP
0000
1040
1040
1040
54FF
3880
1100
7DFE
1004
1008
3810
5420
1040
1081
1081
1081
107E
0000
ENDCHAR

STARTCHAR cns2_2C66
ENCODING 11366
SWIDTH 854 0
DWIDTH 16 0
BBX 16 18 0 -2
BITMAP
0000
1000
11FC
1044
5444
3844
1044
7C44
11F4
1044
3844
5445
1045
1085
1083
1083
1102
0000
ENDCHAR

ENDFONT
